<svg width="300" height="150" viewBox="0 0 300 150" fill="none" xmlns="http://www.w3.org/2000/svg">
<g clip-path="url(#clip0_84_39)">
<path d="M150.127 112.745C119.006 112.745 87.63 112.745 56.5089 112.745C44.7747 112.745 35.0812 105.349 32.0201 94.3826C31.2549 92.0872 30.9998 90.047 30.9998 87.7517C30.9998 79.3356 31.2549 70.9195 30.9998 62.7584C30.4896 48.7315 42.734 37 56.5089 37C86.6096 37.255 116.455 37 146.556 37C178.698 37 210.584 37 242.725 37C255.225 37 264.918 43.8859 268.234 54.8524C269 57.1477 269 59.1879 269 61.4832C269 70.1544 269 78.5705 269 87.2416C269 102.289 258.286 112.745 242.98 112.745C225.124 112.745 207.523 112.745 189.666 112.745C176.657 112.745 163.392 112.745 150.127 112.745ZM257.776 78.0604C257.776 73.4698 258.031 68.6242 257.776 64.0336C257.776 62.7584 257.776 61.4832 257.521 60.4631C257.01 57.9128 254.715 55.8725 252.419 55.8725C250.123 55.8725 248.082 57.9128 247.827 60.7181C247.572 62.5034 247.827 64.2886 247.827 66.3289C247.827 69.1342 248.082 71.9396 247.827 75C247.572 79.0805 245.276 81.6309 241.705 82.396C237.879 83.4161 234.307 81.8859 232.267 78.3154C230.991 76.2752 230.736 74.2349 230.736 71.9396C230.736 68.3691 230.991 64.5436 230.736 60.9732C230.481 58.1678 228.44 56.1275 226.144 55.8725C223.849 55.6175 221.043 57.9128 221.043 60.9732C220.788 66.5839 220.277 72.4497 221.298 78.0604C222.318 84.6913 226.144 89.7919 232.777 91.8322C235.838 92.8524 238.899 92.3423 241.96 92.3423C243.491 92.3423 246.042 90.8121 246.552 93.3624C247.062 95.6577 245.021 96.9329 243.491 98.2081C242.47 99.2282 240.94 99.4832 239.409 99.4832C236.603 99.7383 234.307 98.9732 232.012 97.1879C229.971 95.4027 227.675 95.9128 225.889 97.698C224.104 99.2282 223.849 102.289 225.379 104.329C226.144 105.604 227.42 106.369 228.695 107.134C241.45 114.53 257.01 106.114 257.521 91.3221C257.776 86.9866 257.776 82.396 257.776 78.0604ZM94.2624 92.3423C104.721 92.5973 113.394 86.7315 113.904 73.7248C114.159 63.5235 105.486 55.1074 95.2827 55.1074C84.5689 55.1074 76.1509 63.0134 76.1509 73.7248C76.1509 84.9463 83.5485 92.3423 94.2624 92.3423ZM181.759 86.7315C181.759 91.0671 183.544 94.3826 187.881 96.1678C192.217 97.953 196.044 97.1879 198.85 93.6175C200.89 91.0671 202.931 91.3222 205.737 92.0872C213.9 94.3826 220.532 88.0067 218.237 79.5906C217.726 77.5503 216.706 75.7651 215.176 74.2349C212.37 71.1745 209.053 68.8792 205.482 67.094C192.472 60.9732 195.534 60.9732 187.116 71.6846C184.054 76.0201 181.504 80.6107 181.759 86.7315ZM60.3352 55.1074C57.7843 55.1074 55.4885 54.8523 52.9376 55.1074C44.5196 56.1275 40.1831 64.2886 43.7543 71.9396C45.7951 76.2752 49.3663 78.0604 53.958 78.3154C56.5089 78.3154 58.8047 78.3154 61.3556 78.5705C62.1209 78.5705 62.8862 79.0805 62.8862 80.1007C62.8862 80.8658 62.1209 81.6309 61.3556 81.6309C59.0598 81.8859 56.764 81.8859 54.7232 81.8859C52.4274 81.8859 50.1316 81.8859 48.0909 82.1409C46.0501 82.396 44.7747 83.9262 44.7747 85.9664C44.5196 88.0067 45.2849 89.7919 47.0705 90.557C48.0909 91.0671 49.3663 91.5772 50.6418 91.5772C54.9783 91.5772 59.3149 91.8322 63.3963 91.5772C66.9676 91.3221 70.0287 89.7919 72.0694 86.4765C77.4263 78.3154 72.5796 68.8792 62.8862 68.3691C60.0802 68.1141 57.2742 68.1141 54.4682 67.8591C53.7029 67.8591 52.9376 67.094 53.4478 66.0738C53.7029 65.5638 54.2131 64.7987 54.7232 64.7987C57.5292 64.5436 60.3352 64.5436 63.1413 64.5436C65.182 64.5436 67.2227 64.7987 69.2634 63.7785C71.5593 62.7584 72.8347 60.9732 72.3245 58.4228C72.0694 56.1275 70.5389 54.8524 68.2431 54.5973C65.182 55.1074 62.8862 55.1074 60.3352 55.1074ZM141.454 67.349C141.454 71.4295 141.454 75.5101 141.454 79.5906C141.709 86.7315 145.025 92.0872 151.403 95.1477C157.78 98.2081 164.412 97.953 170.79 94.3826C171.81 93.8725 172.83 92.8524 173.596 91.8322C175.126 89.7919 174.871 87.4966 173.341 85.7114C171.81 83.6711 169.259 83.4161 166.708 84.6913C166.198 84.9463 165.688 85.4564 165.178 85.7114C159.311 89.2819 152.423 85.9664 151.403 79.0805C151.148 77.5503 151.148 75.7651 151.148 74.2349C151.148 70.1544 151.148 70.1544 155.229 69.8993C158.8 69.6443 162.627 69.8993 166.198 69.6443C169.259 69.3893 170.79 66.8389 170.535 64.0336C170.28 61.4832 169.004 60.2081 165.433 59.953C162.117 59.698 158.8 59.953 155.739 59.953C151.658 59.953 151.658 59.698 151.148 55.3624C150.893 53.5772 151.148 51.5369 149.362 50.2617C147.831 48.9866 146.046 48.9866 144.26 49.4966C142.219 50.2617 141.199 52.047 141.199 54.3423C141.454 58.6779 141.454 63.0134 141.454 67.349ZM138.648 53.5772C138.648 50.5168 135.332 48.4765 132.016 48.7315C125.894 49.4966 121.302 54.0872 120.792 60.4631C120.537 63.0134 120.792 65.3087 120.792 67.8591C120.792 70.4094 121.047 72.9597 117.986 74.745C115.18 76.2752 114.925 79.8456 117.476 81.3758C121.302 83.6711 120.792 86.9866 120.792 90.302C120.792 91.5772 120.792 92.8523 121.047 93.8725C121.557 96.4228 123.343 97.698 125.894 97.698C128.445 97.698 130.23 96.4228 130.485 93.6175C130.74 92.0873 130.74 90.302 130.485 88.7718C130.485 85.9664 130.485 83.4161 133.546 81.3758C136.097 79.8456 136.097 76.7852 133.801 75C129.72 72.1946 130.74 68.3691 130.485 64.7987C130.23 61.4832 130.74 58.9329 134.822 57.9128C136.863 57.9128 138.393 56.1275 138.648 53.5772ZM189.411 57.9128C189.411 54.3423 186.095 50.5168 183.289 50.7718C181.248 50.7718 179.463 52.8121 179.463 55.3624C179.463 58.9329 182.779 62.5034 185.84 62.5034C188.136 62.5034 189.411 60.9732 189.411 57.9128ZM192.728 52.8121C192.728 56.3826 194.513 58.9329 197.319 58.9329C199.87 58.9329 201.401 56.6376 201.656 53.3221C201.656 49.4966 199.615 46.6913 196.809 46.9463C194.258 46.9463 192.728 49.2416 192.728 52.8121ZM212.37 58.4228C212.37 55.6174 210.839 53.8322 208.543 54.0872C205.992 54.3423 203.952 57.4027 203.952 60.2081C203.952 62.7584 205.992 64.7987 208.033 64.7987C210.329 64.7987 212.37 61.7383 212.37 58.4228ZM176.912 63.2685C175.126 63.5235 173.851 64.7987 173.596 66.8389C173.341 69.3893 177.167 73.2148 179.973 73.2148C182.014 72.9597 183.289 71.9396 183.544 69.6443C183.799 66.8389 179.973 63.2685 176.912 63.2685Z" fill="#FF0000"/>
<path d="M95.0276 65.0537C99.3641 65.0537 103.446 69.1342 103.701 73.7249C103.701 78.5705 100.129 82.396 95.2827 82.396C90.1809 82.396 86.3545 78.5705 86.3545 73.7249C86.3545 69.1342 90.4359 65.0537 95.0276 65.0537Z" fill="#FF0000"/>
</g>
<defs>
<clipPath id="clip0_84_39">
<rect width="238" height="76" fill="white" transform="translate(31 37)"/>
</clipPath>
</defs>
</svg>
