<svg width="300" height="150" viewBox="0 0 300 150" fill="none" xmlns="http://www.w3.org/2000/svg">
<path d="M184.011 6.02368H102.315C86.9535 6.02368 74.4766 18.5591 74.4766 33.9922V116.071C74.4766 131.504 86.9535 144.039 102.315 144.039H184.011C199.372 144.039 211.849 131.504 211.849 116.071V33.9922C211.849 18.5591 199.309 6.02368 184.011 6.02368ZM202.695 116.008C202.695 126.339 194.293 134.78 184.011 134.78H102.315C92.0321 134.78 83.6305 126.339 83.6305 116.008V33.9922C83.6305 23.6615 92.0321 15.2205 102.315 15.2205H184.011C194.293 15.2205 202.695 23.6615 202.695 33.9922V116.008Z" fill="white"/>
<path d="M102.315 137.551C90.5276 137.551 80.8721 127.913 80.8721 116.008V33.992C80.8721 22.1495 90.4649 12.4487 102.315 12.4487H184.011C195.798 12.4487 205.454 22.0865 205.454 33.992V116.071C205.454 127.913 195.861 137.614 184.011 137.614H102.315V137.551Z" fill="#234694"/>
<path d="M184.011 14.2756C194.795 14.2756 203.635 23.0945 203.635 33.9922V116.071C203.635 126.906 194.858 135.787 184.011 135.787H102.315C91.5307 135.787 82.6902 126.969 82.6902 116.071V33.9922C82.6902 23.1575 91.468 14.2756 102.315 14.2756H184.011ZM184.011 10.6221H102.315C89.4616 10.6221 79.0537 21.0788 79.0537 33.9922V116.071C79.0537 128.984 89.4616 139.441 102.315 139.441H184.011C196.864 139.441 207.272 128.984 207.272 116.071V33.9922C207.272 21.0788 196.864 10.6221 184.011 10.6221Z" fill="#312C83"/>
<path d="M103.318 121.488C102.942 121.866 102.44 122.055 101.876 122.055C101.311 122.055 100.81 121.866 100.434 121.488C100.057 121.11 99.8694 120.606 99.8694 119.913V109.457H99.8067L90.8408 121.11C90.59 121.425 90.3392 121.677 90.0257 121.803C89.7122 121.929 89.3987 122.055 89.148 122.055C88.5837 122.055 88.0821 121.866 87.7059 121.488C87.3297 121.11 87.1416 120.606 87.1416 119.913V103.976C87.1416 103.284 87.3297 102.717 87.7059 102.402C88.0821 102.024 88.5837 101.835 89.148 101.835C89.7122 101.835 90.2138 102.024 90.59 102.402C90.9662 102.78 91.1543 103.284 91.1543 103.976V114.559H91.217L100.12 102.717C100.371 102.402 100.622 102.15 100.998 102.024C101.311 101.898 101.625 101.835 101.876 101.835C102.44 101.835 102.942 102.024 103.318 102.402C103.694 102.78 103.882 103.284 103.882 103.976V119.913C103.882 120.606 103.694 121.11 103.318 121.488Z" fill="white"/>
<path d="M101.814 123.252C100.936 123.252 100.121 122.937 99.5567 122.37C99.1178 121.992 98.6163 121.236 98.6163 119.913V112.921L91.8448 121.866C91.4686 122.37 91.0297 122.685 90.5282 122.937C89.0861 123.567 87.8321 123.252 86.8916 122.37C86.4528 121.992 85.9512 121.173 85.9512 119.913V103.976C85.9512 102.968 86.2647 102.087 86.8916 101.52C87.5186 100.953 88.271 100.638 89.1488 100.638C90.0266 100.638 90.8416 100.953 91.4059 101.52C92.0329 102.15 92.3464 102.968 92.3464 103.976V111.094L99.1178 102.024C99.494 101.52 99.9329 101.205 100.435 100.953C101.877 100.26 103.131 100.638 104.071 101.52C104.698 102.15 105.011 102.968 105.011 103.976V119.913C105.011 121.236 104.51 121.992 104.071 122.37C103.507 122.937 102.754 123.252 101.814 123.252ZM99.1805 108.26H100.936L100.999 109.457V119.913C100.999 120.291 101.061 120.48 101.187 120.606C101.312 120.732 101.5 120.858 101.877 120.858C102.253 120.858 102.441 120.732 102.566 120.606C102.692 120.48 102.754 120.228 102.754 119.913V103.976C102.754 103.472 102.566 103.283 102.566 103.22C102.441 103.094 102.253 102.968 101.939 102.968C101.939 102.968 101.814 102.968 101.563 103.094C101.438 103.157 101.312 103.283 101.187 103.409L91.9702 115.693H90.2147L90.152 114.496V103.913C90.152 103.409 89.9639 103.22 89.9639 103.157C89.8385 103.031 89.6504 102.905 89.3369 102.905C88.9607 102.905 88.7726 103.031 88.6472 103.157C88.5845 103.22 88.4591 103.346 88.4591 103.913V119.85C88.4591 120.228 88.5218 120.417 88.6472 120.543C88.7726 120.669 88.9607 120.795 89.3369 120.795C89.3996 120.795 89.4623 120.795 89.7131 120.669C89.8385 120.606 89.9639 120.48 90.0893 120.354L99.1805 108.26Z" fill="#312C83"/>
<path d="M105.199 122.307C104.823 122.685 104.322 122.874 103.757 122.874C103.193 122.874 102.691 122.685 102.315 122.307C101.939 121.929 101.751 121.425 101.751 120.732V110.276H101.688L92.7851 121.929C92.5343 122.244 92.2836 122.496 91.9701 122.622C91.6566 122.748 91.3431 122.874 91.0923 122.874C90.528 122.874 90.0264 122.685 89.6502 122.307C89.274 121.929 89.0859 121.425 89.0859 120.732V104.795C89.0859 104.102 89.274 103.535 89.6502 103.22C90.0264 102.843 90.528 102.654 91.0923 102.654C91.6566 102.654 92.1582 102.843 92.5344 103.22C92.9105 103.598 93.0986 104.102 93.0986 104.795V115.315H93.1613L102.002 103.535C102.253 103.22 102.503 103.032 102.88 102.843C103.193 102.717 103.507 102.654 103.757 102.654C104.322 102.654 104.823 102.843 105.199 103.22C105.576 103.598 105.764 104.102 105.764 104.795V120.732C105.826 121.362 105.638 121.929 105.199 122.307Z" fill="#312C83"/>
<path d="M103.757 123.252C103.068 123.252 102.503 123 102.002 122.559C101.5 122.118 101.249 121.488 101.249 120.669V111.409L93.0985 122.181C92.8477 122.559 92.4715 122.811 92.0953 123C91.7191 123.189 91.3429 123.252 91.0294 123.252C90.3397 123.252 89.7755 123 89.2739 122.559C88.7723 122.118 88.5215 121.488 88.5215 120.669V104.732C88.5215 103.913 88.7723 103.284 89.2739 102.843C89.7755 102.402 90.3397 102.15 91.0294 102.15C91.7191 102.15 92.2834 102.402 92.785 102.843C93.2866 103.284 93.5374 103.913 93.5374 104.732V114.118L101.688 103.221C102.002 102.843 102.315 102.591 102.691 102.402C103.068 102.213 103.444 102.15 103.757 102.15C104.447 102.15 105.011 102.402 105.513 102.843C106.014 103.284 106.202 103.913 106.202 104.732V120.669C106.202 121.488 105.952 122.118 105.513 122.559C105.011 123.063 104.447 123.252 103.757 123.252ZM101.437 109.835H102.064L102.127 110.276V120.669C102.127 121.236 102.252 121.677 102.566 121.929C102.879 122.244 103.256 122.37 103.757 122.37C104.259 122.37 104.635 122.244 104.948 121.929C105.262 121.614 105.387 121.236 105.387 120.669V104.732C105.387 104.165 105.262 103.724 104.948 103.472C104.635 103.158 104.259 103.032 103.757 103.032C103.569 103.032 103.318 103.095 103.068 103.221C102.817 103.347 102.566 103.535 102.378 103.787L93.412 115.756H92.785L92.7223 115.315V104.732C92.7223 104.165 92.5969 103.724 92.2834 103.472C91.9699 103.158 91.5937 103.032 91.0921 103.032C90.5905 103.032 90.2143 103.158 89.9008 103.472C89.5874 103.787 89.462 104.165 89.462 104.732V120.669C89.462 121.236 89.5874 121.677 89.9008 121.929C90.2143 122.244 90.5905 122.37 91.0921 122.37C91.2802 122.37 91.531 122.307 91.7818 122.181C92.0326 122.055 92.2834 121.866 92.4715 121.614L101.437 109.835Z" fill="#312C83"/>
<path d="M101.813 101.52C101.5 101.52 101.186 101.583 100.81 101.772C100.434 101.961 100.12 102.213 99.8694 102.528L91.4678 113.74V103.976C91.4678 103.221 91.217 102.591 90.7781 102.15C90.3392 101.709 89.775 101.52 89.148 101.52C88.521 101.52 87.9567 101.709 87.5178 102.15C87.0789 102.591 86.8281 103.158 86.8281 103.976V119.913C86.8281 120.669 87.0789 121.299 87.5178 121.74C87.9567 122.181 88.521 122.37 89.148 122.37C89.4615 122.37 89.775 122.307 90.1511 122.118C90.5273 121.929 90.8408 121.677 91.0916 121.362L99.4932 110.276V119.913C99.4932 120.669 99.744 121.299 100.183 121.74C100.622 122.181 101.186 122.37 101.813 122.37C102.44 122.37 103.004 122.181 103.443 121.74C103.882 121.299 104.133 120.732 104.133 119.913V103.976C104.133 103.221 103.882 102.591 103.443 102.15C103.067 101.709 102.503 101.52 101.813 101.52Z" fill="white"/>
<path d="M120.059 106.874C120.059 107.378 119.933 107.756 119.62 108.197C119.306 108.575 118.867 108.764 118.24 108.764H113.225V122.748C113.225 123.441 113.037 124.008 112.66 124.323C112.284 124.701 111.783 124.89 111.218 124.89C110.654 124.89 110.152 124.701 109.776 124.323C109.4 123.945 109.212 123.441 109.212 122.748V107.126C109.212 106.559 109.4 106.055 109.776 105.614C110.152 105.173 110.654 104.984 111.344 104.984H118.366C118.993 104.984 119.432 105.173 119.745 105.551C119.871 105.929 120.059 106.37 120.059 106.874Z" fill="white"/>
<path d="M111.093 126.024C110.215 126.024 109.4 125.709 108.836 125.142C108.209 124.512 107.896 123.693 107.896 122.685V107.063C107.896 106.181 108.146 105.425 108.711 104.795C109.149 104.291 109.902 103.724 111.219 103.724H118.241C119.432 103.724 120.184 104.291 120.561 104.795C121.062 105.425 121.313 106.118 121.313 106.811C121.313 107.567 121.062 108.26 120.623 108.827C120.247 109.331 119.557 109.898 118.303 109.898H114.416V122.685C114.416 123.693 114.103 124.575 113.476 125.142C112.786 125.772 111.971 126.024 111.093 126.024ZM111.219 106.118C110.717 106.118 110.592 106.307 110.529 106.37C110.341 106.559 110.278 106.811 110.278 107.126V122.748C110.278 123.252 110.466 123.441 110.466 123.504C110.592 123.63 110.78 123.756 111.093 123.756C111.469 123.756 111.657 123.63 111.72 123.504C111.783 123.441 111.908 123.315 111.908 122.748V107.567H118.115C118.366 107.567 118.492 107.504 118.554 107.441C118.68 107.252 118.742 107.063 118.742 106.874C118.742 106.685 118.68 106.496 118.554 106.307C118.492 106.244 118.429 106.181 118.115 106.181H111.219V106.118Z" fill="#312C83"/>
<path d="M121.94 107.63C121.94 108.134 121.814 108.575 121.501 108.953C121.187 109.331 120.748 109.52 120.121 109.52H115.105V123.504C115.105 124.197 114.917 124.764 114.541 125.079C114.165 125.457 113.663 125.646 113.099 125.646C112.535 125.646 112.033 125.457 111.657 125.079C111.281 124.701 111.093 124.197 111.093 123.504V107.882C111.093 107.315 111.281 106.811 111.657 106.37C112.033 105.929 112.535 105.74 113.225 105.74H120.247C120.874 105.74 121.313 105.929 121.626 106.307C121.814 106.748 121.94 107.126 121.94 107.63Z" fill="#312C83"/>
<path d="M113.036 126.087C112.347 126.087 111.782 125.835 111.281 125.394C110.779 124.953 110.528 124.323 110.528 123.504V107.882C110.528 107.189 110.716 106.622 111.155 106.118C111.594 105.614 112.221 105.299 113.036 105.299H120.058C120.811 105.299 121.375 105.551 121.751 106.055C122.128 106.496 122.316 107.063 122.316 107.63C122.316 108.197 122.128 108.701 121.751 109.205C121.375 109.709 120.811 109.961 120.058 109.961H115.419V123.504C115.419 124.323 115.168 124.953 114.666 125.394C114.29 125.835 113.726 126.087 113.036 126.087ZM113.099 106.181C112.535 106.181 112.096 106.37 111.845 106.685C111.531 107.063 111.406 107.441 111.406 107.882V123.504C111.406 124.071 111.531 124.512 111.845 124.764C112.158 125.079 112.535 125.205 113.036 125.205C113.538 125.205 113.914 125.079 114.228 124.764C114.541 124.449 114.666 124.071 114.666 123.504V109.079H120.121C120.623 109.079 120.936 108.953 121.187 108.638C121.438 108.323 121.563 107.945 121.563 107.567C121.563 107.189 121.438 106.874 121.187 106.496C120.936 106.181 120.623 106.055 120.121 106.055H113.099V106.181Z" fill="#312C83"/>
<path d="M118.241 104.669H111.219C110.466 104.669 109.839 104.921 109.4 105.425C109.024 105.929 108.773 106.496 108.773 107.126V122.748C108.773 123.504 109.024 124.134 109.463 124.575C109.902 125.016 110.466 125.205 111.093 125.205C111.72 125.205 112.285 125.016 112.723 124.575C113.162 124.134 113.413 123.567 113.413 122.748V109.016H118.178C118.868 109.016 119.432 108.764 119.808 108.323C120.122 107.882 120.31 107.378 120.31 106.874C120.31 106.307 120.122 105.803 119.808 105.362C119.432 104.921 118.931 104.669 118.241 104.669Z" fill="white"/>
<path d="M137.363 108.323C137.363 109.331 137.175 110.276 136.799 111.032C136.423 111.85 135.921 112.543 135.294 113.11C134.667 113.677 133.978 114.118 133.1 114.433C132.285 114.748 131.407 114.874 130.467 114.874H127.457V119.536C127.457 120.228 127.269 120.795 126.893 121.11C126.517 121.488 126.015 121.677 125.451 121.677C124.886 121.677 124.385 121.488 124.009 121.11C123.632 120.732 123.444 120.228 123.444 119.536V103.913C123.444 103.284 123.632 102.78 124.009 102.339C124.385 101.961 124.886 101.772 125.576 101.772H130.404C131.407 101.772 132.348 101.898 133.225 102.213C134.103 102.528 134.793 102.969 135.42 103.536C136.047 104.102 136.548 104.795 136.862 105.614C137.175 106.433 137.363 107.378 137.363 108.323ZM133.1 108.323C133.1 107.504 132.849 106.811 132.348 106.244C131.846 105.677 131.156 105.425 130.278 105.425H127.457V111.284H130.278C131.156 111.284 131.846 111.032 132.348 110.465C132.849 109.835 133.1 109.142 133.1 108.323Z" fill="white"/>
<path d="M125.388 122.874C124.51 122.874 123.695 122.559 123.131 121.992C122.692 121.614 122.19 120.858 122.19 119.535V103.913C122.19 102.968 122.504 102.15 123.068 101.52C123.507 101.079 124.259 100.575 125.513 100.575H130.341C131.47 100.575 132.536 100.764 133.539 101.142C134.542 101.52 135.42 102.024 136.172 102.716C136.925 103.409 137.489 104.228 137.928 105.173C138.367 106.118 138.555 107.189 138.555 108.323C138.555 109.52 138.367 110.59 137.928 111.535C137.489 112.48 136.925 113.299 136.172 113.992C135.42 114.685 134.605 115.189 133.602 115.504C132.661 115.882 131.595 116.008 130.529 116.008H128.648V119.472C128.648 120.795 128.147 121.551 127.708 121.929C127.081 122.559 126.266 122.874 125.388 122.874ZM125.513 102.968C125.137 102.968 124.949 103.031 124.761 103.157C124.636 103.283 124.51 103.472 124.51 103.913V119.535C124.51 119.913 124.573 120.102 124.698 120.291C124.824 120.417 125.012 120.543 125.388 120.543C125.764 120.543 125.952 120.417 126.078 120.291C126.203 120.165 126.266 119.913 126.266 119.535V113.677H130.467C131.282 113.677 132.034 113.551 132.724 113.299C133.413 113.047 133.978 112.669 134.542 112.228C135.044 111.787 135.42 111.22 135.733 110.59C136.047 109.961 136.172 109.205 136.172 108.323C136.172 107.504 136.047 106.748 135.733 106.118C135.42 105.488 135.044 104.921 134.542 104.417C134.04 103.976 133.413 103.598 132.724 103.346C131.971 103.094 131.219 102.968 130.341 102.968H125.513ZM130.279 112.417H126.329V104.228H130.279C131.532 104.228 132.473 104.669 133.225 105.488C133.915 106.244 134.291 107.252 134.291 108.386C134.291 109.52 133.915 110.464 133.225 111.283C132.473 111.976 131.47 112.417 130.279 112.417ZM128.648 110.024H130.279C130.968 110.024 131.282 109.772 131.47 109.583C131.783 109.268 131.909 108.827 131.909 108.323C131.909 107.819 131.783 107.378 131.47 107.063C131.282 106.874 130.968 106.622 130.279 106.622H128.648V110.024Z" fill="#312C83"/>
<path d="M139.244 109.142C139.244 110.15 139.056 111.032 138.68 111.85C138.304 112.669 137.802 113.362 137.175 113.929C136.548 114.496 135.859 114.937 134.981 115.252C134.166 115.567 133.288 115.693 132.347 115.693H129.338V120.354C129.338 121.047 129.15 121.614 128.774 121.929C128.397 122.307 127.896 122.496 127.332 122.496C126.767 122.496 126.266 122.307 125.889 121.929C125.513 121.551 125.325 121.047 125.325 120.354V104.732C125.325 104.102 125.513 103.598 125.889 103.158C126.266 102.78 126.767 102.591 127.457 102.591H132.285C133.288 102.591 134.228 102.717 135.106 103.032C135.984 103.346 136.674 103.787 137.301 104.354C137.928 104.921 138.429 105.614 138.743 106.433C139.056 107.252 139.244 108.134 139.244 109.142ZM134.981 109.142C134.981 108.323 134.73 107.63 134.228 107.063C133.727 106.496 133.037 106.244 132.159 106.244H129.338V112.102H132.159C133.037 112.102 133.727 111.787 134.228 111.283C134.73 110.654 134.981 109.961 134.981 109.142Z" fill="#312C83"/>
<path d="M127.332 122.874C126.642 122.874 126.078 122.685 125.577 122.244C125.075 121.803 124.824 121.173 124.824 120.354V104.732C124.824 103.976 125.075 103.347 125.514 102.906C125.953 102.402 126.58 102.15 127.395 102.15H132.223C133.289 102.15 134.292 102.339 135.169 102.654C136.047 102.969 136.862 103.472 137.552 104.102C138.242 104.732 138.743 105.488 139.119 106.307C139.496 107.189 139.684 108.134 139.684 109.142C139.684 110.213 139.496 111.158 139.119 112.039C138.743 112.921 138.179 113.614 137.552 114.244C136.862 114.811 136.11 115.315 135.232 115.63C134.354 115.945 133.414 116.134 132.473 116.134H129.84V120.354C129.84 121.173 129.589 121.803 129.088 122.244C128.586 122.685 128.022 122.874 127.332 122.874ZM127.395 102.969C126.831 102.969 126.392 103.095 126.141 103.41C125.827 103.724 125.702 104.165 125.702 104.669V120.354C125.702 120.921 125.827 121.362 126.141 121.614C126.454 121.929 126.831 122.055 127.332 122.055C127.834 122.055 128.21 121.929 128.523 121.614C128.837 121.362 128.962 120.921 128.962 120.354V115.252H132.411C133.289 115.252 134.104 115.126 134.919 114.811C135.671 114.496 136.361 114.118 136.988 113.614C137.552 113.11 138.054 112.48 138.367 111.724C138.681 110.969 138.869 110.15 138.869 109.205C138.869 108.26 138.681 107.441 138.367 106.685C138.054 105.929 137.552 105.299 136.988 104.732C136.423 104.228 135.734 103.787 134.919 103.472C134.104 103.158 133.226 103.032 132.285 103.032H127.395V102.969ZM132.16 112.417H128.962V105.74H132.16C133.163 105.74 133.978 106.055 134.542 106.748C135.107 107.378 135.42 108.197 135.42 109.142C135.42 110.087 135.107 110.843 134.542 111.472C133.978 112.102 133.163 112.417 132.16 112.417ZM129.777 111.598H132.16C132.912 111.598 133.477 111.347 133.915 110.906C134.354 110.402 134.542 109.835 134.542 109.142C134.542 108.386 134.354 107.819 133.915 107.378C133.477 106.937 132.912 106.685 132.16 106.685H129.777V111.598Z" fill="#312C83"/>
<path d="M137.05 105.551C136.674 104.732 136.172 103.976 135.545 103.41C134.918 102.78 134.103 102.339 133.226 102.024C132.348 101.709 131.345 101.52 130.341 101.52H125.514C124.761 101.52 124.134 101.772 123.695 102.213C123.256 102.654 123.068 103.221 123.068 103.976V119.599C123.068 120.354 123.319 120.984 123.758 121.425C124.197 121.866 124.761 122.055 125.388 122.055C126.015 122.055 126.579 121.866 127.018 121.425C127.457 120.984 127.708 120.417 127.708 119.599V115.189H130.467C131.407 115.189 132.348 115 133.226 114.748C134.103 114.433 134.856 113.992 135.483 113.425C136.11 112.858 136.674 112.102 137.05 111.284C137.426 110.465 137.614 109.52 137.614 108.449C137.614 107.315 137.426 106.37 137.05 105.551ZM132.097 110.213C131.658 110.717 131.031 110.969 130.216 110.969H127.708V105.677H130.216C131.031 105.677 131.595 105.929 132.097 106.433C132.536 106.937 132.787 107.567 132.787 108.323C132.787 109.079 132.599 109.709 132.097 110.213Z" fill="white"/>
<path d="M156.926 124.323C156.55 124.701 156.048 124.89 155.484 124.89C154.919 124.89 154.418 124.701 154.042 124.323C153.665 123.945 153.477 123.441 153.477 122.748V112.291H153.415L144.574 123.945C144.323 124.26 144.073 124.512 143.759 124.638C143.446 124.764 143.132 124.89 142.881 124.89C142.317 124.89 141.815 124.701 141.439 124.323C141.063 123.945 140.875 123.441 140.875 122.748V106.811C140.875 106.118 141.063 105.551 141.439 105.236C141.815 104.858 142.317 104.669 142.881 104.669C143.446 104.669 143.947 104.858 144.323 105.236C144.7 105.614 144.888 106.118 144.888 106.811V117.394H144.95L153.791 105.614C154.042 105.299 154.292 105.047 154.669 104.921C154.982 104.795 155.296 104.732 155.546 104.732C156.111 104.732 156.612 104.921 156.988 105.299C157.365 105.677 157.553 106.181 157.553 106.874V122.811C157.49 123.441 157.302 123.945 156.926 124.323Z" fill="white"/>
<path d="M155.484 126.024C154.606 126.024 153.854 125.709 153.227 125.142C152.6 124.512 152.286 123.693 152.286 122.685V115.693L145.515 124.638C145.139 125.142 144.7 125.457 144.198 125.709C142.756 126.339 141.502 126.024 140.562 125.142C139.935 124.512 139.621 123.693 139.621 122.685V106.748C139.621 105.74 139.935 104.858 140.562 104.291C141.753 103.157 143.885 103.157 145.076 104.291C145.703 104.921 146.016 105.74 146.016 106.748V113.866L152.788 104.795C153.164 104.291 153.603 103.976 154.104 103.724C154.606 103.535 155.045 103.409 155.484 103.409C156.362 103.409 157.177 103.724 157.741 104.291C158.368 104.921 158.681 105.74 158.681 106.748V122.685C158.681 123.756 158.368 124.575 157.741 125.142C157.114 125.772 156.362 126.024 155.484 126.024ZM152.788 111.094H154.543L154.606 112.291V122.685C154.606 123.189 154.794 123.378 154.794 123.441C154.982 123.63 155.17 123.693 155.484 123.693C155.86 123.693 156.048 123.567 156.111 123.441C156.173 123.378 156.299 123.252 156.299 122.685V106.748C156.299 106.244 156.111 106.055 156.111 105.992C155.985 105.866 155.797 105.74 155.484 105.74C155.484 105.74 155.358 105.74 155.108 105.866C154.982 105.929 154.857 106.055 154.731 106.181L145.515 118.465H143.759L143.696 117.268V106.685C143.696 106.181 143.508 105.992 143.508 105.929C143.383 105.803 143.195 105.677 142.881 105.677C142.505 105.677 142.317 105.803 142.254 105.929C142.192 105.992 142.066 106.118 142.066 106.685V122.622C142.066 123.126 142.254 123.315 142.254 123.378C142.38 123.504 142.568 123.63 142.881 123.63C142.881 123.63 143.007 123.63 143.258 123.504C143.383 123.441 143.508 123.315 143.634 123.189L152.788 111.094Z" fill="#312C83"/>
<path d="M158.869 125.079C158.492 125.457 157.991 125.646 157.427 125.646C156.862 125.646 156.361 125.457 155.984 125.079C155.608 124.701 155.42 124.197 155.42 123.504V113.11H155.357L146.392 124.764C146.141 125.079 145.89 125.331 145.577 125.457C145.263 125.583 144.95 125.709 144.699 125.709C144.134 125.709 143.633 125.52 143.257 125.142C142.88 124.764 142.692 124.26 142.692 123.567V107.63C142.692 106.937 142.88 106.37 143.257 106.055C143.633 105.677 144.134 105.488 144.699 105.488C145.263 105.488 145.765 105.677 146.141 106.055C146.517 106.433 146.705 106.937 146.705 107.63V118.213H146.768L155.608 106.433C155.859 106.118 156.11 105.866 156.486 105.74C156.8 105.614 157.113 105.551 157.364 105.551C157.928 105.551 158.43 105.74 158.806 106.118C159.182 106.496 159.37 107 159.37 107.693V123.504C159.433 124.197 159.245 124.764 158.869 125.079Z" fill="#312C83"/>
<path d="M157.365 126.087C156.675 126.087 156.111 125.835 155.609 125.394C155.107 124.953 154.857 124.323 154.857 123.504V114.244L146.706 125.016C146.392 125.394 146.079 125.646 145.703 125.835C145.327 126.024 144.95 126.087 144.637 126.087C143.947 126.087 143.383 125.835 142.881 125.394C142.38 124.953 142.129 124.323 142.129 123.504V107.567C142.129 106.748 142.38 106.118 142.881 105.677C143.383 105.236 143.947 104.984 144.637 104.984C145.327 104.984 145.891 105.236 146.392 105.614C146.894 106.055 147.145 106.685 147.145 107.504V116.89L155.296 106.055C155.546 105.677 155.923 105.425 156.299 105.236C156.675 105.047 157.051 104.984 157.365 104.984C158.054 104.984 158.619 105.236 159.12 105.614C159.622 106.055 159.873 106.685 159.873 107.504V123.504C159.873 124.323 159.622 124.953 159.12 125.394C158.681 125.835 158.054 126.087 157.365 126.087ZM155.045 112.669H155.672L155.734 113.11V123.504C155.734 124.071 155.86 124.512 156.173 124.764C156.487 125.079 156.863 125.205 157.365 125.205C157.866 125.205 158.242 125.079 158.556 124.764C158.869 124.449 158.995 124.071 158.995 123.504V107.567C158.995 107 158.869 106.559 158.556 106.307C158.242 105.992 157.866 105.866 157.365 105.866C157.177 105.866 156.926 105.929 156.675 106.055C156.424 106.181 156.173 106.37 155.985 106.622L146.957 118.591H146.33L146.267 118.15V107.567C146.267 107 146.142 106.559 145.828 106.307C145.515 105.992 145.138 105.866 144.637 105.866C144.135 105.866 143.759 105.992 143.446 106.307C143.132 106.622 143.007 107 143.007 107.567V123.504C143.007 124.071 143.132 124.512 143.446 124.764C143.759 125.079 144.135 125.205 144.637 125.205C144.825 125.205 145.076 125.142 145.327 125.016C145.577 124.89 145.828 124.701 146.016 124.449L155.045 112.669Z" fill="#312C83"/>
<path d="M155.483 104.354C155.17 104.354 154.856 104.417 154.48 104.606C154.104 104.795 153.79 105.047 153.54 105.362L145.075 116.575V106.811C145.075 106.055 144.824 105.425 144.386 104.984C143.947 104.543 143.382 104.354 142.755 104.354C142.128 104.354 141.564 104.543 141.125 104.984C140.686 105.425 140.436 105.992 140.436 106.811V122.748C140.436 123.504 140.686 124.134 141.125 124.575C141.564 125.016 142.128 125.205 142.755 125.205C143.069 125.205 143.382 125.142 143.759 124.953C144.135 124.764 144.448 124.512 144.699 124.197L153.101 113.11V122.748C153.101 123.504 153.351 124.134 153.79 124.575C154.229 125.016 154.793 125.205 155.42 125.205C156.047 125.205 156.612 125.016 157.051 124.575C157.49 124.134 157.74 123.567 157.74 122.748V106.811C157.74 106.055 157.49 105.425 157.051 104.984C156.674 104.543 156.11 104.354 155.483 104.354Z" fill="white"/>
<path d="M177.239 120.102C177.239 120.732 177.051 121.236 176.612 121.551C176.174 121.866 175.672 121.992 175.108 121.992C174.731 121.992 174.355 121.866 174.042 121.677C173.728 121.425 173.415 121.11 173.039 120.732L165.828 112.858V120.039C165.828 120.543 165.64 121.047 165.264 121.425C164.888 121.803 164.386 121.992 163.759 121.992C163.195 121.992 162.693 121.803 162.317 121.488C161.941 121.11 161.753 120.669 161.753 120.039V103.787C161.753 103.221 161.941 102.717 162.317 102.339C162.693 101.961 163.195 101.772 163.822 101.772C164.386 101.772 164.888 101.961 165.264 102.276C165.64 102.654 165.828 103.158 165.828 103.787V109.898L172.725 102.528C172.851 102.339 173.101 102.213 173.352 102.024C173.603 101.835 173.916 101.772 174.293 101.772C174.794 101.772 175.296 101.961 175.672 102.339C176.111 102.717 176.299 103.158 176.299 103.787C176.299 104.165 176.174 104.48 175.985 104.795C175.797 105.11 175.421 105.488 174.982 105.992L169.653 111.284L176.111 118.087C176.424 118.402 176.675 118.717 176.926 119.032C177.177 119.347 177.239 119.724 177.239 120.102Z" fill="white"/>
<path d="M175.108 123.189C174.481 123.189 173.854 123 173.352 122.622C172.976 122.37 172.6 121.992 172.161 121.488L166.957 115.882V120.039C166.957 120.858 166.643 121.614 166.079 122.244C165.452 122.874 164.7 123.189 163.759 123.189C162.882 123.189 162.129 122.874 161.502 122.37C160.875 121.803 160.499 120.984 160.499 120.039V103.787C160.499 102.905 160.813 102.15 161.377 101.52C161.941 100.89 162.756 100.575 163.697 100.575C164.574 100.575 165.327 100.89 165.954 101.394C166.393 101.772 166.957 102.527 166.957 103.787V106.874L171.785 101.709C171.973 101.457 172.286 101.268 172.6 101.016C173.666 100.323 175.359 100.449 176.424 101.394C177.114 102.024 177.428 102.779 177.428 103.724C177.428 104.354 177.239 104.921 176.863 105.425C176.613 105.803 176.236 106.244 175.735 106.748L171.22 111.22L176.863 117.142C177.177 117.52 177.49 117.898 177.804 118.275C178.18 118.779 178.368 119.409 178.368 120.102C178.368 121.425 177.741 122.118 177.239 122.496C176.675 123 175.923 123.189 175.108 123.189ZM166.079 111.409L173.916 119.976C174.23 120.354 174.543 120.606 174.794 120.795C174.857 120.858 174.982 120.921 175.17 120.921C175.484 120.921 175.735 120.858 175.986 120.669C176.048 120.606 176.111 120.543 176.111 120.228C176.111 119.976 176.048 119.913 175.986 119.787C175.797 119.472 175.547 119.22 175.296 118.905L168.023 111.283L174.167 105.173C174.543 104.795 174.857 104.417 175.045 104.165C175.17 104.039 175.17 103.913 175.17 103.787C175.17 103.472 175.108 103.346 174.92 103.22C174.606 102.968 174.167 102.905 173.979 103.031C173.728 103.157 173.666 103.283 173.603 103.346L166.079 111.409ZM163.759 102.968C163.383 102.968 163.195 103.094 163.132 103.157C162.944 103.346 162.882 103.535 162.882 103.787V120.039C162.882 120.354 163.007 120.543 163.07 120.606C163.195 120.732 163.383 120.858 163.759 120.858C164.136 120.858 164.324 120.732 164.386 120.606C164.574 120.417 164.637 120.291 164.637 120.039V103.787C164.637 103.346 164.512 103.22 164.449 103.157C164.324 103.094 164.136 102.968 163.759 102.968Z" fill="#312C83"/>
<path d="M179.184 120.921C179.184 121.551 178.996 122.055 178.557 122.37C178.118 122.685 177.616 122.811 177.052 122.811C176.676 122.811 176.3 122.685 175.986 122.496C175.673 122.244 175.359 121.929 174.983 121.551L167.773 113.677V120.858C167.773 121.362 167.585 121.866 167.208 122.244C166.832 122.622 166.331 122.811 165.704 122.811C165.139 122.811 164.638 122.622 164.262 122.244C163.885 121.866 163.697 121.425 163.697 120.795V104.606C163.697 104.039 163.885 103.535 164.262 103.158C164.638 102.78 165.139 102.591 165.766 102.591C166.331 102.591 166.832 102.78 167.208 103.095C167.585 103.472 167.773 103.976 167.773 104.606V110.717L174.669 103.346C174.795 103.158 175.046 103.032 175.296 102.843C175.547 102.654 175.861 102.591 176.237 102.591C176.739 102.591 177.24 102.78 177.616 103.158C178.055 103.535 178.243 103.976 178.243 104.606C178.243 104.984 178.118 105.299 177.93 105.614C177.742 105.929 177.366 106.307 176.927 106.811L171.597 112.102L178.055 118.906C178.369 119.22 178.619 119.535 178.87 119.913C179.058 120.102 179.184 120.48 179.184 120.921Z" fill="#312C83"/>
<path d="M177.052 123.252C176.55 123.252 176.111 123.126 175.735 122.811C175.422 122.559 175.046 122.244 174.669 121.803L168.149 114.748V120.858C168.149 121.488 167.898 122.055 167.459 122.559C167.02 123.063 166.393 123.252 165.641 123.252C164.951 123.252 164.387 123.063 163.885 122.622C163.384 122.181 163.133 121.614 163.133 120.858V104.606C163.133 103.913 163.384 103.347 163.822 102.843C164.261 102.339 164.888 102.087 165.641 102.087C166.33 102.087 166.895 102.276 167.396 102.717C167.898 103.158 168.149 103.787 168.149 104.543V109.583L174.293 102.969C174.481 102.78 174.669 102.591 174.983 102.402C175.296 102.213 175.735 102.087 176.174 102.087C176.801 102.087 177.365 102.339 177.867 102.717C178.369 103.158 178.619 103.787 178.619 104.48C178.619 104.921 178.494 105.362 178.243 105.74C177.992 106.055 177.616 106.496 177.177 106.937L172.099 111.913L178.306 118.402C178.619 118.717 178.933 119.095 179.121 119.41C179.372 119.787 179.56 120.228 179.56 120.795C179.56 121.551 179.309 122.181 178.745 122.559C178.306 123.063 177.679 123.252 177.052 123.252ZM167.334 112.543L175.296 121.236C175.672 121.614 175.986 121.929 176.237 122.118C176.488 122.307 176.738 122.37 177.052 122.37C177.553 122.37 177.93 122.244 178.306 121.992C178.619 121.74 178.807 121.425 178.807 120.921C178.807 120.606 178.745 120.291 178.557 120.039C178.369 119.724 178.055 119.41 177.804 119.095L171.033 111.976L176.676 106.433C177.115 105.992 177.428 105.614 177.616 105.299C177.804 105.047 177.867 104.795 177.867 104.48C177.867 104.039 177.742 103.661 177.365 103.347C177.052 103.032 176.676 102.906 176.237 102.906C175.923 102.906 175.672 102.969 175.484 103.095C175.234 103.221 175.046 103.41 174.983 103.535L167.334 111.724V104.606C167.334 104.102 167.208 103.724 166.895 103.41C166.581 103.095 166.205 102.969 165.703 102.969C165.202 102.969 164.826 103.095 164.512 103.41C164.199 103.724 164.073 104.102 164.073 104.543V120.795C164.073 121.299 164.199 121.677 164.512 121.929C164.826 122.244 165.202 122.37 165.703 122.37C166.205 122.37 166.581 122.244 166.895 121.929C167.208 121.614 167.334 121.236 167.334 120.858V112.543Z" fill="#312C83"/>
<path d="M176.299 117.835L170.029 111.221L175.17 106.118C175.609 105.677 175.985 105.236 176.236 104.921C176.487 104.543 176.612 104.165 176.612 103.725C176.612 103.032 176.362 102.528 175.923 102.087C175.484 101.646 174.92 101.457 174.355 101.457C173.916 101.457 173.54 101.583 173.227 101.772C172.913 101.961 172.725 102.15 172.537 102.339L166.079 109.205V103.787C166.079 103.095 165.828 102.465 165.389 102.087C164.951 101.709 164.386 101.457 163.759 101.457C163.07 101.457 162.505 101.709 162.066 102.15C161.628 102.591 161.439 103.158 161.439 103.787V120.039C161.439 120.732 161.69 121.299 162.129 121.677C162.568 122.055 163.132 122.307 163.759 122.307C164.449 122.307 165.013 122.055 165.452 121.614C165.891 121.173 166.079 120.606 166.079 120.039V113.551L172.788 120.858C173.164 121.299 173.54 121.614 173.854 121.866C174.23 122.118 174.606 122.244 175.045 122.244C175.672 122.244 176.236 122.055 176.675 121.74C177.177 121.362 177.428 120.795 177.428 120.102C177.428 119.599 177.302 119.158 177.051 118.843C176.926 118.528 176.612 118.15 176.299 117.835Z" fill="white"/>
<path d="M198.933 125.079C198.557 125.457 198.055 125.646 197.491 125.646C196.927 125.646 196.425 125.457 196.049 125.079C195.673 124.701 195.485 124.197 195.485 123.504V113.11H195.422L186.519 124.764C186.268 125.079 186.017 125.331 185.641 125.457C185.327 125.583 185.014 125.709 184.763 125.709C184.199 125.709 183.697 125.52 183.321 125.142C182.945 124.764 182.757 124.26 182.757 123.567V107.63C182.757 106.937 182.945 106.37 183.321 106.055C183.697 105.677 184.199 105.488 184.763 105.488C185.327 105.488 185.829 105.677 186.205 106.055C186.581 106.433 186.77 106.937 186.77 107.63V118.213H186.832L195.673 106.433C195.923 106.118 196.174 105.866 196.55 105.74C196.864 105.614 197.177 105.551 197.428 105.551C197.993 105.551 198.494 105.74 198.87 106.118C199.247 106.496 199.435 107 199.435 107.693V123.504C199.497 124.197 199.309 124.764 198.933 125.079Z" fill="#312C83"/>
<path d="M197.492 126.087C196.802 126.087 196.238 125.835 195.736 125.394C195.234 124.953 194.984 124.323 194.984 123.504V114.244L186.833 125.016C186.582 125.394 186.206 125.646 185.83 125.835C185.453 126.024 185.077 126.087 184.764 126.087C184.074 126.087 183.51 125.835 183.008 125.394C182.507 124.953 182.256 124.323 182.256 123.504V107.567C182.256 106.748 182.507 106.118 183.008 105.677C183.51 105.236 184.074 104.984 184.764 104.984C185.453 104.984 186.018 105.236 186.519 105.677C187.021 106.118 187.272 106.748 187.272 107.567V116.953L195.423 106.055C195.736 105.677 196.05 105.425 196.426 105.236C196.802 105.047 197.178 104.984 197.492 104.984C198.181 104.984 198.746 105.236 199.247 105.614C199.749 106.055 200 106.685 200 107.504V123.504C200 124.323 199.749 124.953 199.247 125.394C198.746 125.835 198.181 126.087 197.492 126.087ZM195.172 112.669H195.799L195.861 113.11V123.504C195.861 124.071 195.987 124.512 196.3 124.764C196.614 125.079 196.99 125.205 197.492 125.205C197.993 125.205 198.369 125.079 198.683 124.764C198.996 124.449 199.122 124.071 199.122 123.504V107.567C199.122 107 198.996 106.559 198.683 106.307C198.369 105.992 197.993 105.866 197.492 105.866C197.303 105.866 197.053 105.929 196.802 106.055C196.551 106.181 196.3 106.37 196.112 106.622L187.146 118.591H186.519L186.457 118.15V107.567C186.457 107 186.331 106.559 186.018 106.307C185.704 105.992 185.328 105.866 184.826 105.866C184.325 105.866 183.949 105.992 183.635 106.307C183.322 106.622 183.196 107 183.196 107.567V123.504C183.196 124.071 183.322 124.512 183.635 124.764C183.949 125.079 184.325 125.205 184.826 125.205C185.015 125.205 185.265 125.142 185.516 125.016C185.767 124.89 186.018 124.701 186.206 124.449L195.172 112.669Z" fill="#312C83"/>
<path d="M197.053 124.323C196.677 124.701 196.175 124.89 195.611 124.89C195.046 124.89 194.545 124.701 194.169 124.323C193.792 123.945 193.604 123.441 193.604 122.748V112.291H193.542L184.701 123.945C184.45 124.26 184.2 124.512 183.886 124.638C183.573 124.764 183.259 124.89 183.008 124.89C182.444 124.89 181.942 124.701 181.566 124.323C181.19 123.945 181.002 123.441 181.002 122.748V106.811C181.002 106.118 181.19 105.551 181.566 105.236C181.942 104.858 182.444 104.669 183.008 104.669C183.573 104.669 184.074 104.858 184.45 105.236C184.827 105.614 185.015 106.118 185.015 106.811V117.394H185.077L193.918 105.614C194.169 105.299 194.419 105.047 194.733 104.921C195.046 104.795 195.36 104.732 195.611 104.732C196.175 104.732 196.677 104.921 197.053 105.299C197.429 105.677 197.617 106.181 197.617 106.874V122.811C197.617 123.441 197.429 123.945 197.053 124.323Z" fill="white"/>
<path d="M195.547 126.024C194.67 126.024 193.855 125.709 193.29 125.142C192.663 124.512 192.35 123.693 192.35 122.685V115.693L185.516 124.701C185.14 125.205 184.701 125.52 184.199 125.772C182.757 126.402 181.503 126.087 180.563 125.205C179.936 124.575 179.622 123.756 179.622 122.748V106.811C179.622 105.803 179.936 104.921 180.563 104.354C181.19 103.787 181.942 103.472 182.82 103.472C183.697 103.472 184.513 103.787 185.077 104.354C185.704 104.984 186.017 105.803 186.017 106.811V113.929L192.789 104.858C193.165 104.354 193.604 104.039 194.105 103.787C194.607 103.598 195.046 103.472 195.485 103.472C196.363 103.472 197.178 103.787 197.742 104.354C198.181 104.795 198.682 105.551 198.682 106.811V122.748C198.682 123.756 198.369 124.638 197.742 125.205C197.24 125.772 196.425 126.024 195.547 126.024ZM192.851 111.094H194.607L194.67 112.291V122.685C194.67 123.189 194.858 123.378 194.858 123.441C194.983 123.567 195.171 123.693 195.547 123.693C195.924 123.693 196.112 123.567 196.174 123.441C196.237 123.378 196.363 123.252 196.363 122.685V106.748C196.363 106.244 196.174 106.055 196.174 105.992C196.049 105.866 195.861 105.74 195.547 105.74C195.547 105.74 195.422 105.74 195.171 105.866C195.046 105.929 194.92 106.055 194.795 106.181L185.578 118.465H183.823L183.76 117.268V106.685C183.76 106.181 183.572 105.992 183.572 105.929C183.447 105.803 183.259 105.677 182.945 105.677C182.569 105.677 182.381 105.803 182.255 105.929C182.193 105.992 182.067 106.118 182.067 106.622V122.559C182.067 123.063 182.255 123.252 182.255 123.315C182.381 123.441 182.569 123.567 182.945 123.567C182.945 123.567 183.07 123.567 183.321 123.441C183.447 123.378 183.572 123.252 183.697 123.126L192.851 111.094Z" fill="#312C83"/>
<path d="M197.24 104.984C196.801 104.543 196.237 104.354 195.61 104.354C195.297 104.354 194.983 104.417 194.607 104.606C194.231 104.795 193.917 105.047 193.666 105.362L185.202 116.575V106.811C185.202 106.055 184.951 105.425 184.512 104.984C184.074 104.543 183.509 104.354 182.882 104.354C182.255 104.354 181.691 104.543 181.252 104.984C180.813 105.425 180.562 105.992 180.562 106.811V122.748C180.562 123.504 180.813 124.134 181.252 124.575C181.691 125.016 182.255 125.205 182.882 125.205C183.196 125.205 183.509 125.142 183.886 124.953C184.262 124.764 184.575 124.512 184.826 124.197L193.228 113.11V122.748C193.228 123.504 193.478 124.134 193.917 124.575C194.356 125.016 194.92 125.205 195.547 125.205C196.174 125.205 196.739 125.016 197.178 124.575C197.616 124.134 197.867 123.567 197.867 122.748V106.811C197.867 105.992 197.679 105.362 197.24 104.984Z" fill="white"/>
<path d="M111.281 61.5827C105.45 62.5905 96.8604 55.4094 93.0985 52.1338C89.5247 49.6142 86.954 53.7716 89.65 56.1023C99.9326 64.9842 106.767 78.7165 110.717 87.4724C115.795 89.3622 121.187 90.811 126.956 91.8189H127.018C127.52 91.6299 127.269 91.6929 127.394 91.9449C127.457 91.9449 127.52 91.9449 127.583 91.9449C120.498 78.2756 123.695 58.496 126.141 47.4094C125.388 44.7008 124.51 42.0551 123.507 39.3464C121.062 44.7638 116.861 60.5748 111.281 61.5827Z" fill="#FFEB00"/>
<path d="M193.04 53.8347C188.902 57.1103 179.497 64.2284 173.415 62.8426C169.152 61.8977 166.017 52.7009 163.76 45.5198C162.255 48.0395 160.75 50.8111 159.371 53.6458C160.938 65.2993 161.503 81.2993 155.421 93.0159C161.816 92.4489 167.961 91.3151 173.666 89.6773C178.118 80.6694 185.265 66.9371 196.488 58.1812C199.435 55.9135 196.927 51.378 193.04 53.8347Z" fill="#9EC523"/>
<path d="M106.39 48.0393C103.882 49.1102 102.691 52.1968 103.694 54.8425C104.697 57.4881 107.581 58.811 110.089 57.6771C112.597 56.6062 113.789 53.5196 112.785 50.874C111.719 48.2283 108.835 46.9684 106.39 48.0393Z" fill="#FFEB00"/>
<path d="M175.046 55.2836C177.93 56.5434 181.253 55.0316 182.444 51.945C183.635 48.8584 182.256 45.3308 179.372 44.071C176.488 42.8111 173.165 44.26 171.973 47.4096C170.782 50.4962 172.161 54.0237 175.046 55.2836Z" fill="#9EC523"/>
<path d="M172.6 31.7874C174.481 29.0787 171.597 23.4094 167.146 27.5039C161.064 33.1732 151.283 48.9842 142.881 47.2204C134.793 45.5196 127.019 28.3858 123.57 21.6456C119.934 15.9763 114.04 20.3228 116.736 25.0472C119.432 29.7086 121.627 34.559 123.445 39.4094C124.448 42.1181 125.326 44.7637 126.078 47.4724C131.22 65.6771 131.282 83.063 130.781 92.5118C135.546 93.1417 140.499 93.5196 145.577 93.5196C147.897 93.5196 150.217 93.4566 152.474 93.2677L152.223 77.7086C152.035 70.4645 155.296 61.7086 159.308 53.6456C160.688 50.811 162.255 48.0393 163.697 45.5196C167.459 39.2204 171.033 34.0551 172.6 31.7874ZM142.38 88.1023L142.568 88.4173L142.38 88.1023Z" fill="#E31019"/>
<path d="M144.009 39.5354C148.022 39.5354 151.282 36.0708 151.282 31.7873C151.282 27.5039 148.022 24.0393 144.009 24.0393C139.997 24.0393 136.736 27.5039 136.736 31.7873C136.736 36.0708 139.997 39.5354 144.009 39.5354Z" fill="#E31019"/>
</svg>
