<svg width="300" height="150" viewBox="0 0 300 150" fill="none" xmlns="http://www.w3.org/2000/svg">
<g clip-path="url(#clip0_84_40)">
<path fill-rule="evenodd" clip-rule="evenodd" d="M184.667 92.3729C184.667 93.7234 184.299 94.8283 183.501 95.6876C182.702 96.547 181.72 97.2836 180.431 97.7747C179.202 98.2657 177.79 98.634 176.255 98.8182C174.72 99.0023 173.308 99.1251 171.895 99.1251C171.466 99.1251 171.097 99.1251 170.79 99.1251C170.483 99.1251 169.992 99.1251 169.439 99.0637L169.562 104.404C169.562 104.527 169.501 104.65 169.316 104.772C169.132 104.895 168.948 104.956 168.764 104.956H161.027C160.781 104.956 160.597 104.895 160.413 104.834C160.229 104.772 160.167 104.65 160.167 104.527L159.86 87.892C159.86 87.5237 159.922 87.1554 159.983 86.9099C160.045 86.6643 160.229 86.4188 160.413 86.296C160.597 86.1119 160.904 85.9891 161.273 85.9277C161.641 85.8663 162.071 85.7436 162.624 85.7436C163.115 85.6822 163.729 85.6208 164.466 85.6208C165.202 85.5594 165.939 85.5594 166.738 85.5594C167.536 85.5594 168.334 85.498 169.194 85.498C169.992 85.498 170.79 85.498 171.466 85.498C172.939 85.498 174.474 85.6208 176.009 85.805C177.545 85.9891 178.957 86.3574 180.246 86.8485C181.536 87.3395 182.58 88.0148 183.378 88.9355C184.176 89.7949 184.606 90.9611 184.667 92.3116V92.3729ZM175.273 92.1888C175.273 91.575 174.966 91.1453 174.29 90.8998C173.676 90.6542 172.817 90.5315 171.834 90.5315H169.378L169.439 94.0303H171.895C172.939 94.0303 173.738 93.9075 174.352 93.6006C174.966 93.2937 175.273 92.9254 175.273 92.3729V92.1888Z" fill="#E5E5E4"/>
<path fill-rule="evenodd" clip-rule="evenodd" d="M228.571 85.6821C228.816 85.6821 228.939 85.7435 229.001 85.8049C229.062 85.9277 228.939 86.0504 228.694 86.2346L208.737 100.721C207.816 101.396 206.834 102.01 205.913 102.562C204.93 103.115 203.948 103.606 202.843 104.036C201.737 104.465 200.509 104.772 199.159 104.956C197.808 105.202 196.334 105.263 194.615 105.263C194.185 105.263 193.632 105.263 193.141 105.202C192.588 105.202 192.036 105.141 191.544 105.079C190.992 105.018 190.501 104.956 190.071 104.895C189.641 104.834 189.273 104.772 189.088 104.711C188.904 104.649 188.781 104.588 188.659 104.527C188.536 104.465 188.536 104.343 188.659 104.22L191.36 101.273C191.483 101.151 191.667 100.967 191.913 100.844C192.159 100.721 192.466 100.66 192.834 100.66C193.264 100.66 193.694 100.721 194.185 100.721C194.676 100.721 195.167 100.782 195.72 100.782C196.273 100.782 196.764 100.782 197.316 100.844C197.808 100.844 198.299 100.844 198.729 100.844C199.281 100.844 199.711 100.782 199.957 100.721C200.264 100.66 200.571 100.475 200.878 100.23L202.044 99.3706H201.799C201.185 99.3706 200.755 99.3706 200.387 99.3092C200.018 99.2478 199.773 99.125 199.588 98.9409C199.404 98.7567 199.404 98.4498 199.466 98.0815C199.527 97.7132 199.711 97.0994 199.957 96.4242L203.764 86.296C203.825 86.1118 204.009 85.989 204.194 85.8663C204.378 85.8049 204.623 85.7435 204.93 85.7435H213.036C213.281 85.7435 213.404 85.8049 213.404 85.9277C213.404 86.0504 213.404 86.1732 213.343 86.296L209.781 93.2936C209.659 93.5392 209.659 93.6619 209.843 93.6619H210.15L219.36 86.296C219.544 86.1732 219.729 86.0504 219.974 85.9277C220.22 85.8049 220.466 85.7435 220.711 85.7435H228.264H228.571V85.6821Z" fill="#E5E5E4"/>
<path fill-rule="evenodd" clip-rule="evenodd" d="M223.105 104.956C221.57 104.956 220.342 104.834 219.483 104.649C218.623 104.465 218.07 104.158 217.763 103.729C217.518 103.299 217.518 102.808 217.763 102.194C218.009 101.58 218.5 100.905 219.237 100.107L231.825 86.1732C231.948 86.0504 232.132 85.9276 232.439 85.8049C232.684 85.6821 232.93 85.6207 233.176 85.6207H241.035C241.219 85.6207 241.404 85.6821 241.465 85.8049C241.526 85.9276 241.526 86.0504 241.404 86.1732L229.737 99.0636C229.491 99.3091 229.43 99.4933 229.553 99.5547C229.614 99.616 229.86 99.6774 230.167 99.6774H233.667L245.886 86.1118C246.009 85.989 246.193 85.8662 246.5 85.7435C246.746 85.6207 246.991 85.5593 247.237 85.5593H255.097C255.342 85.5593 255.465 85.6207 255.526 85.7435C255.588 85.8662 255.588 85.989 255.465 86.1118L243.246 99.6774H246.746C247.053 99.6774 247.36 99.616 247.605 99.5547C247.851 99.4933 248.097 99.3091 248.281 99.0636L259.948 86.1732C260.07 86.0504 260.255 85.9276 260.5 85.8049C260.746 85.6821 260.991 85.6207 261.237 85.6207H269.097C269.281 85.6207 269.465 85.6821 269.526 85.8049C269.588 85.9276 269.588 86.0504 269.465 86.1732L256.877 100.107C256.202 100.905 255.404 101.58 254.605 102.194C253.807 102.808 252.886 103.299 251.842 103.729C250.798 104.158 249.693 104.465 248.465 104.649C247.237 104.834 245.825 104.956 244.29 104.956H223.105Z" fill="#E5E5E4"/>
<path fill-rule="evenodd" clip-rule="evenodd" d="M272.719 105.14C272.535 105.14 272.351 105.079 272.29 104.956C272.228 104.834 272.228 104.711 272.29 104.588L274.193 101.703H268.053L264.676 104.588C264.491 104.711 264.307 104.834 264.061 104.956C263.816 105.079 263.57 105.14 263.386 105.14H254.974C254.728 105.14 254.544 105.079 254.544 104.956C254.544 104.834 254.605 104.711 254.79 104.588L273.763 88.874C274.562 88.1988 275.36 87.6463 276.281 87.2166C277.14 86.787 278.061 86.4187 279.044 86.1731C280.026 85.9276 281.07 85.7434 282.176 85.6207C283.281 85.4979 284.447 85.4365 285.676 85.4365C286.904 85.4365 288.009 85.4979 288.869 85.6207C289.79 85.7434 290.465 85.9276 290.956 86.1731C291.447 86.4187 291.754 86.787 291.877 87.2166C291.939 87.6463 291.816 88.1988 291.447 88.874L282.053 104.588C281.991 104.711 281.869 104.834 281.684 104.956C281.5 105.079 281.254 105.14 281.009 105.14H272.719ZM281.316 90.8382C281.377 90.7155 281.439 90.6541 281.439 90.5927C281.439 90.5313 281.377 90.5313 281.254 90.5313C281.132 90.5313 281.009 90.5313 280.886 90.5927C280.763 90.6541 280.702 90.7155 280.579 90.8382L273.64 96.9152H277.325L281.316 90.8382Z" fill="#E5E5E4"/>
<path fill-rule="evenodd" clip-rule="evenodd" d="M97.3513 102.624C88.7548 98.6954 84.7022 92.2501 88.325 88.3216C91.9478 84.3931 101.895 84.3931 110.492 88.3216C119.088 92.2501 123.141 98.6954 119.518 102.624C115.895 106.552 105.948 106.552 97.3513 102.624ZM110.246 98.3271C111.72 96.7311 110.062 94.153 106.623 92.5571C103.185 90.9611 99.1934 90.9611 97.7197 92.5571C96.246 94.153 97.9039 96.7311 101.343 98.3271C104.781 99.923 108.772 99.923 110.246 98.3271Z" fill="#E5E5E4"/>
<path fill-rule="evenodd" clip-rule="evenodd" d="M83.7809 90.1632C83.8423 90.286 83.8423 90.4087 83.7195 90.5315C83.5967 90.6543 83.4739 90.7156 83.2283 90.7156H77.7634L86.4827 104.527C86.5441 104.65 86.5441 104.772 86.4827 104.895C86.3599 105.018 86.2371 105.079 85.9914 105.079H78.1318C77.8862 105.079 77.702 105.018 77.4564 104.895C77.2107 104.772 77.0879 104.65 76.9651 104.527L68.2458 90.7156H62.5967C62.4125 90.7156 62.1669 90.6543 61.9213 90.5315C61.6757 90.4087 61.5529 90.286 61.43 90.1632L59.0353 86.1733C58.9739 86.0505 58.9739 85.9278 59.0353 85.805C59.1581 85.6822 59.2809 85.6208 59.5265 85.6208H80.1581C80.3423 85.6208 80.5879 85.6822 80.8336 85.805C81.0792 85.9278 81.2634 86.0505 81.3248 86.1733L83.7809 90.1632Z" fill="#E5E5E4"/>
<path fill-rule="evenodd" clip-rule="evenodd" d="M117.491 86.1733C117.43 86.0505 117.43 85.9278 117.491 85.805C117.614 85.6822 117.737 85.6208 117.983 85.6208H125.351C125.535 85.6208 125.781 85.6822 126.026 85.805C126.272 85.9278 126.395 86.0505 126.518 86.1733L131.184 93.5393C131.246 93.662 131.307 93.7234 131.369 93.7234C131.43 93.7234 131.491 93.7234 131.553 93.7234C131.614 93.7234 131.676 93.7234 131.676 93.7234C131.737 93.7234 131.737 93.662 131.798 93.5393L134.07 86.3574C134.132 86.1733 134.193 85.9891 134.377 85.8664C134.5 85.7436 134.807 85.6208 135.176 85.6208H141.807C142.176 85.6208 142.544 85.6822 142.974 85.8664C143.342 86.0505 143.649 86.2347 143.772 86.4802L155.009 104.343C155.07 104.465 155.07 104.588 154.948 104.711C154.825 104.834 154.702 104.895 154.456 104.895H147.088C146.842 104.895 146.658 104.834 146.412 104.711C146.167 104.588 145.983 104.465 145.921 104.343L141.377 97.1609C141.255 96.9767 141.193 96.9153 141.009 96.9153H140.948C140.886 96.9153 140.825 96.9153 140.825 96.9153C140.825 96.9153 140.763 96.9767 140.702 97.0995L138.553 104.22C138.491 104.404 138.43 104.527 138.307 104.65C138.184 104.772 137.939 104.834 137.632 104.834H130.755C130.386 104.834 130.018 104.772 129.588 104.588C129.219 104.404 128.912 104.22 128.79 103.974L117.491 86.1733Z" fill="#E5E5E4"/>
<path fill-rule="evenodd" clip-rule="evenodd" d="M127.685 85.8662H132.351L130.878 90.8996L127.685 85.8662Z" fill="#E5E5E4"/>
<path fill-rule="evenodd" clip-rule="evenodd" d="M98.7635 101.396C92.6231 95.2579 92.6231 85.3138 98.7635 79.1755C104.904 73.0372 114.79 73.0372 120.93 79.1755C127.07 85.3138 127.07 95.2579 120.93 101.396C114.79 107.534 104.904 107.534 98.7635 101.396ZM114.299 94.7668C116.755 92.3115 116.755 88.3216 114.299 85.8049C111.842 83.3496 107.851 83.3496 105.395 85.8049C102.939 88.2602 102.939 92.2501 105.395 94.7668C107.851 97.2835 111.842 97.2835 114.299 94.7668Z" fill="#FFD100"/>
<path d="M222.369 105.141C220.834 105.141 219.483 104.956 218.439 104.65C217.395 104.343 216.535 103.852 215.921 103.176C215.307 102.501 214.816 101.765 214.57 100.844C214.325 99.923 214.141 98.8181 214.141 97.6518V75.9222C214.141 75.7381 214.202 75.4926 214.386 75.3698C214.57 75.1857 214.755 75.1243 215 75.1243H222.86C223.106 75.1243 223.29 75.1857 223.413 75.3698C223.597 75.5539 223.658 75.7381 223.658 75.9222V95.9945C223.658 96.3628 223.72 96.6083 223.904 96.7311C224.088 96.8539 224.334 96.9153 224.641 96.9153H228.141V75.9222C228.141 75.7381 228.202 75.4926 228.386 75.3698C228.57 75.1857 228.755 75.1243 229 75.1243H236.86C237.044 75.1243 237.29 75.1857 237.413 75.3698C237.597 75.5539 237.658 75.7381 237.658 75.9222V96.9766H241.158C241.465 96.9766 241.711 96.9153 241.895 96.7925C242.079 96.6697 242.141 96.4242 242.141 96.0559V75.9222C242.141 75.7381 242.202 75.4926 242.386 75.3698C242.57 75.1857 242.755 75.1243 242.939 75.1243H250.799C251.044 75.1243 251.228 75.1857 251.413 75.3698C251.597 75.5539 251.658 75.7381 251.658 75.9222V97.5905C251.658 98.8181 251.535 99.8616 251.228 100.782C250.983 101.703 250.491 102.501 249.877 103.115C249.202 103.79 248.404 104.22 247.36 104.588C246.316 104.956 245.027 105.079 243.43 105.079H222.369V105.141Z" fill="#FFD100"/>
<path fill-rule="evenodd" clip-rule="evenodd" d="M93.0533 82.0606C93.0533 82.3061 92.9919 82.4902 92.8077 82.613C92.6234 82.7971 92.4392 82.8585 92.1936 82.8585H86.7287V104.343C86.7287 104.588 86.6673 104.772 86.4831 104.895C86.2989 105.079 86.1147 105.141 85.9305 105.141H78.0708C77.8866 105.141 77.641 105.079 77.5182 104.895C77.334 104.711 77.2726 104.527 77.2726 104.343V82.8585H71.6234C71.4392 82.8585 71.1936 82.7971 71.0708 82.613C70.8866 82.4288 70.8252 82.2447 70.8252 82.0606V75.9222C70.8252 75.7381 70.8866 75.4926 71.0708 75.3698C71.255 75.1857 71.4392 75.1243 71.6234 75.1243H92.1936C92.4392 75.1243 92.6234 75.1857 92.8077 75.3698C92.9919 75.5539 93.0533 75.7381 93.0533 75.9222V82.0606Z" fill="#0094CD"/>
<path fill-rule="evenodd" clip-rule="evenodd" d="M129.22 75.9223C129.22 75.6768 129.281 75.4927 129.465 75.3699C129.65 75.1858 129.834 75.1244 130.018 75.1244H137.386C137.571 75.1244 137.816 75.1858 137.939 75.3699C138.123 75.5541 138.185 75.7382 138.185 75.9223V87.401C138.185 87.5851 138.185 87.7079 138.246 87.7079C138.307 87.7079 138.307 87.7693 138.369 87.7693C138.43 87.7693 138.492 87.7693 138.553 87.7079C138.614 87.7079 138.676 87.5851 138.799 87.401L145.553 76.2293C145.737 75.9223 145.921 75.6768 146.167 75.4313C146.413 75.1858 146.72 75.063 147.088 75.063H153.72C154.088 75.063 154.457 75.1858 154.702 75.4927C155.009 75.7996 155.132 76.1065 155.132 76.4748V104.343C155.132 104.588 155.071 104.772 154.886 104.895C154.702 105.079 154.518 105.141 154.272 105.141H146.904C146.658 105.141 146.474 105.079 146.29 104.895C146.106 104.711 146.044 104.527 146.044 104.343V93.171C146.044 92.9255 145.983 92.8027 145.86 92.8027H145.799C145.737 92.8027 145.676 92.8027 145.676 92.8641C145.614 92.8641 145.553 92.9868 145.43 93.171L138.799 104.281C138.676 104.527 138.492 104.711 138.246 104.895C138 105.079 137.755 105.141 137.509 105.141H130.632C130.264 105.141 129.957 105.018 129.65 104.711C129.343 104.404 129.22 104.097 129.22 103.729V75.9223Z" fill="#0094CD"/>
<path fill-rule="evenodd" clip-rule="evenodd" d="M184.483 85.5594C184.483 87.6464 184.053 89.3651 183.255 90.7156C182.457 92.066 181.413 93.1709 180.123 93.9689C178.834 94.7668 177.483 95.3193 175.948 95.6262C174.413 95.9331 173 96.1173 171.588 96.1173C171.158 96.1173 170.79 96.1173 170.483 96.1173C170.176 96.1173 169.685 96.0559 169.132 96.0559V104.343C169.132 104.588 169.071 104.772 168.886 104.895C168.702 105.079 168.518 105.141 168.334 105.141H160.597C160.351 105.141 160.167 105.079 159.983 104.956C159.799 104.834 159.737 104.711 159.737 104.465V78.6231C159.737 78.0093 159.799 77.5182 159.86 77.0885C159.983 76.6588 160.106 76.3519 160.351 76.1064C160.536 75.8609 160.843 75.6767 161.211 75.4926C161.579 75.3698 162.009 75.247 162.562 75.1856C163.053 75.1243 163.667 75.0629 164.404 75.0015C165.141 74.9401 165.878 74.8787 166.676 74.8787C167.474 74.8173 168.272 74.8173 169.132 74.756C169.93 74.756 170.729 74.6946 171.404 74.6946C172.878 74.6946 174.413 74.8787 175.948 75.1856C177.483 75.4926 178.895 76.045 180.185 76.843C181.474 77.641 182.457 78.6845 183.316 80.0349C184.114 81.3853 184.544 83.1654 184.544 85.2525V85.5594H184.483ZM175.027 85.2525C175.027 84.3317 174.72 83.6565 174.106 83.2882C173.492 82.8585 172.632 82.6744 171.65 82.6744H169.193V88.1375H171.65C172.693 88.1375 173.492 87.8919 174.106 87.4623C174.72 87.0326 175.027 86.3574 175.027 85.498V85.2525Z" fill="#0094CD"/>
<path fill-rule="evenodd" clip-rule="evenodd" d="M210.456 75.1243C210.702 75.1243 210.886 75.1857 211.009 75.3698C211.132 75.4926 211.132 75.7381 211.071 75.9836L204.193 98.4498C203.886 99.4933 203.456 100.475 203.027 101.335C202.597 102.194 201.983 102.931 201.246 103.606C200.509 104.22 199.588 104.711 198.421 105.079C197.255 105.386 195.842 105.57 194.185 105.57C193.755 105.57 193.202 105.57 192.649 105.509C192.097 105.448 191.544 105.386 190.93 105.325C190.378 105.263 189.825 105.141 189.334 105.018C188.842 104.895 188.413 104.772 188.167 104.711C187.983 104.65 187.737 104.527 187.553 104.404C187.369 104.281 187.246 104.097 187.246 103.852V99.2478C187.246 99.0023 187.307 98.8181 187.43 98.5726C187.553 98.3271 187.799 98.2657 188.167 98.3271C188.597 98.3271 189.088 98.3884 189.579 98.4498C190.071 98.5112 190.623 98.5112 191.176 98.5726C191.728 98.5726 192.281 98.634 192.772 98.634C193.325 98.634 193.755 98.634 194.185 98.634C194.737 98.634 195.106 98.5726 195.29 98.4498C195.535 98.3271 195.658 98.0815 195.781 97.7132L196.149 96.3628H195.904C195.29 96.3628 194.799 96.3014 194.369 96.24C193.939 96.1787 193.571 95.9945 193.263 95.6876C192.956 95.3807 192.588 94.951 192.342 94.3372C192.035 93.7233 191.728 92.864 191.36 91.7591L186.018 76.045C185.956 75.7381 185.956 75.5539 186.079 75.3698C186.202 75.247 186.386 75.1856 186.693 75.1856H194.799C195.044 75.1856 195.228 75.247 195.351 75.4312C195.474 75.6153 195.535 75.7995 195.597 76.045L198.36 86.9098C198.421 87.2781 198.544 87.4623 198.728 87.4623H199.035L201.614 76.045C201.676 75.7995 201.799 75.6153 201.921 75.4312C202.044 75.247 202.29 75.1856 202.535 75.1856H210.088H210.456V75.1243Z" fill="#0094CD"/>
<path fill-rule="evenodd" clip-rule="evenodd" d="M272.965 105.141C272.72 105.141 272.597 105.079 272.413 104.895C272.29 104.711 272.167 104.527 272.106 104.343L271.369 99.8003H265.229L264.492 104.343C264.43 104.588 264.308 104.772 264.185 104.895C264.062 105.079 263.878 105.141 263.632 105.141H255.22C254.974 105.141 254.79 105.079 254.667 104.895C254.544 104.711 254.544 104.527 254.606 104.343L259.395 79.9736C259.579 78.93 259.948 78.1321 260.378 77.4569C260.869 76.7816 261.483 76.2292 262.22 75.8609C262.957 75.4926 263.816 75.1857 264.86 75.0629C265.843 74.8788 266.948 74.8174 268.176 74.8174C269.404 74.8174 270.509 74.8788 271.492 75.0629C272.474 75.2471 273.334 75.4926 274.071 75.8609C274.808 76.2292 275.422 76.7816 275.913 77.4569C276.404 78.1321 276.772 78.9914 276.957 79.9736L281.93 104.343C281.992 104.588 281.992 104.772 281.869 104.895C281.746 105.079 281.623 105.141 281.316 105.141H272.965ZM268.667 82.9813C268.667 82.7972 268.606 82.6744 268.544 82.613C268.483 82.4903 268.422 82.4903 268.299 82.4903C268.176 82.4903 268.053 82.5516 268.053 82.613C267.992 82.7358 267.992 82.8586 267.93 82.9813L266.457 92.3729H270.141L268.667 82.9813Z" fill="#0094CD"/>
<path fill-rule="evenodd" clip-rule="evenodd" d="M98.7019 96.0559C92.5616 91.1452 92.5616 83.1654 98.7019 78.2548C104.842 73.3441 114.728 73.3441 120.869 78.2548C127.009 83.1654 127.009 91.1452 120.869 96.0559C114.728 100.966 104.781 100.966 98.7019 96.0559ZM114.237 90.7155C116.693 88.7513 116.693 85.498 114.237 83.5337C111.781 81.5694 107.79 81.5694 105.334 83.5337C102.877 85.498 102.877 88.7513 105.334 90.7155C107.79 92.6798 111.781 92.6798 114.237 90.7155Z" fill="#0094CD"/>
<path fill-rule="evenodd" clip-rule="evenodd" d="M222.369 98.3884C220.834 98.3884 219.483 98.2043 218.439 97.8974C217.395 97.5905 216.535 97.0994 215.921 96.4856C215.246 95.8717 214.816 95.0738 214.57 94.153C214.325 93.2323 214.141 92.1888 214.141 90.9611V75.9222C214.141 75.7381 214.202 75.4926 214.386 75.3698C214.57 75.1857 214.755 75.1243 215 75.1243H222.86C223.106 75.1243 223.29 75.1857 223.413 75.3698C223.597 75.5539 223.658 75.7381 223.658 75.9222V95.9331C223.658 96.3014 223.72 96.547 223.904 96.6697C224.088 96.7925 224.334 96.8539 224.641 96.8539H228.141V75.9222C228.141 75.7381 228.202 75.4926 228.386 75.3698C228.57 75.1857 228.755 75.1243 229 75.1243H236.86C237.106 75.1243 237.29 75.1857 237.413 75.3698C237.597 75.5539 237.658 75.7381 237.658 75.9222V96.9153H241.158C241.465 96.9153 241.711 96.8539 241.895 96.7311C242.079 96.6083 242.141 96.3628 242.141 95.9945V75.9222C242.141 75.7381 242.202 75.4926 242.386 75.3698C242.57 75.247 242.755 75.1243 242.939 75.1243H250.799C251.044 75.1243 251.228 75.1857 251.413 75.3698C251.597 75.5539 251.658 75.7381 251.658 75.9222V90.8997C251.658 92.1274 251.535 93.1709 251.228 94.0916C250.983 95.0124 250.491 95.8104 249.877 96.4242C249.263 97.038 248.404 97.5291 247.36 97.836C246.316 98.1429 245.027 98.3271 243.43 98.3271H222.369V98.3884Z" fill="#0094CD"/>
<path fill-rule="evenodd" clip-rule="evenodd" d="M139.658 75.3699H144.325L139.658 83.2883V75.3699Z" fill="#F59C2B"/>
<path fill-rule="evenodd" clip-rule="evenodd" d="M86.4824 77.5797V82.0607C86.4824 82.4904 86.8508 82.8587 87.2807 82.8587H92.2544C92.6842 82.8587 93.0526 82.4904 93.0526 82.0607V77.5797C93.0526 77.15 92.6842 76.7817 92.2544 76.7817H87.2807C86.8508 76.8431 86.4824 77.15 86.4824 77.5797Z" fill="#95C11F"/>
<path fill-rule="evenodd" clip-rule="evenodd" d="M146.044 85.5593V93.2936C145.982 92.8025 145.86 92.8025 145.614 92.9867L138.614 104.588C138.246 105.079 137.816 105.202 137.632 105.141L137.018 98.5112L138.307 98.4498L146.044 85.5593Z" fill="#F59C2B"/>
<path fill-rule="evenodd" clip-rule="evenodd" d="M77.2725 99.1865V104.404C77.2725 104.834 77.6409 105.141 78.0093 105.141H85.9918C86.4216 105.141 86.7286 104.772 86.7286 104.404V99.1865C86.7286 98.7569 86.3602 98.45 85.9918 98.45H78.0093C77.5795 98.45 77.2725 98.7569 77.2725 99.1865Z" fill="#95C11F"/>
<path fill-rule="evenodd" clip-rule="evenodd" d="M129.22 99.9231V103.668C129.22 104.465 129.895 105.141 130.693 105.141H137.202C138 105.141 138.676 104.465 138.676 103.668V99.9231C138.676 99.1252 138 98.45 137.202 98.45H130.693C129.895 98.45 129.22 99.1252 129.22 99.9231Z" fill="#F59C2B"/>
<path fill-rule="evenodd" clip-rule="evenodd" d="M255.71 99.1865L254.605 104.404C254.544 104.834 254.789 105.141 255.219 105.141H263.631C264.061 105.141 264.491 104.834 264.552 104.404L265.535 99.1865C265.596 98.7569 265.351 98.45 264.921 98.45H256.693C256.202 98.45 255.772 98.7569 255.71 99.1865Z" fill="#F59C2B"/>
<path fill-rule="evenodd" clip-rule="evenodd" d="M146.044 99.3093V104.281C146.044 104.772 146.412 105.141 146.904 105.141H154.211C154.702 105.141 155.07 104.772 155.07 104.281V99.3093C155.07 98.8183 154.702 98.45 154.211 98.45H146.904C146.474 98.45 146.044 98.8183 146.044 99.3093Z" fill="#F59C2B"/>
<path fill-rule="evenodd" clip-rule="evenodd" d="M280.947 99.1865L281.991 104.404C282.053 104.834 281.807 105.141 281.377 105.141H273.026C272.596 105.141 272.167 104.834 272.105 104.404L271.184 99.1865C271.123 98.7569 271.368 98.45 271.798 98.45H280.026C280.456 98.45 280.886 98.8182 280.947 99.1865Z" fill="#F59C2B"/>
<path fill-rule="evenodd" clip-rule="evenodd" d="M70.7021 77.641V82.0606C70.7021 82.4903 71.0706 82.8586 71.5004 82.8586H76.3513C76.7811 82.8586 77.1495 82.4903 77.1495 82.0606V77.641C77.1495 77.2113 76.7811 76.843 76.3513 76.843H71.5004C71.0706 76.843 70.7021 77.2113 70.7021 77.641Z" fill="#95C11F"/>
<path fill-rule="evenodd" clip-rule="evenodd" d="M169.193 96.0559V91.268C176.378 92.3116 181.474 90.0404 184.483 84.6387C184.728 88.69 183.562 91.9433 179.571 94.3986C176.685 95.9332 172.325 96.4242 169.193 96.0559Z" fill="#95C11F"/>
<path fill-rule="evenodd" clip-rule="evenodd" d="M159.737 99.3093V104.281C159.737 104.772 160.106 105.141 160.597 105.141H168.334C168.825 105.141 169.193 104.772 169.193 104.281V99.3093C169.193 98.8183 168.825 98.45 168.334 98.45H160.597C160.167 98.45 159.737 98.8183 159.737 99.3093Z" fill="#95C11F"/>
<path fill-rule="evenodd" clip-rule="evenodd" d="M192.526 105.509C191.974 105.447 191.36 105.386 190.807 105.325C190.255 105.263 189.702 105.141 189.211 105.018C188.719 104.895 188.29 104.772 187.983 104.711C187.737 104.649 187.553 104.527 187.369 104.404C187.184 104.281 187.062 104.097 187.062 103.851V99.2478C187.062 99.0022 187.123 98.8181 187.246 98.5725C187.307 98.4498 187.491 98.327 187.676 98.327V98.3884C187.676 98.6339 187.798 98.8181 187.983 98.9408C188.167 99.0636 188.412 99.125 188.597 99.2478C188.904 99.3705 189.272 99.4319 189.825 99.5547C190.316 99.6774 190.869 99.7388 191.421 99.8616C191.974 99.923 192.588 99.9844 193.14 100.046C193.693 100.107 194.246 100.107 194.676 100.107C196.395 100.107 197.807 99.923 198.974 99.6161C200.14 99.3091 201.062 98.8181 201.798 98.1429C202.535 97.529 203.149 96.7924 203.579 95.8717C204.009 95.0123 204.439 94.0302 204.746 92.9867L210.886 76.1677L204.132 98.4498C203.825 99.4933 203.395 100.475 202.965 101.335C202.535 102.194 201.921 102.931 201.184 103.606C200.447 104.22 199.465 104.711 198.36 105.079C197.193 105.386 195.781 105.57 194.062 105.57C193.632 105.57 193.079 105.57 192.526 105.509Z" fill="#E94E24"/>
<path fill-rule="evenodd" clip-rule="evenodd" d="M265.965 94.9511L265.229 99.8617H271.43L270.693 94.9511C270.693 94.5828 270.325 94.2759 269.834 94.2759H266.886C266.334 94.2759 265.965 94.5828 265.965 94.9511Z" fill="#F59C2B"/>
<path d="M137.448 70.5205H135.974C135.974 69.968 135.913 68.9859 135.851 67.5741C135.79 66.2237 135.728 65.3643 135.728 64.996H135.667C135.606 65.1802 135.544 65.6098 135.421 66.1623C135.299 66.7147 134.992 67.5127 134.623 68.6176C134.193 69.7225 134.009 70.3363 134.009 70.5819H132.904C132.904 70.3363 132.72 69.7225 132.351 68.6176C131.983 67.5127 131.737 66.7761 131.614 66.3464C131.492 65.9168 131.369 65.4871 131.307 65.0574H131.246C131.246 65.4871 131.184 66.4078 131.123 67.8196C131.062 69.2314 131 70.1522 131 70.5819H129.649C129.649 70.4591 129.772 69.477 130.018 67.5127C130.263 65.5485 130.386 64.3822 130.386 63.8911H132.351C132.351 64.2594 132.535 65.1188 132.965 66.4078C133.395 67.6969 133.579 68.5562 133.579 68.9245H133.641C133.641 68.5562 133.886 67.6969 134.377 66.4078C134.869 65.1188 135.114 64.2594 135.114 63.8911H137.079C137.079 64.6277 137.141 65.8554 137.325 67.6969C137.386 69.477 137.448 70.4591 137.448 70.5205Z" fill="#E94E24"/>
<path d="M143.465 68.3722C143.465 69.1088 143.158 69.6612 142.605 70.0295C142.053 70.3978 141.255 70.582 140.334 70.582C139.965 70.582 139.351 70.582 138.614 70.5206C138.676 69.4771 138.676 68.3108 138.676 67.0218C138.676 65.6713 138.676 64.6278 138.614 63.8298H140.088C140.088 64.0754 140.027 64.8733 140.027 66.2852C140.272 66.2852 140.456 66.2852 140.641 66.2852C141.439 66.2852 142.176 66.4693 142.667 66.7762C143.22 67.0831 143.465 67.6356 143.465 68.3722ZM142.114 68.4336C142.114 68.0039 141.93 67.7583 141.623 67.5742C141.316 67.3901 140.948 67.3287 140.518 67.3287C140.334 67.3287 140.211 67.3287 140.027 67.3287C140.027 68.0653 140.027 68.8019 140.088 69.5385C140.211 69.5385 140.395 69.5998 140.518 69.5998C141.562 69.5998 142.114 69.2315 142.114 68.4336ZM145.491 70.5206H144.018C144.079 69.4771 144.079 68.3108 144.079 67.0218C144.079 65.7941 144.079 64.6892 144.018 63.8298H145.491C145.43 64.6892 145.43 65.7327 145.43 67.0218C145.43 68.3722 145.43 69.4771 145.491 70.5206Z" fill="#E94E24"/>
<path d="M153.903 68.6177C153.903 69.2929 153.658 69.8453 153.105 70.2136C152.552 70.5819 151.816 70.7661 150.894 70.7661C150.158 70.7661 149.482 70.6433 148.868 70.4592L148.991 69.2929C149.605 69.5384 150.219 69.7226 150.894 69.7226C151.447 69.7226 151.877 69.6612 152.123 69.477C152.368 69.3543 152.491 69.0474 152.491 68.6791C152.491 68.0038 151.816 67.6355 150.526 67.6355C150.28 67.6355 149.973 67.6355 149.666 67.6355L149.789 66.592C150.096 66.592 150.403 66.592 150.71 66.592C151.754 66.592 152.245 66.2851 152.245 65.6099C152.245 65.3644 152.123 65.1188 151.877 64.9961C151.631 64.8733 151.324 64.7505 150.956 64.7505C150.219 64.7505 149.605 64.8733 149.114 65.0575L149.237 63.9526C149.851 63.7684 150.526 63.707 151.386 63.707C152.061 63.707 152.552 63.8298 152.982 64.1367C153.412 64.3822 153.596 64.8119 153.596 65.303C153.596 66.0396 153.166 66.5307 152.368 66.8376V66.899C152.798 66.9603 153.166 67.1445 153.412 67.4514C153.78 67.7583 153.903 68.1266 153.903 68.6177Z" fill="#E94E24"/>
<path d="M160.289 70.5206H158.816C158.877 69.4157 158.877 68.4336 158.877 67.5742H156.298C156.298 68.3108 156.298 69.2929 156.359 70.5206H154.886C154.947 69.4157 154.947 68.2494 154.947 67.0218C154.947 65.7941 154.947 64.7506 154.886 63.8298H156.359C156.298 64.812 156.298 65.6713 156.298 66.4693H158.877C158.877 65.7327 158.877 64.8733 158.816 63.8298H160.289C160.228 64.6892 160.228 65.7327 160.228 67.0218C160.228 68.3722 160.228 69.5385 160.289 70.5206Z" fill="#E94E24"/>
<path d="M167.72 70.5205H166.062C166.062 70.275 165.877 69.6611 165.57 68.6176H163.176C162.869 69.6611 162.684 70.275 162.684 70.5205H161.149C161.149 70.3977 161.518 69.2928 162.316 67.2672C163.114 65.2415 163.483 64.0753 163.483 63.8911H165.448C165.448 64.0753 165.816 65.1802 166.553 67.2058C167.351 69.2314 167.72 70.3363 167.72 70.5205ZM165.325 67.6355C164.711 65.8554 164.465 64.9346 164.465 64.7505H164.404C164.404 64.8732 164.097 65.8554 163.483 67.6355H165.325Z" fill="#E94E24"/>
<path d="M172.816 69.4157L172.754 70.5206H168.395C168.456 69.4771 168.456 68.3108 168.456 67.0218C168.456 65.7941 168.456 64.6892 168.395 63.8298H172.57L172.509 64.9347C171.465 64.8733 170.544 64.8733 169.745 64.8733C169.807 65.3644 169.807 65.9169 169.807 66.5307C170.544 66.5307 171.28 66.5307 172.079 66.4693V67.5128C171.28 67.4514 170.544 67.4514 169.807 67.4514C169.807 68.1266 169.807 68.8019 169.868 69.4157C170.728 69.4771 171.772 69.4771 172.816 69.4157Z" fill="#E94E24"/>
<path d="M181.658 70.5205H180.184C180.184 69.968 180.123 68.9859 180.061 67.5741C180 66.2237 179.938 65.3643 179.938 64.996H179.877C179.816 65.1802 179.754 65.6098 179.631 66.1623C179.508 66.7147 179.201 67.5127 178.833 68.6176C178.403 69.7225 178.219 70.3363 178.219 70.5819H177.114C177.114 70.3363 176.93 69.7225 176.561 68.6176C176.193 67.5127 175.947 66.7761 175.824 66.3464C175.701 65.9168 175.579 65.4871 175.517 65.0574H175.456C175.456 65.4871 175.394 66.4078 175.333 67.8196C175.272 69.2314 175.21 70.1522 175.21 70.5819H173.859C173.859 70.4591 173.982 69.477 174.228 67.5127C174.473 65.5485 174.596 64.3822 174.596 63.8911H176.561C176.561 64.2594 176.745 65.1188 177.175 66.4078C177.605 67.6969 177.789 68.5562 177.789 68.9245H177.851C177.851 68.5562 178.096 67.6969 178.587 66.4078C179.079 65.1188 179.324 64.2594 179.324 63.8911H181.289C181.289 64.6277 181.351 65.8554 181.535 67.6969C181.596 69.477 181.658 70.4591 181.658 70.5205Z" fill="#E94E24"/>
<path d="M184.299 69.7225C184.299 70.6432 183.746 71.564 182.641 72.5461L182.211 72.1778C182.702 71.6868 182.886 71.0729 182.886 70.5205C182.641 70.3363 182.518 70.0908 182.518 69.7839C182.518 69.5384 182.579 69.2928 182.764 69.1087C182.948 68.9245 183.193 68.8018 183.5 68.8018C183.746 68.8018 183.93 68.9245 184.114 69.1087C184.237 69.2928 184.299 69.5384 184.299 69.7225Z" fill="#E94E24"/>
<path d="M192.895 70.5206H191.421C191.483 69.7226 191.483 68.8019 191.483 67.697C191.114 67.8197 190.623 67.8197 189.947 67.8197C189.088 67.8197 188.535 67.6356 188.167 67.2673C187.798 66.899 187.614 66.2238 187.614 65.1803C187.614 64.812 187.614 64.3209 187.553 63.8298H188.965C188.904 64.1981 188.904 64.505 188.904 64.8733C188.904 65.6713 189.026 66.2238 189.211 66.4693C189.395 66.7148 189.763 66.8376 190.316 66.8376C190.746 66.8376 191.114 66.7762 191.36 66.7148C191.36 65.5486 191.36 64.6278 191.298 63.8298H192.772C192.711 64.6892 192.711 65.7327 192.711 67.0218C192.833 68.3722 192.833 69.4771 192.895 70.5206Z" fill="#E94E24"/>
<path d="M198.36 69.4157L198.298 70.5206H193.938C194 69.4771 194 68.3108 194 67.0218C194 65.7941 194 64.6892 193.938 63.8298H198.114L198.053 64.9347C197.009 64.8733 196.088 64.8733 195.289 64.8733C195.351 65.3644 195.351 65.9169 195.351 66.5307C196.088 66.5307 196.824 66.5307 197.623 66.4693V67.5128C196.824 67.4514 196.088 67.4514 195.351 67.4514C195.351 68.1266 195.351 68.8019 195.412 69.4157C196.333 69.4771 197.316 69.4771 198.36 69.4157Z" fill="#E94E24"/>
<path d="M203.825 63.8911L203.763 65.0574C202.658 64.996 201.675 64.996 200.816 64.996C200.877 65.5485 200.877 66.3464 200.877 67.4513C200.877 68.8631 200.877 69.9067 200.939 70.5819H199.526C199.588 69.6611 199.588 68.5562 199.588 67.2672C199.588 65.794 199.588 64.6277 199.526 63.8911H203.825Z" fill="#E94E24"/>
<path d="M210.887 67.083C210.887 68.1265 210.58 68.9859 209.904 69.7225C209.29 70.3977 208.492 70.766 207.509 70.766C206.588 70.766 205.851 70.4591 205.237 69.8452C204.623 69.2314 204.316 68.4334 204.316 67.4513C204.316 66.4078 204.623 65.5484 205.299 64.8118C205.913 64.1366 206.711 63.7683 207.694 63.7683C208.615 63.7683 209.351 64.0752 209.966 64.6891C210.58 65.3029 210.887 66.1009 210.887 67.083ZM209.474 67.2058C209.474 66.4692 209.29 65.9167 208.922 65.487C208.553 65.0574 208.123 64.8118 207.571 64.8118C207.08 64.8118 206.65 65.0574 206.281 65.487C205.913 65.9167 205.729 66.5305 205.729 67.2058C205.729 67.9424 205.913 68.4948 206.281 68.9245C206.65 69.3542 207.08 69.5997 207.632 69.5997C208.123 69.5997 208.553 69.3542 208.922 68.9245C209.29 68.4948 209.474 67.9424 209.474 67.2058Z" fill="#E94E24"/>
<path d="M219.79 70.5205H218.071C218.071 70.3977 217.886 69.968 217.457 69.2314C217.088 68.4948 216.781 68.0038 216.658 67.7582H216.597C216.474 67.9424 216.229 68.4335 215.86 69.1701C215.492 69.9067 215.308 70.3977 215.308 70.5205H213.772C213.772 70.3977 214.079 69.8453 214.755 68.8018C215.43 67.7582 215.86 67.1444 216.044 66.9603V66.8989C215.86 66.7147 215.492 66.1623 214.939 65.3643C214.386 64.5049 214.079 64.0139 214.079 63.8911H215.737C215.737 64.0139 215.922 64.3822 216.229 64.996C216.536 65.6098 216.781 66.0395 216.904 66.1623H216.965C217.088 65.9781 217.334 65.6098 217.579 64.996C217.887 64.3822 218.009 64.0139 218.009 63.8911H219.544C219.544 64.0139 219.237 64.4436 218.685 65.3029C218.071 66.1623 217.702 66.6534 217.579 66.8375V66.8989C217.825 67.1444 218.255 67.7582 218.869 68.8018C219.483 69.8453 219.79 70.3977 219.79 70.5205Z" fill="#E94E24"/>
<path d="M226.667 67.083C226.667 68.1265 226.36 68.9859 225.684 69.7225C225.07 70.3977 224.272 70.766 223.29 70.766C222.369 70.766 221.632 70.4591 221.018 69.8452C220.404 69.2314 220.097 68.4334 220.097 67.4513C220.097 66.4078 220.404 65.5484 221.079 64.8118C221.693 64.1366 222.491 63.7683 223.474 63.7683C224.395 63.7683 225.132 64.0752 225.746 64.6891C226.36 65.3029 226.667 66.1009 226.667 67.083ZM225.255 67.2058C225.255 66.4692 225.07 65.9167 224.702 65.487C224.334 65.0574 223.904 64.8118 223.351 64.8118C222.86 64.8118 222.43 65.0574 222.062 65.487C221.693 65.9167 221.509 66.5305 221.509 67.2058C221.509 67.9424 221.693 68.4948 222.062 68.9245C222.43 69.3542 222.86 69.5997 223.412 69.5997C223.904 69.5997 224.334 69.3542 224.702 68.9245C225.07 68.4948 225.255 67.9424 225.255 67.2058Z" fill="#E94E24"/>
<path d="M232.623 63.8911L232.561 64.996C231.886 64.9346 231.21 64.9346 230.658 64.9346C230.658 65.6098 230.658 66.2851 230.658 67.083C230.658 68.3107 230.658 69.477 230.719 70.5819H229.307C229.368 69.477 229.368 68.3107 229.368 67.083C229.368 66.2851 229.368 65.6098 229.368 64.9346C228.877 64.9346 228.202 64.9346 227.403 64.996L227.465 63.8911H232.623Z" fill="#E94E24"/>
<path d="M238.272 70.5204H236.86C236.86 69.7225 236.921 68.8017 236.921 67.8196C236.737 67.8196 236.552 67.8196 236.307 67.8196C235.877 67.8196 235.57 67.9424 235.324 68.2493C235.079 68.5562 234.833 69.17 234.526 70.2135C234.465 70.3363 234.465 70.4591 234.403 70.5204H232.93C232.991 70.3977 233.052 70.2135 233.175 69.8452C233.482 68.9245 233.728 68.3107 233.974 68.0037C234.158 67.6968 234.465 67.5127 234.833 67.3899V67.3285C233.851 67.1444 233.298 66.5919 233.298 65.6712C233.298 64.4435 234.158 63.7683 235.877 63.7683C236.123 63.7683 236.43 63.7683 236.737 63.7683C237.044 63.7683 237.289 63.7683 237.351 63.7683H238.272C238.21 64.6277 238.21 65.7326 238.21 66.9602C238.21 68.372 238.21 69.5383 238.272 70.5204ZM236.921 66.8988C236.921 66.1622 236.921 65.487 236.86 64.8732C236.43 64.8118 236.123 64.8118 235.816 64.8118C235.017 64.8118 234.588 65.1187 234.588 65.7326C234.588 66.5305 235.14 66.8988 236.307 66.8988C236.552 66.8988 236.737 66.8988 236.921 66.8988Z" fill="#E94E24"/>
<path d="M244.228 63.8911L244.167 64.996C243.491 64.9346 242.816 64.9346 242.263 64.9346C242.263 65.6098 242.263 66.2851 242.263 67.083C242.263 68.3107 242.263 69.477 242.325 70.5819H240.912C240.974 69.477 240.974 68.3107 240.974 67.083C240.974 66.2851 240.974 65.6098 240.974 64.9346C240.482 64.9346 239.807 64.9346 239.009 64.996L239.07 63.8911H244.228Z" fill="#E94E24"/>
<path d="M255.159 70.5205H253.685C253.685 69.968 253.623 68.9859 253.562 67.5741C253.501 66.2237 253.439 65.3643 253.439 64.996H253.378C253.316 65.1802 253.255 65.6098 253.132 66.1623C253.009 66.7147 252.702 67.5127 252.334 68.6176C251.904 69.7225 251.72 70.3363 251.72 70.5819H250.615C250.615 70.3363 250.431 69.7225 250.062 68.6176C249.694 67.5127 249.448 66.7761 249.325 66.3464C249.202 65.9168 249.141 65.4871 249.018 65.0574H248.957C248.957 65.4871 248.895 66.4078 248.834 67.8196C248.773 69.2314 248.711 70.1522 248.711 70.5819H247.36C247.36 70.4591 247.483 69.477 247.729 67.5127C247.974 65.5485 248.097 64.3822 248.097 63.8911H250.062C250.062 64.2594 250.246 65.1188 250.676 66.4078C251.106 67.6969 251.29 68.5562 251.29 68.9245H251.352C251.352 68.5562 251.597 67.6969 252.088 66.4078C252.58 65.1188 252.825 64.2594 252.825 63.8911H254.79C254.79 64.6277 254.852 65.8554 255.036 67.6969C255.097 69.477 255.159 70.4591 255.159 70.5205Z" fill="#E94E24"/>
<path d="M262.097 70.5205H260.439C260.439 70.275 260.254 69.6611 259.947 68.6176H257.553C257.246 69.6611 257.061 70.275 257.061 70.5205H255.526C255.526 70.3977 255.895 69.2928 256.693 67.2672C257.491 65.2415 257.86 64.0753 257.86 63.8911H259.825C259.825 64.0753 260.193 65.1802 260.93 67.2058C261.79 69.2314 262.097 70.3363 262.097 70.5205ZM259.763 67.6355C259.149 65.8554 258.904 64.9346 258.904 64.7505H258.842C258.842 64.8732 258.535 65.8554 257.921 67.6355H259.763Z" fill="#E94E24"/>
<path d="M270.509 70.5205H269.035C269.035 69.968 268.974 68.9859 268.913 67.5741C268.851 66.2237 268.79 65.3643 268.79 64.996H268.728C268.667 65.1802 268.606 65.6098 268.483 66.1623C268.36 66.7147 268.053 67.5127 267.685 68.6176C267.255 69.7225 267.071 70.3363 267.071 70.5819H265.965C265.965 70.3363 265.781 69.7225 265.413 68.6176C265.044 67.5127 264.799 66.7761 264.676 66.3464C264.553 65.9168 264.43 65.4871 264.369 65.0574H264.307C264.307 65.4871 264.246 66.4078 264.185 67.8196C264.123 69.2314 264.062 70.1522 264.062 70.5819H262.711C262.711 70.4591 262.834 69.477 263.079 67.5127C263.325 65.5485 263.448 64.3822 263.448 63.8911H265.413C265.413 64.2594 265.597 65.1188 266.027 66.4078C266.457 67.6969 266.641 68.5562 266.641 68.9245H266.702C266.702 68.5562 266.948 67.6969 267.439 66.4078C267.93 65.1188 268.176 64.2594 268.176 63.8911H270.141C270.141 64.6277 270.202 65.8554 270.386 67.6969C270.448 69.477 270.509 70.4591 270.509 70.5205Z" fill="#E94E24"/>
<path d="M276.527 68.3722C276.527 69.1088 276.22 69.6612 275.667 70.0295C275.114 70.3978 274.316 70.582 273.395 70.582C273.027 70.582 272.413 70.582 271.676 70.5206C271.737 69.4771 271.737 68.3108 271.737 67.0218C271.737 65.6713 271.737 64.6278 271.676 63.8298H273.149C273.149 64.0754 273.088 64.8733 273.088 66.2852C273.334 66.2852 273.518 66.2852 273.702 66.2852C274.5 66.2852 275.237 66.4693 275.728 66.7762C276.22 67.0831 276.527 67.6356 276.527 68.3722ZM275.114 68.4336C275.114 68.0039 274.93 67.7583 274.623 67.5742C274.316 67.3901 273.948 67.3287 273.518 67.3287C273.334 67.3287 273.211 67.3287 273.027 67.3287C273.027 68.0653 273.027 68.8019 273.027 69.5385C273.149 69.5385 273.334 69.5998 273.456 69.5998C274.623 69.5998 275.114 69.2315 275.114 68.4336ZM278.553 70.5206H277.079C277.141 69.4771 277.141 68.3108 277.141 67.0218C277.141 65.7941 277.141 64.6892 277.079 63.8298H278.553C278.492 64.6892 278.492 65.7327 278.492 67.0218C278.43 68.3722 278.492 69.4771 278.553 70.5206Z" fill="#E94E24"/>
<path d="M281.5 69.6612C281.5 69.9067 281.439 70.1523 281.255 70.3364C281.07 70.5206 280.825 70.6433 280.518 70.6433C280.272 70.6433 280.088 70.5819 279.904 70.3978C279.781 70.2136 279.658 70.0295 279.658 69.784C279.658 69.5384 279.72 69.2929 279.904 69.1087C280.088 68.9246 280.334 68.8632 280.641 68.8632C280.886 68.8632 281.07 68.9246 281.255 69.1087C281.439 69.2315 281.5 69.4157 281.5 69.6612ZM281.5 64.6278C281.5 65.303 281.316 66.3465 280.886 67.8197H280.334C280.027 66.3465 279.904 65.303 279.904 64.6892C279.904 64.0139 280.149 63.707 280.702 63.707C281.255 63.707 281.5 64.0139 281.5 64.6278Z" fill="#E94E24"/>
<path fill-rule="evenodd" clip-rule="evenodd" d="M5.12298 65.6713L8.68439 55.2975C8.80719 55.052 9.11421 54.9906 9.72824 55.1134L24.0353 57.9984C24.4651 58.1212 24.8335 58.3667 24.9563 58.6736L25.816 61.62C25.816 61.7428 25.9388 61.8041 26.1844 61.8041L40.3072 64.1981C40.5528 64.1981 40.6756 64.1981 40.737 64.0753V61.8041C40.737 61.5586 40.9826 61.4972 41.4125 61.62L57.1318 64.6278C57.6844 64.7505 58.0528 64.9347 58.1756 65.3644L59.4651 69.0473L62.1054 76.843C62.2282 77.3954 61.6756 77.4568 60.9388 77.3954L53.9388 77.0885C53.5703 77.0885 53.3861 77.2113 53.3861 77.3954L56.2721 86.9712C56.3335 87.5236 55.8423 87.7078 54.7984 87.6464C51.3598 87.4623 47.8598 87.1553 44.3598 86.6643C44.1142 86.6029 44.1142 86.7257 44.3598 86.8484L46.5703 88.3216C46.7546 88.4444 46.9388 88.5058 47.0002 88.6285C47.43 88.4444 48.1668 88.383 48.7809 88.4444C49.0879 88.1375 49.5177 87.9533 50.1932 88.1989C50.93 88.5058 51.1756 88.9355 50.6844 89.3651C50.5616 89.4879 50.316 89.6107 50.0704 89.7334C49.8861 89.7948 50.0089 89.9176 50.1318 90.0403C50.5002 90.47 50.5616 90.8997 50.3774 91.2066C50.316 91.268 50.316 91.3908 50.5002 91.4522C50.8686 91.5135 51.0528 91.7591 51.237 92.1274C51.4212 92.5571 51.2984 92.6798 50.8072 92.6798C50.6844 92.6798 50.623 92.8026 50.623 92.9254C50.7458 93.4778 50.5616 93.7847 49.8247 93.9075C49.4563 93.9075 49.2721 93.8461 49.1493 93.6619C48.8423 93.1709 48.4125 92.7412 47.9212 92.3115C47.6142 92.4343 47.2458 92.3729 46.816 92.066C45.0967 91.0839 43.2546 90.3473 41.1668 89.8562C40.9212 89.7948 40.8598 89.9176 40.9212 90.2245C41.5967 92.5571 42.7019 94.951 44.7282 97.5291C45.0353 97.8974 45.0353 98.0201 44.9739 98.2043C44.9125 98.2657 44.9125 98.3271 45.0353 98.5112C47.0002 100.23 49.5177 101.642 52.2809 102.869C52.8949 103.115 53.0791 103.36 52.4651 103.606C50.9914 103.974 49.7633 104.22 47.9212 104.404C47.3686 104.465 46.8774 104.465 46.2633 104.281C42.1493 103.054 39.0791 101.396 36.5002 99.5547C36.316 99.432 36.1932 99.3092 36.0089 99.3092H35.4563C35.2107 99.3092 35.2107 99.3706 35.1493 99.432C34.2282 100.905 34.3511 102.562 35.8247 104.343C36.1318 104.711 36.0089 104.895 35.5791 105.018C34.3511 105.386 31.2195 105.386 29.5616 104.895C29.0089 104.711 28.5177 104.527 28.1493 104.158C24.7107 100.905 23.7896 98.5112 23.1142 96.24C23.0528 95.9331 22.93 95.6876 22.5616 95.3807C21.1493 94.2144 19.9826 92.9254 18.8774 91.6363C18.5703 91.3294 18.4475 91.0225 18.4475 90.6542C18.3861 89.3037 18.6318 88.1375 19.123 86.9712C19.2458 86.7257 19.1844 86.6029 18.5089 86.7257L16.1756 87.2781C15.9914 87.3395 15.7458 87.3395 15.5616 87.3395C15.4388 87.3395 15.2546 87.3395 14.9475 87.4623L13.4125 87.8919C12.9212 88.0761 12.43 88.1989 11.7546 88.0147C11.4475 87.9533 11.1405 87.8306 10.7721 87.6464C10.1581 87.7692 9.54403 87.7692 8.9914 87.4623C8.80719 87.3395 8.62298 87.2167 8.43877 87.094C7.70193 87.0326 7.08789 86.8484 6.71947 86.1732C6.47386 85.5594 6.71947 85.1911 7.2721 84.8842C7.45632 84.7614 7.39491 84.6386 7.2107 84.5159C6.04403 83.7179 5.3686 82.9813 6.16684 82.4902C6.84228 82.2447 7.45632 82.3675 8.31596 82.9813C8.74579 83.2882 9.23702 83.5337 9.85105 83.5337C10.0967 83.5337 10.4037 83.5337 10.7107 83.5337C10.8335 83.5337 10.9563 83.5337 11.0177 83.4724C11.0791 83.411 10.9563 83.2268 11.2019 83.1041C12.9826 82.2447 15.0703 81.5695 17.4037 81.1398C17.7107 81.0784 17.5879 80.8943 17.2195 80.8329L11.0791 79.1755C10.0353 78.93 9.72824 78.5003 9.91246 77.9479L12.9826 69.477C12.9826 69.3543 12.9212 69.2315 12.3686 69.1087L6.16684 67.0831C5.06158 66.7148 4.81596 66.2237 5.12298 65.6713Z" fill="#E5E5E4"/>
<path fill-rule="evenodd" clip-rule="evenodd" d="M27.1672 44.0031L36.2549 27.8594C36.5005 27.4911 36.8075 27.3683 37.3602 27.6138L50.1321 32.0948C50.5005 32.2789 50.7461 32.6472 50.6847 33.1383L49.9479 37.742C49.8865 37.8648 49.9479 37.9876 50.1935 38.0489L63.0882 41.7319C63.3339 41.7933 63.4567 41.7319 63.5795 41.5478L64.8075 37.9876C64.9303 37.6193 65.2374 37.5579 65.6058 37.6806L79.7286 42.3458C80.2198 42.5299 80.4654 42.8368 80.404 43.4507L79.7286 49.1593L78.2549 61.2517C78.0707 62.1111 77.4567 62.2339 76.7812 62.1725L69.9654 61.7428C69.597 61.8042 69.3514 61.927 69.2286 62.2339L67.0181 77.15C66.7724 78.0093 66.1584 78.3162 65.176 78.1321C61.7988 77.8866 58.5444 77.3341 55.29 76.5975C55.0444 76.5361 55.0444 76.6589 55.1672 76.9044L56.6409 79.1756C56.7637 79.3597 56.8865 79.4825 56.8865 79.6667C57.3777 79.4211 58.176 79.2984 58.79 79.4211C59.2812 78.9301 59.7724 78.6845 60.3865 79.0528C60.9391 79.4825 60.9391 80.2191 60.2637 80.8943C60.0795 81.0785 59.7724 81.2626 59.4654 81.4468C59.2812 81.5082 59.2812 81.6923 59.3426 81.9378C59.4654 82.6131 59.3426 83.2269 58.9742 83.7793C58.8514 83.9021 58.79 84.0249 58.9742 84.1476C59.2812 84.2704 59.404 84.5773 59.3426 85.1911C59.2812 85.805 59.097 86.1119 58.6058 86.0505C58.483 86.1119 58.3602 86.1733 58.3602 86.4188C58.2374 87.2782 57.8075 87.7692 57.0707 87.892C56.7023 87.892 56.5795 87.7692 56.5181 87.5237C56.4567 86.7871 56.2724 86.1119 56.0268 85.4981C55.6584 85.6822 55.3514 85.5594 55.0444 85.1298C53.8163 83.6566 52.404 82.4289 50.6233 81.6923C50.4391 81.6309 50.2549 81.8151 50.1935 82.2448C49.6409 85.805 49.5181 89.5493 50.1321 93.5392C50.2549 94.0917 50.1935 94.3372 50.0093 94.5827C49.9479 94.6441 49.8865 94.7669 49.8865 95.0124C50.9303 97.7133 52.711 99.8617 54.7988 101.765C55.2286 102.194 55.3514 102.563 54.6146 102.869C52.9567 103.422 51.6058 103.852 49.6409 104.036C49.0882 104.097 48.597 104.097 48.1058 103.79C44.6058 101.887 42.4567 99.3092 40.8602 96.4242C40.7374 96.2401 40.676 96.0559 40.4917 96.0559H39.9391C39.6935 96.0559 39.6935 96.1173 39.5707 96.2401C37.9128 98.5113 37.1145 101.028 37.6058 103.913C37.7286 104.465 37.483 104.772 36.9917 105.018C35.5795 105.57 32.3865 105.57 31.097 104.772C30.6672 104.527 30.2374 104.22 30.0531 103.667C28.3338 98.634 28.7023 94.951 29.2549 91.3294C29.3163 90.8998 29.3777 90.4701 29.1935 89.979C28.3953 88.1375 27.904 86.1733 27.5356 84.209C27.4128 83.7179 27.4128 83.2269 27.6584 82.7358C28.2724 80.7102 29.1935 78.8073 30.2988 77.0272C30.5444 76.6589 30.6058 76.4134 29.8075 76.5975L27.1672 77.4569C26.9216 77.5183 26.7374 77.5183 26.5531 77.5183C26.4303 77.5183 26.1847 77.5183 25.8777 77.7638L24.097 78.439C23.5444 78.6845 22.9303 78.8687 22.3777 78.6845C22.1321 78.5618 21.8865 78.3776 21.5795 78.1321C20.904 78.3776 20.29 78.3162 19.8602 77.8866C19.7374 77.7638 19.5531 77.5183 19.4917 77.2727C18.8163 77.2113 18.2637 76.9044 18.2637 75.7995C18.3251 74.8788 18.8163 74.265 19.4917 73.8353C19.7374 73.7125 19.7374 73.5284 19.6145 73.2828C18.8777 72.0552 18.6321 70.8889 19.676 70.1523C20.2286 69.784 20.7812 69.9068 21.3338 70.9503C21.5795 71.4413 21.9479 71.8096 22.5619 71.8096C22.8689 71.7482 23.1145 71.7482 23.4216 71.871C23.5444 71.9324 23.6672 71.871 23.7286 71.7482C23.8514 71.6869 23.79 71.38 24.0356 71.1958C26.3075 69.8454 28.7023 68.8019 31.2812 68.188C31.6496 68.1266 31.5882 67.8197 31.2812 67.697L25.8777 64.9961C25.0181 64.6278 24.8953 63.9526 25.3251 63.0932L32.8777 49.8959C32.9391 49.6503 32.9391 49.5276 32.5093 49.3434L27.4128 46.1515C26.5531 45.5377 26.5531 44.8011 27.1672 44.0031Z" fill="#02547B" stroke="#02547B" stroke-width="1.5395" stroke-miterlimit="10" stroke-linecap="round" stroke-linejoin="round"/>
<path fill-rule="evenodd" clip-rule="evenodd" d="M33.5525 48.6683C33.2455 49.0366 32.8771 49.098 32.57 48.9139L27.4121 45.5992C27.0437 45.2309 27.0437 44.8012 27.2893 44.3715L34.7806 30.8672C35.0876 30.3148 35.6402 30.2534 36.2543 30.4376L48.7806 34.4275C49.2718 34.6116 49.456 34.9799 49.149 35.6551L47.4911 40.7499C47.3069 41.3024 46.8771 41.3637 46.1402 41.1182L39.263 38.7857C38.8946 38.6629 38.649 39.0312 38.4648 39.3381L33.5525 48.6683Z" fill="#E94D1D"/>
<path fill-rule="evenodd" clip-rule="evenodd" d="M35.7633 29.3326L36.4387 28.1049C36.5616 27.798 36.8072 27.6753 37.237 27.798L50.1931 32.279C50.3159 32.5245 50.4387 32.7087 50.3773 32.9542L49.9475 33.9363C49.8247 34.1819 49.6405 34.3046 49.2721 34.2432L36.0089 29.9464C35.7019 29.8237 35.5791 29.6395 35.7633 29.3326Z" fill="#BF3A18"/>
<path fill-rule="evenodd" clip-rule="evenodd" d="M67.0795 68.495C63.3953 66.2852 59.3427 65.4259 55.1059 65.3645C50.3778 68.1267 45.5883 66.2239 40.7374 60.3925C37.3602 58.7965 33.9217 57.5075 30.4217 56.464C30.0532 56.3412 29.8076 56.2184 29.8076 56.0957L37.5445 42.3458C37.8515 41.732 38.2813 41.4251 39.2638 41.7934L69.2901 51.9216C69.7813 52.1058 69.9655 52.4741 69.8427 53.272L67.6322 68.3723V68.4336C67.448 68.5564 67.2638 68.5564 67.0795 68.495Z" fill="#EADAC1"/>
<path fill-rule="evenodd" clip-rule="evenodd" d="M26.1229 64.6279C25.6316 64.3823 25.386 64.0754 25.693 63.4002L29.1316 57.2619C29.5 56.7708 29.8685 56.6481 30.3597 56.7708C33.9211 57.6302 37.2983 58.9806 40.5527 60.6994C45.7106 67.5743 50.6229 68.9861 55.2895 65.8555C59.2807 65.7942 63.3334 66.7763 67.386 69.2316C67.5702 69.3544 67.6316 69.6613 67.693 70.091V69.9682L66.6492 77.15C66.5878 77.5797 66.3421 77.8866 65.6667 77.948C53.5088 77.0273 40.2457 72.3621 26.1229 64.6279Z" fill="#F3941B"/>
<path fill-rule="evenodd" clip-rule="evenodd" d="M42.4564 45.108C42.395 45.108 42.1494 45.2921 42.0265 45.5376L41.7195 46.2742C41.5967 46.5812 41.7809 46.7653 42.1494 46.6425C43.7458 46.2129 44.8511 46.6425 45.7108 47.3791C45.9564 47.5633 46.202 47.5019 46.3248 47.195L46.816 45.5376C46.8774 45.2921 47.0002 44.9852 46.5704 44.9238C45.2809 44.9238 43.9915 44.8624 42.4564 45.108Z" fill="#4D4D4D"/>
<path fill-rule="evenodd" clip-rule="evenodd" d="M59.2192 52.4126C59.0964 52.7195 58.9736 53.0264 59.4648 53.1492C60.8157 53.3334 61.9824 54.07 63.0262 54.7452C63.5175 55.1748 64.0087 54.7452 63.8245 54.1927C63.4561 52.6581 62.4122 51.6146 60.8771 50.878C60.5701 50.7553 60.3859 50.8167 60.2017 51.0622C59.7104 51.4305 59.4034 51.9215 59.2192 52.4126Z" fill="#4D4D4D"/>
<path fill-rule="evenodd" clip-rule="evenodd" d="M62.5971 46.4583L64.3778 40.6883C64.4392 40.3814 64.6848 40.2587 65.0532 40.32L79.176 45.2307C79.483 45.3534 79.6672 45.7831 79.5444 46.1514L77.6409 60.8834C77.5795 61.1903 77.4567 61.4972 76.9041 61.4358L69.8427 60.9447C69.5971 60.822 69.3514 60.6378 69.4742 60.2695L71.0093 50.2027C71.0093 49.8344 70.8251 49.6503 70.6409 49.5275L63.0883 47.0722C62.7199 47.1336 62.4128 47.0108 62.5971 46.4583Z" fill="#1B9DD9"/>
<path fill-rule="evenodd" clip-rule="evenodd" d="M65.6051 38.3558C65.4823 38.2944 65.3595 38.2944 65.1753 38.4786L64.7455 39.7062C64.6841 39.829 64.8069 40.0131 64.9911 40.0131L79.3595 44.6783C79.5437 44.7396 79.7279 44.6783 79.7893 44.4327L79.9121 43.3892C79.9121 43.0209 79.7279 42.8368 79.4209 42.714L65.6051 38.3558Z" fill="#0376A9"/>
<path fill-rule="evenodd" clip-rule="evenodd" d="M48.2282 39.829C48.1668 40.0131 48.2282 40.0131 48.351 40.0131L49.6405 38.0489C49.7633 37.9261 49.8247 37.6806 49.8247 37.3737L50.3773 34.55C50.3159 34.3659 50.3159 34.1204 50.0703 34.55L48.2282 39.829Z" fill="#BF3A18"/>
<path fill-rule="evenodd" clip-rule="evenodd" d="M38.772 39.645C38.8948 39.4609 39.079 39.3381 39.4474 39.3381L46.5702 41.732C47.1842 41.8548 47.5527 41.6706 47.9211 41.1796L49.6404 38.6629C49.7632 38.5401 49.886 38.4173 50.1316 38.5401L62.9649 42.2845C63.1492 42.3459 63.3334 42.4686 63.272 42.8369L61.9825 46.7654C61.9211 47.0724 62.0439 47.3179 62.3509 47.3793L70.272 49.896C70.579 50.0187 70.6404 50.2029 70.6404 50.5098L70.4562 51.7375C70.3334 51.8602 70.2106 51.9216 69.9649 51.7989L38.4649 40.934C38.3421 40.8727 38.1579 40.8727 38.2807 40.5658L38.772 39.645Z" fill="#D2C8B5"/>
<path fill-rule="evenodd" clip-rule="evenodd" d="M31.4653 68.1881C31.7109 68.1267 31.8951 68.1267 32.2021 68.3108L37.7898 70.9503C37.9741 71.0731 38.0969 71.1345 37.9741 71.3186C33.86 72.0552 29.8074 73.4056 25.8162 75.3699C25.5705 75.4313 25.4477 75.3699 25.3249 75.1244L23.8512 72.3007C23.667 72.0552 23.7284 71.8097 23.9741 71.6869C26.1232 70.0296 28.6407 68.8633 31.4653 68.1881Z" fill="#1B9DD9"/>
<path fill-rule="evenodd" clip-rule="evenodd" d="M25.9387 75.554C25.7544 75.6153 25.693 75.7381 25.8158 75.9836L26.3685 77.0885C26.4299 77.2113 26.5527 77.3341 26.7369 77.2727C29.5001 76.2906 32.3246 75.554 35.2106 74.9401C35.3948 74.9401 35.579 74.8787 35.7632 74.6946L38.5878 71.871C38.772 71.6868 38.772 71.5027 38.4036 71.6254C34.1667 72.3007 29.9913 73.7739 25.9387 75.554Z" fill="#0376A9"/>
<path fill-rule="evenodd" clip-rule="evenodd" d="M21.0877 71.5641C21.3947 71.8097 21.7017 71.9938 22.0701 71.9938C22.6842 71.9324 23.2368 72.1166 23.6052 72.7304L25.6315 76.6589C25.9385 77.0886 25.8771 77.3341 25.5701 77.4569L23.421 78.2549C23.2982 78.2549 23.1754 78.2549 23.1754 78.0094C23.3596 77.3341 23.2982 76.7203 22.8684 76.4134C22.6228 76.2906 22.4385 76.2293 22.1929 76.2906C21.9473 76.352 21.7631 76.352 21.6403 76.1065C21.3947 75.6154 21.2719 75.063 21.2719 74.3878C21.2719 74.265 21.2105 74.1422 21.0877 74.0808C20.1666 73.6512 19.4912 72.9759 19.1228 71.9938C18.9385 71.1958 19 70.582 19.6754 70.1523C20.2894 69.9068 20.7807 70.5206 21.0877 71.5641Z" fill="#F3941B"/>
<path fill-rule="evenodd" clip-rule="evenodd" d="M19.6144 73.8353C19.86 73.7125 19.9214 73.8353 19.9828 74.0195L20.4741 75.4313C20.5355 75.6768 20.4741 75.7996 20.2898 75.7996C19.7372 75.8609 19.3688 76.2292 19.3688 76.9658C18.5705 77.0886 18.1407 76.2906 18.3863 75.3699C18.632 74.6333 18.939 74.1422 19.6144 73.8353Z" fill="#D47D10"/>
<path fill-rule="evenodd" clip-rule="evenodd" d="M19.7371 76.4133C19.4915 77.0271 19.6757 77.6409 20.2897 77.8251C20.5967 77.8865 20.9652 77.8865 21.2722 77.8251C21.395 77.7637 21.395 77.7023 21.3336 77.5795C21.2722 77.334 21.2722 77.0885 21.4564 76.8429C21.5178 76.7816 21.5792 76.6588 21.4564 76.5974C21.2108 76.4133 20.9652 76.2291 20.781 75.9222C20.6582 75.7994 20.5967 75.8608 20.5353 75.9222C20.2283 75.9836 19.8599 75.9836 19.7371 76.4133Z" fill="#D47D10"/>
<path fill-rule="evenodd" clip-rule="evenodd" d="M20.2901 74.2036C20.2901 74.0809 20.2287 73.9581 20.4129 74.0809L20.8427 74.3878C20.9041 74.4492 20.9655 74.5106 20.9655 74.6947C20.9655 75.3699 21.1497 75.9838 21.5182 76.5362C21.0883 76.1065 20.6585 75.5541 20.2901 74.2036Z" fill="#D47D10"/>
<path fill-rule="evenodd" clip-rule="evenodd" d="M21.7634 77.8866C22.009 78.1935 22.2546 78.3777 22.623 78.4391C22.8072 78.4391 22.8072 78.4391 22.8686 78.3777C23.0528 78.0094 23.1142 77.6411 23.0528 77.2728C22.93 76.4748 22.316 76.352 21.8248 76.7203C21.5178 77.15 21.4564 77.3955 21.7634 77.8866Z" fill="#F3941B"/>
<path fill-rule="evenodd" clip-rule="evenodd" d="M52.1576 76.3521C52.2804 76.1066 52.4646 76.0452 52.6488 76.3521L56.3945 82.1221C56.5173 82.3062 56.5787 82.4904 56.4559 82.6745L55.3506 84.7616C55.2278 85.0685 55.0436 85.1913 54.8594 84.9457C53.6313 83.1656 52.0962 82.1221 50.4383 81.3855C50.3155 81.3241 50.1927 81.2014 50.3155 80.8944C50.7453 79.2371 51.2366 77.7025 52.1576 76.3521Z" fill="#E94D1D"/>
<path fill-rule="evenodd" clip-rule="evenodd" d="M53.3246 76.5362C53.2018 76.352 53.2632 76.2906 53.4474 76.4134L54.5527 76.7203C54.6141 76.7817 54.7369 76.8431 54.8597 77.0272L56.0878 79.1143C56.272 79.3598 56.272 79.6053 56.3948 80.035L56.7632 81.4468C56.7632 81.631 56.7018 81.631 56.5176 81.4468L53.0176 76.2292L53.3246 76.5362Z" fill="#BF3A18"/>
<path fill-rule="evenodd" clip-rule="evenodd" d="M56.7637 80.0965C57.5005 79.7282 58.1145 79.544 58.6672 79.7282C58.7286 79.7896 58.8514 79.7282 58.9128 79.6668C59.2812 79.053 59.8952 78.8688 60.2637 79.3599C60.5093 79.7896 60.5093 80.2192 59.8953 80.7717C59.404 81.14 58.8514 81.4469 58.2374 81.631C58.0531 81.631 57.8689 81.631 57.8075 81.4469C57.6233 80.9558 57.3777 80.6489 56.8865 80.5875C56.8251 80.5261 56.7637 80.5261 56.7637 80.4034C56.7637 80.2806 56.7637 80.2192 56.7637 80.0965Z" fill="#0376A9"/>
<path fill-rule="evenodd" clip-rule="evenodd" d="M57.9297 82.1834C57.9297 81.8765 58.0525 81.8152 58.1753 81.8152L58.6665 81.6924C58.7893 81.6924 58.8507 81.6924 58.9735 81.8152C59.1577 82.1221 59.0963 82.8587 58.6665 83.5953C58.6051 83.6566 58.4823 83.9022 58.2981 83.9022L57.9911 83.8408C57.8069 83.8408 57.6841 83.6566 57.7455 83.5953L57.9297 82.1834Z" fill="#0376A9"/>
<path fill-rule="evenodd" clip-rule="evenodd" d="M57.1317 80.7715C57.9913 81.3854 57.8071 82.5516 57.5615 83.6565C57.5615 83.8407 57.6229 83.9634 57.8071 84.0248C58.6668 84.0248 59.158 84.1476 59.0352 85.1911C58.9738 85.8663 58.5439 85.8663 57.8071 85.3139L56.0878 84.8228C55.8422 84.7614 55.9036 84.6387 56.0264 84.4545L57.0089 82.6744C57.1317 82.4289 57.1317 82.1219 57.0703 81.7537L56.8246 80.8329C56.8246 80.7715 57.0089 80.6488 57.1317 80.7715Z" fill="#1B9DD9"/>
<path fill-rule="evenodd" clip-rule="evenodd" d="M56.027 85.0684L57.7463 85.6208C57.9305 85.6822 58.1761 85.9277 58.1761 86.1733C58.0533 86.7257 57.8691 87.2168 57.4392 87.5237C57.0708 87.7692 56.7024 87.7692 56.641 87.4009C56.5182 86.6643 56.4568 86.0505 56.027 85.3139C55.9042 85.0684 55.9656 85.0684 56.027 85.0684Z" fill="#0376A9"/>
<path fill-rule="evenodd" clip-rule="evenodd" d="M40.9829 72.2393C44.4215 73.6511 47.9829 74.8787 51.5443 75.8609C51.9127 75.9222 51.9127 76.1678 51.6057 76.4747C50.6846 77.8865 50.1934 79.4825 49.825 81.1398C49.0268 85.4366 48.9039 89.6107 49.5794 93.6006C49.6408 93.9075 49.518 94.0302 49.2724 94.153C43.8689 95.3193 38.4039 95.6262 32.632 94.2144C32.325 94.153 32.2636 93.9075 32.2636 93.6619C31.711 87.2167 34.4741 78.132 40.246 72.362C40.4917 72.0551 40.6759 72.1165 40.9829 72.2393Z" fill="#F3941B"/>
<path fill-rule="evenodd" clip-rule="evenodd" d="M31.097 92.9868C31.5268 93.662 31.8338 94.0917 31.6496 92.9868C31.4654 89.6107 32.1408 85.3139 33.8601 81.2012C35.211 77.8251 37.1759 74.8174 39.8777 72.1779C39.9391 72.1165 39.9391 71.9938 39.8777 71.9324L39.632 71.8096C39.5092 71.7482 39.325 71.7482 39.2022 71.871L36.0092 75.0015C35.825 75.1857 35.6408 75.2471 35.4566 75.2471L35.6408 75.1857C34.1671 75.4926 32.632 75.8609 31.097 76.2292C30.9127 76.2906 30.7899 76.2906 30.6671 76.4747C29.3777 78.5004 28.3952 80.7101 27.6584 82.9813C27.597 83.2269 27.597 83.411 27.6584 83.7179C28.3952 88.0147 29.6233 90.6542 31.097 92.9868Z" fill="#D47D10"/>
<path fill-rule="evenodd" clip-rule="evenodd" d="M29.316 91.5137C29.3774 91.084 29.5002 91.0226 29.5616 91.2681C29.9301 92.2502 30.4213 93.1096 30.9739 93.9076C31.1581 94.2145 31.3423 94.3987 31.2809 94.767C30.8511 97.7747 31.0967 101.151 31.588 104.588C31.588 104.772 31.5265 104.834 31.4037 104.772L30.6669 104.281C30.5441 104.159 30.3599 104.036 30.2985 103.79C28.8248 99.6162 28.7634 95.5649 29.316 91.5137Z" fill="#BF3A18"/>
<path fill-rule="evenodd" clip-rule="evenodd" d="M32.2629 94.8282C32.3857 95.1352 36.8067 95.6876 39.2015 95.749C39.4471 95.749 39.4471 95.8104 39.3857 95.9945C37.912 98.2043 36.6225 100.598 37.2365 104.097C37.2979 104.343 37.1751 104.527 36.9909 104.65C36.0699 105.202 33.7979 105.202 32.4471 105.018C32.2015 104.956 32.1401 104.772 32.0786 104.527C31.526 101.028 31.3418 97.836 31.7102 94.951C31.7716 94.4599 31.8944 94.3372 32.2629 94.8282Z" fill="#E94D1D"/>
<path fill-rule="evenodd" clip-rule="evenodd" d="M40.7369 95.9333C40.6141 95.7491 40.6141 95.6264 40.8597 95.6264C41.9036 95.6264 42.9474 95.565 43.8685 95.5036C44.1755 95.4422 44.2983 95.5036 44.4211 95.7491C46.2018 98.3886 48.4124 101.028 50.8071 103.115C51.1141 103.361 51.1141 103.483 50.5615 103.483L48.8422 103.729C48.5966 103.729 48.4738 103.729 48.2281 103.606C44.7281 101.887 42.3948 99.1866 40.7369 95.9333Z" fill="#0376A9"/>
<path fill-rule="evenodd" clip-rule="evenodd" d="M44.8512 95.6262C44.7284 95.5034 44.7284 95.442 44.9126 95.442C46.3863 95.2579 47.7986 95.0124 49.2109 94.7668C49.3951 94.7054 49.5179 94.7668 49.5793 95.1351C50.5003 97.8974 52.4038 99.9844 54.6144 102.01C54.6758 102.133 54.6758 102.194 54.553 102.317L52.0968 103.054C51.9126 103.115 51.667 103.176 51.5442 102.992C48.9653 100.782 46.7547 98.327 44.8512 95.6262Z" fill="#1B9DD9"/>
<path fill-rule="evenodd" clip-rule="evenodd" d="M40.3071 50.9394C42.4562 50.3869 44.6668 51.7373 45.2194 53.9471C45.772 56.1569 44.4212 58.3667 42.2106 58.8578C40.0615 59.4102 37.851 58.0598 37.2983 55.85C36.8071 53.7016 38.0966 51.4918 40.3071 50.9394Z" fill="white"/>
<path fill-rule="evenodd" clip-rule="evenodd" d="M40.6144 59.1034C39.0179 58.8579 37.667 57.6302 37.2986 56.0342C37.2372 55.7273 37.1758 55.359 37.1758 55.0521C37.1758 54.6224 37.2372 54.2541 37.36 53.8858C37.4828 53.3948 37.7284 52.9037 38.0968 52.474C38.1582 52.4126 38.2196 52.2899 38.281 52.2285C38.7109 51.7374 39.3249 51.3691 39.8775 51.1236C40.0617 51.0622 40.1846 51.0008 40.3688 51.0008C40.246 51.0622 40.1231 51.0622 40.0003 51.1236C39.6319 51.2464 39.2021 51.4919 38.8951 51.7374C38.5881 51.983 38.281 52.2285 38.0968 52.5968C37.974 52.7196 37.9126 52.9037 37.8512 53.0265C37.36 53.9472 37.2986 54.9293 37.5442 55.9115C38.0354 57.8757 40.0003 59.1648 41.9653 58.8579L42.3337 58.7965L43.0091 58.5509C43.6846 58.244 44.2372 57.753 44.6056 57.1391C44.7284 56.955 44.8512 56.7095 44.974 56.4639C45.0354 56.2184 45.1582 56.0342 45.1582 55.7887C45.2196 55.4818 45.2196 55.1749 45.2196 54.868C45.2196 54.7452 45.2196 54.6224 45.1582 54.4997L45.0354 54.0086L44.9126 53.6403C44.7898 53.272 44.6056 52.8423 44.36 52.5354C44.2986 52.474 44.2372 52.3513 44.1758 52.2899C43.9916 52.1057 43.8074 51.9216 43.6231 51.7374C43.5003 51.6147 43.3775 51.5533 43.1933 51.4305C42.3337 50.9394 41.3512 50.7553 40.3688 50.9394C40.4302 50.9394 40.4916 50.8781 40.553 50.8781C40.7372 50.8167 40.86 50.8167 41.0442 50.7553C41.6582 50.6939 42.3337 50.7553 42.9477 51.0008C43.5003 51.2464 44.053 51.5533 44.4828 52.0443C44.8512 52.4126 45.0968 52.8423 45.281 53.3334C46.0179 55.1749 45.4039 57.3233 43.6846 58.4896C43.2547 58.7351 42.7635 58.9806 42.3337 59.1034C41.7196 59.1648 41.167 59.1648 40.6144 59.1034Z" fill="#1A1A1A"/>
<path fill-rule="evenodd" clip-rule="evenodd" d="M39.8164 51.1235C40.2462 49.8959 43.3164 49.8959 44.8515 51.7988C44.1147 51.4305 43.3778 51.0622 42.8252 51.1849C41.7199 50.7552 40.6761 50.7552 39.8164 51.1235Z" fill="#343434"/>
<path fill-rule="evenodd" clip-rule="evenodd" d="M58.3599 56.955C60.509 56.4025 62.7195 57.753 63.2721 59.9628C63.8248 62.1726 62.4739 64.3823 60.2634 64.8734C58.1142 65.4259 55.9037 64.0754 55.3511 61.8656C54.8599 59.7172 56.1493 57.5074 58.3599 56.955Z" fill="white"/>
<path fill-rule="evenodd" clip-rule="evenodd" d="M58.6671 65.0574C57.0706 64.8119 55.7197 63.5842 55.3513 61.9882C55.2899 61.6813 55.2285 61.313 55.2285 61.0061C55.2285 60.5764 55.2899 60.2081 55.4127 59.8398C55.5355 59.3488 55.7811 58.8577 56.1496 58.428C56.211 58.3666 56.2724 58.2439 56.3338 58.1825C56.7636 57.6914 57.3776 57.3231 57.9303 57.0776C58.1145 57.0162 58.2373 56.9548 58.4215 56.9548C58.2987 57.0162 58.1759 57.0162 58.0531 57.0776C57.6847 57.2004 57.2548 57.4459 56.9478 57.6914C56.6408 57.937 56.3338 58.1825 56.1496 58.5508C56.0268 58.6736 55.9654 58.8577 55.904 58.9805C55.4127 59.9012 55.3513 60.8833 55.5969 61.8655C56.0882 63.8297 58.0531 65.1188 60.018 64.8119L60.3864 64.7505L61.0618 64.5049C61.7373 64.198 62.2899 63.707 62.6583 63.0931C62.7811 62.909 62.904 62.6634 63.0268 62.4179C63.0882 62.1724 63.211 61.9882 63.211 61.7427C63.2724 61.4358 63.2724 61.1289 63.2724 60.822C63.2724 60.6992 63.2724 60.5764 63.211 60.4537L63.1496 60.024L63.0268 59.6557C62.904 59.2874 62.7197 58.8577 62.4741 58.5508C62.4127 58.4894 62.3513 58.3666 62.2899 58.3053C62.1057 58.1211 61.9215 57.937 61.7373 57.7528C61.6145 57.63 61.4917 57.5687 61.3075 57.4459C60.4478 56.9548 59.4654 56.7707 58.4829 56.9548C58.5443 56.9548 58.6057 56.8934 58.6671 56.8934C58.8513 56.8321 58.9741 56.8321 59.1583 56.7707C59.7724 56.7093 60.4478 56.7707 61.0618 57.0162C61.6145 57.2617 62.1671 57.5687 62.5969 58.0597C62.9654 58.428 63.211 58.8577 63.3952 59.3488C64.132 61.1903 63.518 63.3387 61.7987 64.5049C61.3689 64.7505 60.8776 64.996 60.4478 65.1188C59.7724 65.1802 59.2197 65.1802 58.6671 65.0574Z" fill="#1A1A1A"/>
<path fill-rule="evenodd" clip-rule="evenodd" d="M63.272 59.7785C62.3509 58.3053 61.0001 57.3846 59.2808 56.8322L59.0352 56.5252C59.8334 55.7886 62.5352 56.9549 63.272 59.7785Z" fill="#343434"/>
<path fill-rule="evenodd" clip-rule="evenodd" d="M36.6234 83.1656C38.3427 80.4647 42.0269 79.2984 44.8514 80.5261C47.676 81.7538 48.5357 84.9457 46.8164 87.6465C45.0971 90.3474 41.4128 91.5137 38.5883 90.286C35.8251 89.0583 34.9041 85.8664 36.6234 83.1656Z" fill="#02547B"/>
<path fill-rule="evenodd" clip-rule="evenodd" d="M37.1755 83.227C38.772 80.7717 42.2106 79.6668 44.7895 80.8331C47.3684 81.9993 48.2281 84.9457 46.6316 87.4011C45.0351 89.8564 41.5965 90.9613 39.0176 89.795C36.3772 88.6287 35.579 85.6823 37.1755 83.227Z" fill="#1B9DD9"/>
<path fill-rule="evenodd" clip-rule="evenodd" d="M42.8857 63.3389C43.3156 68.0654 46.3243 71.5642 49.6401 67.3288C48.2278 67.1446 46.9384 66.5922 45.8331 65.8556C44.7278 65.119 43.7454 64.321 42.8857 63.3389Z" fill="#343434"/>
<path fill-rule="evenodd" clip-rule="evenodd" d="M43.9296 69.7226C43.684 69.1087 44.0524 68.9246 44.2981 69.2315C44.9735 69.9067 45.7103 70.3364 46.57 70.1522C46.9384 70.1522 46.9384 70.3364 46.7542 70.5819C45.7717 71.1344 44.6665 71.1344 43.9296 69.7226Z" fill="#D47D10"/>
<path fill-rule="evenodd" clip-rule="evenodd" d="M40.7983 52.658C42.1491 52.3511 43.5 53.1491 43.807 54.4995C44.114 55.85 43.3158 57.2004 41.9649 57.5073C40.614 57.8142 39.2632 57.0162 38.9562 55.6658C38.6491 54.3154 39.4474 52.9649 40.7983 52.658Z" fill="#0094CD"/>
<path fill-rule="evenodd" clip-rule="evenodd" d="M43.193 55.4816C43.193 56.5251 42.3948 57.3231 41.3509 57.3231C40.307 57.3231 39.5088 56.5251 39.5088 55.4816C39.5088 54.4381 40.307 53.6401 41.3509 53.6401C42.3948 53.6401 43.193 54.4381 43.193 55.4816Z" fill="#1E1E1D"/>
<path fill-rule="evenodd" clip-rule="evenodd" d="M41.903 53.3947C42.3943 53.2719 42.8241 53.5789 42.9469 54.0085C43.0697 54.4996 42.7627 54.9293 42.3329 55.0521C41.8416 55.1748 41.4118 54.8679 41.289 54.4382C41.1662 53.9472 41.4732 53.5175 41.903 53.3947Z" fill="white"/>
<path fill-rule="evenodd" clip-rule="evenodd" d="M59.4035 58.5508C60.7544 58.6122 61.8597 59.7784 61.7983 61.1903C61.7369 62.5407 60.5702 63.6456 59.1579 63.5842C57.807 63.5228 56.7018 62.3565 56.7632 60.9447C56.8246 59.5943 57.9913 58.4894 59.4035 58.5508Z" fill="#0094CD"/>
<path fill-rule="evenodd" clip-rule="evenodd" d="M60.8769 61.9883C60.5698 62.9705 59.5874 63.5229 58.6049 63.216C57.6225 62.9091 57.0698 61.927 57.3769 60.9448C57.6839 59.9627 58.6663 59.4102 59.6488 59.7172C60.6312 59.9627 61.1839 61.0062 60.8769 61.9883Z" fill="#1E1E1D"/>
<path fill-rule="evenodd" clip-rule="evenodd" d="M60.2627 59.5942C60.7539 59.5942 61.1224 60.0239 61.061 60.515C61.061 61.006 60.6311 61.3743 60.1399 61.313C59.6487 61.313 59.2803 60.8833 59.3417 60.3922C59.4031 59.9625 59.7715 59.5942 60.2627 59.5942Z" fill="white"/>
</g>
<defs>
<clipPath id="clip0_84_40">
<rect width="287" height="79" fill="white" transform="translate(5 27)"/>
</clipPath>
</defs>
</svg>
