<svg width="20" height="16" viewBox="0 0 20 16" fill="none" xmlns="http://www.w3.org/2000/svg">
<path d="M5.21746 2.06412L5.21753 2.06404C5.0192 1.90392 4.8087 1.82779 4.60644 1.82779C4.39964 1.82779 4.18118 1.9045 3.97903 2.05917L2.58696 3.16368C2.24576 3.4344 2.07063 3.74094 2.02896 4.10599C1.97169 4.67834 2.11058 5.31581 2.49169 6.12314L2.49187 6.12352C3.10673 7.44014 4.03782 8.67201 5.42793 9.99972C7.11365 11.6 9.14628 12.8616 11.4635 13.7513C12.3185 14.0742 13.4483 14.4497 14.66 14.5113C14.6601 14.5113 14.6602 14.5113 14.6602 14.5113L5.21746 2.06412ZM5.21746 2.06412L5.22116 2.06684M5.21746 2.06412L5.22116 2.06684M5.22116 2.06684C5.43667 2.22507 5.64096 2.38988 5.85802 2.565C5.89124 2.5918 5.92475 2.61884 5.95865 2.64613C6.02254 2.69831 6.08731 2.75045 6.15222 2.80269L6.15362 2.80382C6.21826 2.85584 6.28304 2.90798 6.34778 2.96082L6.34778 2.96083M5.22116 2.06684L6.34778 2.96083M6.34778 2.96083L6.34886 2.96168M6.34778 2.96083L6.34886 2.96168M6.34886 2.96168L7.46455 3.84691C7.68779 4.02404 7.77864 4.18548 7.77864 4.32407C7.77864 4.46267 7.68779 4.62411 7.46455 4.80124C7.40619 4.84754 7.34787 4.89456 7.28992 4.94128L7.28985 4.94134C7.23176 4.98817 7.17404 5.03471 7.11636 5.08047L7.11596 5.08079M6.34886 2.96168L7.11596 5.08079M7.11596 5.08079C7.0898 5.10177 7.06378 5.12265 7.03789 5.14343C6.71834 5.39992 6.41726 5.64158 6.08771 5.8731L6.08761 5.87296M7.11596 5.08079L6.08761 5.87296M6.08761 5.87296L6.08304 5.87658M6.08761 5.87296L6.08304 5.87658M6.08304 5.87658L6.07368 5.88401L6.06432 5.89144C5.89411 6.02648 5.81147 6.16763 5.78944 6.30982C5.7679 6.44891 5.80713 6.57287 5.84708 6.66797C5.85032 6.67568 5.85352 6.68202 5.85536 6.68567L5.8556 6.68614L5.85831 6.69174L5.85798 6.69188M6.08304 5.87658L5.85798 6.69188M5.85798 6.69188L5.86195 6.69946M5.85798 6.69188L5.86195 6.69946M5.86195 6.69946C6.15628 7.26054 6.56396 7.79138 7.194 8.42L7.19469 8.42068M5.86195 6.69946L7.19469 8.42068M7.19469 8.42068C8.32462 9.52639 9.51587 10.3851 10.8283 11.0464M7.19469 8.42068L10.8283 11.0464M17.7364 13.0368C18.1932 12.6595 18.1969 12.2733 17.7477 11.9169L17.7364 13.0368ZM17.7364 13.0368C17.5792 13.1705 17.4144 13.2982 17.2385 13.4319L17.7364 13.0368ZM10.8283 11.0464C10.8282 11.0464 10.828 11.0463 10.8279 11.0462L10.8738 10.9574L10.8288 11.0467C10.8286 11.0466 10.8285 11.0465 10.8283 11.0464ZM17.6716 12.9606L17.6727 12.9597C17.891 12.7794 17.9804 12.6137 17.9818 12.468C17.9832 12.3237 17.8985 12.1642 17.6856 11.9953L17.6716 12.9606ZM17.6716 12.9606C17.5166 13.0924 17.3536 13.2188 17.178 13.3522L17.1774 13.3527M17.6716 12.9606L17.1774 13.3527M17.1774 13.3527C17.1628 13.3639 17.1481 13.3752 17.1334 13.3866M17.1774 13.3527L17.1334 13.3866M17.1334 13.3866C16.8861 13.577 16.626 13.7773 16.389 14.0022L17.1334 13.3866ZM4.57862 10.602L4.5788 10.6022L17.1374 14.5547L17.1995 14.6331L17.1996 14.6331C17.1997 14.633 17.2 14.6327 17.2006 14.6323C17.204 14.6297 17.2157 14.6203 17.2267 14.6071C17.4236 14.4194 17.6458 14.2483 17.8839 14.0651C17.9011 14.0519 17.9184 14.0386 17.9357 14.0252C18.1121 13.8912 18.2929 13.7507 18.4666 13.6069C18.8806 13.2645 19.101 12.8642 19.1 12.4539C19.099 12.0432 18.8762 11.6479 18.4575 11.3157L16.2089 9.53158C16.2086 9.53137 16.2084 9.53117 16.2081 9.53097C15.809 9.20218 15.3302 9.0275 14.8274 9.0275C14.3242 9.0275 13.8421 9.20235 13.4324 9.52742L12.1397 10.5531C12.0318 10.5057 11.923 10.4625 11.8215 10.4222L11.8204 10.4218C11.6705 10.3623 11.5358 10.3074 11.4168 10.2473L11.4167 10.2472C10.2063 9.63739 9.10648 8.8417 8.05376 7.81764C7.5527 7.31438 7.21094 6.89108 6.96853 6.46803C7.29595 6.22964 7.60392 5.98228 7.90049 5.74143L7.90086 5.74114C8.01245 5.64964 8.12787 5.55806 8.24405 5.46588C8.66265 5.13374 8.90339 4.73641 8.90339 4.31813C8.90339 3.90026 8.66684 3.50282 8.24387 3.17024C8.24381 3.1702 8.24375 3.17016 8.2437 3.17011L7.12836 2.28516C7.00146 2.18448 6.88158 2.08655 6.75781 1.98546L6.74761 1.97713C6.74761 1.97713 6.7476 1.97713 6.7476 1.97712C6.74759 1.97712 6.74758 1.97711 6.74758 1.97711C6.50065 1.77525 6.24104 1.56624 5.98462 1.3777C5.58208 1.06487 5.10796 0.9 4.60644 0.9C4.10798 0.9 3.63025 1.06529 3.21327 1.38068L3.21325 1.38066L3.21144 1.3821L1.81121 2.4931C1.2843 2.91117 0.97969 3.42446 0.916553 4.02246L0.916499 4.02299C0.842983 4.75672 1.01433 5.52976 1.44579 6.4517C2.10757 7.87686 3.10457 9.19672 4.57862 10.602ZM15.428 10.207L17.6855 11.9952L11.8004 11.3584C11.807 11.3614 11.8135 11.3643 11.821 11.3673L11.7832 11.4599C11.7833 11.4599 11.7835 11.46 11.7836 11.4601C11.9182 11.515 12.0507 11.5416 12.1842 11.5416C12.5187 11.5416 12.736 11.372 12.8042 11.3179L14.2044 10.2069C14.4078 10.0455 14.6224 9.9642 14.8274 9.9642C15.079 9.9642 15.2888 10.0882 15.4251 10.2046L15.425 10.2047L15.428 10.207Z" fill="#EB7835" stroke="#EB7835" stroke-width="0.2"/>
</svg>
