<svg width="15" height="12" viewBox="0 0 15 12" fill="none" xmlns="http://www.w3.org/2000/svg">
<path d="M14.6067 8.76764L12.509 7.10045C11.7598 6.50502 10.4862 6.74322 10.1865 7.51725C9.96175 8.05315 9.21257 8.35086 8.53831 8.23176C7.03996 7.93404 5.01718 6.38594 4.64259 5.13554C4.41783 4.59964 4.86734 4.00421 5.5416 3.82561C6.51553 3.58744 6.81521 2.57521 6.06603 1.97979L3.96833 0.312598C3.36898 -0.104199 2.46997 -0.104199 1.94555 0.312598L0.522108 1.44391C-0.901331 2.63476 0.671943 5.79051 4.19308 8.58901C7.71422 11.3875 11.6849 12.6975 13.1832 11.5066L14.6067 10.3753C15.1311 9.89895 15.1311 9.18444 14.6067 8.76764Z" fill="#5B5B5B"/>
</svg>
