<svg width="20" height="16" viewBox="0 0 20 16" fill="none" xmlns="http://www.w3.org/2000/svg">
<mask id="path-1-outside-1_58_1982" maskUnits="userSpaceOnUse" x="0" y="0" width="20" height="16" fill="black">
<rect fill="white" width="20" height="16"/>
<path d="M4.64762 10.5296C6.42973 12.2199 8.57501 13.5507 11.0235 14.4924C11.9558 14.8429 13.2025 15.2588 14.5915 15.3301C14.6776 15.333 14.76 15.336 14.8461 15.336C15.7783 15.336 16.5271 15.0805 17.1374 14.5547C17.1411 14.5518 17.1486 14.5458 17.1524 14.5399C17.3695 14.3319 17.6166 14.1448 17.8749 13.9458C18.0509 13.8121 18.2306 13.6725 18.4028 13.5299C19.2003 12.8704 19.2003 12.0327 18.3954 11.394L16.1452 9.60873C15.7634 9.29385 15.3066 9.1275 14.8274 9.1275C14.3482 9.1275 13.8877 9.29385 13.4945 9.60576L12.1542 10.6692C12.0307 10.6128 11.9034 10.5623 11.7836 10.5148C11.6338 10.4553 11.4953 10.3989 11.3717 10.3365C10.1512 9.72161 9.043 8.91956 7.98347 7.88877C7.44808 7.35109 7.08867 6.89956 6.83782 6.43913C7.18975 6.18663 7.51922 5.92224 7.83745 5.6638C7.94977 5.57172 8.06583 5.47963 8.18189 5.38754C8.58624 5.06672 8.80339 4.6954 8.80339 4.31813C8.80339 3.94087 8.58998 3.56955 8.18189 3.24873L7.0662 2.36349C6.93516 2.25952 6.81161 2.15852 6.68432 2.05455C6.43722 1.85256 6.17889 1.64462 5.9243 1.45747C5.53868 1.15744 5.08566 1 4.60644 1C4.13096 1 3.6742 1.15744 3.27359 1.46044L1.87336 2.57143C1.36419 2.97543 1.0759 3.46558 1.016 4.03296C0.944866 4.74293 1.1096 5.49745 1.53641 6.40942C2.1916 7.82044 3.18 9.13047 4.64762 10.5296ZM1.92952 4.09534C1.97445 3.70025 2.16539 3.37052 2.52481 3.08534L3.91755 1.98029C4.1347 1.81394 4.37431 1.72779 4.60644 1.72779C4.83482 1.72779 5.06694 1.81394 5.28034 1.98623C5.53119 2.17041 5.76706 2.36349 6.02164 2.56846C6.14894 2.67243 6.27997 2.7764 6.41101 2.88335L7.52671 3.76858C7.75883 3.95275 7.87864 4.1399 7.87864 4.32407C7.87864 4.50825 7.75883 4.6954 7.52671 4.87957C7.41064 4.97166 7.29458 5.06672 7.17852 5.15881C6.83033 5.43804 6.50461 5.70242 6.14519 5.95492C6.13771 5.96086 6.13396 5.96383 6.12647 5.96977C5.81573 6.21633 5.8644 6.45101 5.93928 6.62924C5.94302 6.63815 5.94677 6.64409 5.95051 6.65301C6.23879 7.20256 6.63939 7.72538 7.26463 8.34921C8.38781 9.44832 9.57089 10.3009 10.8738 10.9574C11.0348 11.0405 11.207 11.1059 11.368 11.1713C11.5177 11.2307 11.6563 11.2871 11.7798 11.3495C11.7948 11.3554 11.806 11.3614 11.821 11.3673C11.9445 11.4178 12.0644 11.4416 12.1842 11.4416C12.4837 11.4416 12.6784 11.2901 12.742 11.2396L14.1422 10.1286C14.3594 9.95629 14.5953 9.8642 14.8274 9.8642C15.1119 9.8642 15.344 10.0038 15.4901 10.1286L17.7477 11.9169C18.1969 12.2733 18.1932 12.6595 17.7364 13.0368C17.5792 13.1705 17.4144 13.2982 17.2385 13.4319C16.9764 13.6339 16.7031 13.8418 16.456 14.0765C16.0254 14.4448 15.5125 14.6171 14.8498 14.6171C14.7862 14.6171 14.7188 14.6142 14.6552 14.6112C13.4271 14.5488 12.2852 14.1686 11.4279 13.8448C9.09916 12.9506 7.05497 11.6822 5.35897 10.0721C3.96248 8.73835 3.02275 7.49665 2.40126 6.16583C2.01563 5.34892 1.86962 4.69243 1.92952 4.09534Z"/>
</mask>
<path d="M4.64762 10.5296C6.42973 12.2199 8.57501 13.5507 11.0235 14.4924C11.9558 14.8429 13.2025 15.2588 14.5915 15.3301C14.6776 15.333 14.76 15.336 14.8461 15.336C15.7783 15.336 16.5271 15.0805 17.1374 14.5547C17.1411 14.5518 17.1486 14.5458 17.1524 14.5399C17.3695 14.3319 17.6166 14.1448 17.8749 13.9458C18.0509 13.8121 18.2306 13.6725 18.4028 13.5299C19.2003 12.8704 19.2003 12.0327 18.3954 11.394L16.1452 9.60873C15.7634 9.29385 15.3066 9.1275 14.8274 9.1275C14.3482 9.1275 13.8877 9.29385 13.4945 9.60576L12.1542 10.6692C12.0307 10.6128 11.9034 10.5623 11.7836 10.5148C11.6338 10.4553 11.4953 10.3989 11.3717 10.3365C10.1512 9.72161 9.043 8.91956 7.98347 7.88877C7.44808 7.35109 7.08867 6.89956 6.83782 6.43913C7.18975 6.18663 7.51922 5.92224 7.83745 5.6638C7.94977 5.57172 8.06583 5.47963 8.18189 5.38754C8.58624 5.06672 8.80339 4.6954 8.80339 4.31813C8.80339 3.94087 8.58998 3.56955 8.18189 3.24873L7.0662 2.36349C6.93516 2.25952 6.81161 2.15852 6.68432 2.05455C6.43722 1.85256 6.17889 1.64462 5.9243 1.45747C5.53868 1.15744 5.08566 1 4.60644 1C4.13096 1 3.6742 1.15744 3.27359 1.46044L1.87336 2.57143C1.36419 2.97543 1.0759 3.46558 1.016 4.03296C0.944866 4.74293 1.1096 5.49745 1.53641 6.40942C2.1916 7.82044 3.18 9.13047 4.64762 10.5296ZM1.92952 4.09534C1.97445 3.70025 2.16539 3.37052 2.52481 3.08534L3.91755 1.98029C4.1347 1.81394 4.37431 1.72779 4.60644 1.72779C4.83482 1.72779 5.06694 1.81394 5.28034 1.98623C5.53119 2.17041 5.76706 2.36349 6.02164 2.56846C6.14894 2.67243 6.27997 2.7764 6.41101 2.88335L7.52671 3.76858C7.75883 3.95275 7.87864 4.1399 7.87864 4.32407C7.87864 4.50825 7.75883 4.6954 7.52671 4.87957C7.41064 4.97166 7.29458 5.06672 7.17852 5.15881C6.83033 5.43804 6.50461 5.70242 6.14519 5.95492C6.13771 5.96086 6.13396 5.96383 6.12647 5.96977C5.81573 6.21633 5.8644 6.45101 5.93928 6.62924C5.94302 6.63815 5.94677 6.64409 5.95051 6.65301C6.23879 7.20256 6.63939 7.72538 7.26463 8.34921C8.38781 9.44832 9.57089 10.3009 10.8738 10.9574C11.0348 11.0405 11.207 11.1059 11.368 11.1713C11.5177 11.2307 11.6563 11.2871 11.7798 11.3495C11.7948 11.3554 11.806 11.3614 11.821 11.3673C11.9445 11.4178 12.0644 11.4416 12.1842 11.4416C12.4837 11.4416 12.6784 11.2901 12.742 11.2396L14.1422 10.1286C14.3594 9.95629 14.5953 9.8642 14.8274 9.8642C15.1119 9.8642 15.344 10.0038 15.4901 10.1286L17.7477 11.9169C18.1969 12.2733 18.1932 12.6595 17.7364 13.0368C17.5792 13.1705 17.4144 13.2982 17.2385 13.4319C16.9764 13.6339 16.7031 13.8418 16.456 14.0765C16.0254 14.4448 15.5125 14.6171 14.8498 14.6171C14.7862 14.6171 14.7188 14.6142 14.6552 14.6112C13.4271 14.5488 12.2852 14.1686 11.4279 13.8448C9.09916 12.9506 7.05497 11.6822 5.35897 10.0721C3.96248 8.73835 3.02275 7.49665 2.40126 6.16583C2.01563 5.34892 1.86962 4.69243 1.92952 4.09534Z" fill="#EB7835"/>
<path d="M4.64762 10.5296C6.42973 12.2199 8.57501 13.5507 11.0235 14.4924C11.9558 14.8429 13.2025 15.2588 14.5915 15.3301C14.6776 15.333 14.76 15.336 14.8461 15.336C15.7783 15.336 16.5271 15.0805 17.1374 14.5547C17.1411 14.5518 17.1486 14.5458 17.1524 14.5399C17.3695 14.3319 17.6166 14.1448 17.8749 13.9458C18.0509 13.8121 18.2306 13.6725 18.4028 13.5299C19.2003 12.8704 19.2003 12.0327 18.3954 11.394L16.1452 9.60873C15.7634 9.29385 15.3066 9.1275 14.8274 9.1275C14.3482 9.1275 13.8877 9.29385 13.4945 9.60576L12.1542 10.6692C12.0307 10.6128 11.9034 10.5623 11.7836 10.5148C11.6338 10.4553 11.4953 10.3989 11.3717 10.3365C10.1512 9.72161 9.043 8.91956 7.98347 7.88877C7.44808 7.35109 7.08867 6.89956 6.83782 6.43913C7.18975 6.18663 7.51922 5.92224 7.83745 5.6638C7.94977 5.57172 8.06583 5.47963 8.18189 5.38754C8.58624 5.06672 8.80339 4.6954 8.80339 4.31813C8.80339 3.94087 8.58998 3.56955 8.18189 3.24873L7.0662 2.36349C6.93516 2.25952 6.81161 2.15852 6.68432 2.05455C6.43722 1.85256 6.17889 1.64462 5.9243 1.45747C5.53868 1.15744 5.08566 1 4.60644 1C4.13096 1 3.6742 1.15744 3.27359 1.46044L1.87336 2.57143C1.36419 2.97543 1.0759 3.46558 1.016 4.03296C0.944866 4.74293 1.1096 5.49745 1.53641 6.40942C2.1916 7.82044 3.18 9.13047 4.64762 10.5296ZM1.92952 4.09534C1.97445 3.70025 2.16539 3.37052 2.52481 3.08534L3.91755 1.98029C4.1347 1.81394 4.37431 1.72779 4.60644 1.72779C4.83482 1.72779 5.06694 1.81394 5.28034 1.98623C5.53119 2.17041 5.76706 2.36349 6.02164 2.56846C6.14894 2.67243 6.27997 2.7764 6.41101 2.88335L7.52671 3.76858C7.75883 3.95275 7.87864 4.1399 7.87864 4.32407C7.87864 4.50825 7.75883 4.6954 7.52671 4.87957C7.41064 4.97166 7.29458 5.06672 7.17852 5.15881C6.83033 5.43804 6.50461 5.70242 6.14519 5.95492C6.13771 5.96086 6.13396 5.96383 6.12647 5.96977C5.81573 6.21633 5.8644 6.45101 5.93928 6.62924C5.94302 6.63815 5.94677 6.64409 5.95051 6.65301C6.23879 7.20256 6.63939 7.72538 7.26463 8.34921C8.38781 9.44832 9.57089 10.3009 10.8738 10.9574C11.0348 11.0405 11.207 11.1059 11.368 11.1713C11.5177 11.2307 11.6563 11.2871 11.7798 11.3495C11.7948 11.3554 11.806 11.3614 11.821 11.3673C11.9445 11.4178 12.0644 11.4416 12.1842 11.4416C12.4837 11.4416 12.6784 11.2901 12.742 11.2396L14.1422 10.1286C14.3594 9.95629 14.5953 9.8642 14.8274 9.8642C15.1119 9.8642 15.344 10.0038 15.4901 10.1286L17.7477 11.9169C18.1969 12.2733 18.1932 12.6595 17.7364 13.0368C17.5792 13.1705 17.4144 13.2982 17.2385 13.4319C16.9764 13.6339 16.7031 13.8418 16.456 14.0765C16.0254 14.4448 15.5125 14.6171 14.8498 14.6171C14.7862 14.6171 14.7188 14.6142 14.6552 14.6112C13.4271 14.5488 12.2852 14.1686 11.4279 13.8448C9.09916 12.9506 7.05497 11.6822 5.35897 10.0721C3.96248 8.73835 3.02275 7.49665 2.40126 6.16583C2.01563 5.34892 1.86962 4.69243 1.92952 4.09534Z" stroke="#EB7835" stroke-width="0.4" mask="url(#path-1-outside-1_58_1982)"/>
</svg>
