<svg width="170" height="142" viewBox="0 0 170 142" fill="none" xmlns="http://www.w3.org/2000/svg">
<path d="M63.075 128C62.96 128 62.8451 128 62.7301 128C59.1659 127.868 55.9467 125.76 53.9921 122.334C42.0349 100.726 21.1098 80.6989 20.8798 80.5671C16.2809 76.2191 15.706 68.4454 19.5002 63.1751C23.2943 57.9048 30.0777 57.1142 34.6766 61.594C35.4814 62.3845 50.6579 76.8779 63.6499 95.5875C76.8718 78.459 104.35 46.7053 147.35 14.9517C152.409 11.2625 159.078 12.9753 162.297 18.6409C165.516 24.4382 164.022 32.0802 159.078 35.7694C100.786 78.5908 72.0429 122.466 71.813 122.993C69.7435 126.155 66.5242 128 63.075 128Z" fill="#EE8B00"/>
<path d="M55.075 124C54.96 124 54.8451 124 54.7301 124C51.1659 123.869 47.9467 121.78 45.9921 118.384C34.0349 96.9633 13.1098 77.1102 12.8798 76.9796C8.28091 72.6694 7.70604 64.9633 11.5002 59.7388C15.2943 54.5143 22.0777 53.7306 26.6766 58.1714C27.4814 58.9551 42.6579 73.3225 55.6499 91.8694C68.8718 74.8898 96.3504 43.4123 139.35 11.9347C144.409 8.27756 151.078 9.97552 154.297 15.5918C157.516 21.3388 156.022 28.9143 151.078 32.5714C92.7862 75.0204 64.0429 118.514 63.813 119.037C61.7435 122.171 58.5242 124 55.075 124Z" fill="#FEFFFD"/>
</svg>
