<svg width="170" height="142" viewBox="0 0 170 142" fill="none" xmlns="http://www.w3.org/2000/svg">
<path d="M163.617 39.9172L163.33 39.4873L153.592 29.3617C153.017 28.502 153.4 27.2602 154.453 26.9259C155.936 26.4721 157.324 25.6841 158.544 24.5378C162.612 20.669 162.779 14.3166 158.903 10.4479C155.219 6.41198 148.854 6.29258 144.787 10.1852C143.59 11.3315 142.729 12.6927 142.227 14.1495C141.868 15.1764 140.6 15.5107 139.762 14.8898L130.048 4.74031L129.617 4.42985C128.995 3.8567 128.014 3.8567 127.392 4.45373L116.147 15.2241C115.453 15.2719 114.759 14.8898 114.544 14.1495C113.587 10.8539 110.835 7.98814 106.17 7.10454C105.691 7.00901 105.189 7.00901 104.71 7.08066C95.1635 8.75233 92.699 18.663 97.8432 24.0363C98.9199 25.1826 100.236 25.9706 101.648 26.4482C102.413 26.7109 102.748 27.4751 102.605 28.1916L91.2635 39.0575C90.6174 39.6784 90.5696 40.7053 91.1917 41.3262L101.432 51.9772L101.624 52.1205L101.695 52.1921C102.557 53.0996 104.088 52.622 104.399 51.3801C105.332 47.7741 108.323 44.574 113.3 43.5949C114.233 43.5233 115.166 43.5949 116.075 43.7859C118.181 44.3591 119.832 45.3621 121.076 46.6039C122.272 47.8935 123.205 49.5891 123.684 51.7145C123.827 52.622 123.851 53.5533 123.755 54.4847C122.559 59.4042 119.209 62.2222 115.549 62.9864C114.281 63.2491 113.73 64.7536 114.616 65.6372L114.687 65.7088L114.831 65.8999L125.024 76.5747C125.622 77.2195 126.651 77.2195 127.297 76.5986L138.662 65.8043C139.403 65.7088 140.145 66.067 140.36 66.8312C140.767 68.2641 141.509 69.6014 142.609 70.7239C147.754 76.0732 157.779 74.0672 159.908 64.6342C160.004 64.1565 160.028 63.655 159.956 63.1774C159.262 58.4967 156.535 55.6071 153.281 54.5086C152.539 54.2698 152.18 53.5533 152.276 52.8608L163.569 42.1143C164.119 41.5172 164.167 40.5381 163.617 39.9172Z" fill="#EE8B00"/>
<path d="M111.912 138.904H112.008L112.247 138.928L127.034 139C127.919 139 128.637 138.26 128.637 137.376L128.709 121.71C129.139 121.113 129.929 120.826 130.647 121.208C131.963 121.901 133.446 122.283 135.025 122.283C142.466 122.283 147.969 113.686 142.61 105.614C142.347 105.208 141.988 104.85 141.581 104.563C137.705 101.817 133.757 101.793 130.695 103.369C130.001 103.727 129.259 103.489 128.804 102.963L128.876 87.3928C128.876 86.5092 128.206 85.7928 127.369 85.7689L126.866 85.6734H112.798C111.793 85.4823 111.147 84.3599 111.649 83.3808C112.343 82.0195 112.75 80.4434 112.75 78.7956C112.774 73.2074 108.299 68.67 102.82 68.7655C97.3412 68.6222 92.843 73.1358 92.843 78.7478C92.843 80.3956 93.2259 81.9718 93.9437 83.333C94.4461 84.3121 93.7762 85.4584 92.7713 85.6256L78.7026 85.554L78.2001 85.6495C77.6019 85.6734 77.0995 86.0555 76.8363 86.5808C76.932 86.8197 76.9799 87.0823 76.9799 87.3689L76.9559 103.441L76.0707 103.274C75.6639 103.441 75.2093 103.489 74.7786 103.25L74.5154 103.13C74.0369 103.13 73.5584 103.178 73.0559 103.25L72.9363 103.274L72.8167 103.25C72.2664 103.154 71.7639 103.059 71.2854 103.059C66.7633 103.059 63.0308 106.545 62.4805 111.059C62.4326 111.441 62.3848 111.847 62.3848 112.253C62.3848 113.877 62.8154 115.596 63.7486 117.364C63.94 117.746 64.1553 118.128 64.3946 118.51C64.6099 118.844 64.897 119.131 65.2081 119.346C67.2897 120.802 69.3234 121.4 71.2136 121.4C71.7161 121.4 72.2185 121.352 72.697 121.28L72.8167 121.256L72.9363 121.28C73.343 121.352 73.678 121.423 73.9651 121.447C74.2044 121.352 74.4676 121.232 74.7068 121.113C75.2093 120.85 75.7835 120.946 76.1903 121.208L76.8841 121.065L76.8602 137.376C76.8602 137.591 76.8124 137.782 76.7645 137.997C77.0277 138.546 77.5541 138.928 78.1762 138.928H92.9627L93.178 138.904H93.2737C94.5418 138.904 95.2357 137.495 94.5418 136.397C92.5799 133.245 92.3406 128.874 95.0921 124.6C95.6903 123.883 96.3842 123.262 97.1498 122.737C99.0161 121.614 100.882 121.113 102.653 121.089C104.423 121.113 106.29 121.638 108.156 122.761C108.922 123.286 109.615 123.931 110.214 124.647C112.941 128.922 112.654 133.292 110.692 136.445C109.974 137.472 110.644 138.904 111.912 138.904Z" fill="#EE8B00"/>
<path d="M59.6092 83.2287L59.5853 83.3242L59.5614 83.3481L59.4657 83.6824C59.4657 84.0406 59.7528 84.3989 60.1117 84.4705L74.0608 84.4466C74.2522 84.4466 74.4196 84.4944 74.6111 84.5421C75.0896 84.566 75.5442 84.7332 75.927 85.0198L76.0227 84.5899L76.0945 68.9239C76.5252 68.3269 77.3148 68.0403 78.0325 68.4224C79.3485 69.1149 80.8319 69.497 82.4111 69.497C89.8522 69.497 95.3552 60.8998 89.9957 52.828C89.7325 52.422 89.3736 52.0638 88.9669 51.7772C85.0908 49.0309 81.143 49.007 78.0804 50.5832C77.3865 50.9414 76.6448 50.7026 76.1902 50.1772L76.262 34.6306C76.262 33.747 75.592 33.0306 74.7546 33.0067L74.2522 32.9112H60.1835C59.1546 32.744 58.5086 31.5977 59.0111 30.6186C59.7049 29.2335 60.1117 27.6812 60.1117 26.0334C60.1356 20.4213 55.6614 15.9078 50.1822 16.0033C44.7031 15.86 40.2049 20.3736 40.2049 25.9856C40.2049 27.6334 40.5878 29.2096 41.3055 30.5947C41.808 31.5738 41.1381 32.7201 40.1332 32.8873L26.0405 32.744L25.5381 32.8395C24.7006 32.8634 24.0068 33.5798 24.0068 34.4634L23.9828 50.01C23.5282 50.5354 22.7865 50.7742 22.0927 50.416C19.054 48.816 15.0822 48.816 11.2062 51.5623C10.7994 51.8489 10.4644 52.2071 10.1773 52.6131C4.76996 60.661 10.2252 69.2821 17.6663 69.306C19.2454 69.306 20.7289 68.9239 22.0448 68.2552C22.7626 67.897 23.5522 68.1836 23.9589 68.7806L23.935 84.4466C23.935 84.6377 23.9828 84.8287 24.0307 84.9959C24.3896 84.7332 24.8442 84.566 25.3227 84.5421C25.4902 84.4944 25.6577 84.4466 25.873 84.4466L39.8221 84.4705C40.181 84.3989 40.4681 84.0406 40.4681 83.6824L40.3963 83.3481L40.3724 83.3003L40.3485 83.2526L40.3246 83.2048C39.6068 81.7719 39.2 80.148 39.2 78.4286V78.3808V78.3569C39.2 77.2584 39.4154 76.2554 39.6785 75.3002C40.9706 70.8583 44.9424 67.5627 49.7276 67.5627H49.9908H50.2062C54.9914 67.5627 58.9632 70.8583 60.2552 75.3002C60.5184 76.2554 60.7338 77.2584 60.7338 78.3569V78.3808C60.7338 80.148 60.327 81.7719 59.6092 83.2287Z" fill="#EE8B00"/>
<path d="M64.4428 103.918C66.2851 102.271 68.6778 101.268 71.3097 101.268V102.056V101.268C71.9557 101.268 72.506 101.387 73.0324 101.459C73.5587 101.387 74.0851 101.339 74.6115 101.339C74.8747 101.339 75.1379 101.363 75.4011 101.387L75.425 87.2255C75.425 86.7718 75.114 86.4613 74.7311 86.4136L74.6833 86.3897H74.5637L74.444 86.3419L74.2048 86.2942L60.0643 86.318L59.9925 86.2942C58.8919 86.1031 58.1262 85.1956 58.0305 84.121L57.9827 83.906C57.9827 83.5717 58.0545 83.2374 58.2219 82.903L58.2459 82.8314L58.2698 82.8075C58.8919 81.5418 59.2508 80.1328 59.2508 78.6283V78.6044C59.2508 77.7208 59.0833 76.8611 58.844 76.0014C57.7434 72.2043 54.3698 69.4341 50.3502 69.4341H50.1348H50.1109H49.8956C48.0054 69.4341 46.2587 70.055 44.8471 71.1058C43.2201 72.2759 41.9999 73.9954 41.4256 76.0014C41.2821 76.479 41.1864 76.9805 41.1146 77.482C41.0667 77.8641 41.0189 78.2223 41.0189 78.6044V78.6283C41.0189 80.1328 41.3778 81.5418 42.0238 82.8075L42.0477 82.8314L42.0716 82.8792L42.0956 82.9269C42.2391 83.2374 42.3348 83.5956 42.3348 83.9299L42.287 84.121C42.1913 85.1956 41.4256 86.1031 40.325 86.318L40.2532 86.3419L26.1127 86.318L25.9931 86.3419L25.8735 86.3658L25.706 86.3897H25.5864C25.1796 86.4136 24.8446 86.7479 24.8446 87.2016L24.8686 103.059L24.6772 103.274C24.2465 103.799 23.5765 104.133 22.8587 104.133C22.4999 104.133 22.117 104.038 21.7821 103.871C20.5857 103.25 19.2219 102.892 17.7864 102.892C15.8962 102.892 13.8146 103.512 11.733 104.993C11.4219 105.208 11.1348 105.518 10.9195 105.829C9.4839 107.954 8.88574 110.104 8.88574 112.086C8.88574 117.172 12.8814 121.256 17.7624 121.28H17.7864C19.2219 121.28 20.5857 120.922 21.7821 120.301C22.117 120.134 22.4759 120.038 22.8109 120.038C23.6005 120.038 24.2943 120.444 24.725 121.041L24.8686 121.256L24.8925 137.161C24.8925 137.639 25.2514 137.997 25.6821 137.997L40.3968 137.973L40.636 137.949H40.7078H40.8035C41.0428 137.949 41.1864 137.854 41.3299 137.734C41.4495 137.591 41.5452 137.376 41.5452 137.161L41.4017 136.659C40.3729 134.988 39.7747 133.006 39.7747 130.904C39.7747 128.683 40.4446 126.319 41.9041 124.002L41.9281 123.955L41.952 123.931C42.598 123.143 43.3397 122.474 44.1772 121.901L44.2011 121.877L44.225 121.853C46.2109 120.659 48.2207 120.11 50.1348 120.086H50.1587C52.0729 120.11 54.0827 120.659 56.0686 121.853H56.0925L56.1164 121.877C56.9538 122.45 57.6956 123.119 58.3416 123.907L58.3655 123.955L58.3894 124.002C59.8729 126.295 60.5189 128.683 60.5189 130.904C60.5189 133.006 59.9207 134.988 58.8919 136.659L58.7483 137.137C58.7483 137.352 58.844 137.567 58.9637 137.71C59.0833 137.854 59.2508 137.925 59.49 137.925H59.6336H59.6814L59.8489 137.949L74.5637 137.973C74.9704 137.973 75.3532 137.615 75.3532 137.137L75.3771 122.761C75.0422 122.808 74.7072 122.832 74.3483 122.832C73.7502 122.832 73.2716 122.689 72.8649 122.617C72.3385 122.689 71.836 122.761 71.2857 122.761C69.1324 122.761 66.8354 122.068 64.6103 120.564L64.3471 120.42C63.8686 120.086 63.4618 119.656 63.1268 119.155C62.2894 117.889 61.6913 116.623 61.3324 115.334C61.2127 114.928 61.141 114.546 61.0452 114.14C60.9017 113.423 60.8299 112.707 60.8299 111.99C60.8299 108.814 62.2176 105.901 64.4428 103.918Z" fill="#EE8B00"/>
<path d="M158.617 35.9172L158.33 35.4873L148.592 25.3617C148.017 24.502 148.4 23.2602 149.453 22.9259C150.936 22.4721 152.324 21.6841 153.544 20.5378C157.612 16.669 157.779 10.3166 153.903 6.44789C150.219 2.41198 143.854 2.29258 139.787 6.1852C138.59 7.3315 137.729 8.69272 137.227 10.1495C136.868 11.1764 135.6 11.5107 134.762 10.8898L125.048 0.740305L124.617 0.42985C123.995 -0.143297 123.014 -0.143296 122.392 0.453732L111.147 11.2241C110.453 11.2719 109.759 10.8898 109.544 10.1495C108.587 6.85387 105.835 3.98814 101.17 3.10454C100.691 3.00901 100.189 3.00901 99.7101 3.08066C90.1635 4.75233 87.699 14.663 92.8432 20.0363C93.9199 21.1826 95.2358 21.9706 96.6475 22.4482C97.4131 22.7109 97.7481 23.4751 97.6046 24.1916L86.2635 35.0575C85.6174 35.6784 85.5696 36.7053 86.1917 37.3262L96.4322 47.9772L96.6236 48.1205L96.6954 48.1921C97.5567 49.0996 99.088 48.622 99.399 47.3801C100.332 43.7741 103.323 40.574 108.3 39.5949C109.233 39.5233 110.166 39.5949 111.075 39.7859C113.181 40.3591 114.832 41.3621 116.076 42.6039C117.272 43.8935 118.205 45.5891 118.684 47.7145C118.827 48.622 118.851 49.5533 118.755 50.4847C117.559 55.4042 114.209 58.2222 110.549 58.9864C109.281 59.2491 108.73 60.7536 109.616 61.6372L109.687 61.7088L109.831 61.8999L120.024 72.5747C120.622 73.2195 121.651 73.2195 122.297 72.5986L133.662 61.8043C134.403 61.7088 135.145 62.067 135.36 62.8312C135.767 64.2641 136.509 65.6014 137.609 66.7239C142.754 72.0732 152.779 70.0672 154.908 60.6342C155.004 60.1565 155.028 59.655 154.956 59.1774C154.262 54.4967 151.535 51.6071 148.281 50.5086C147.539 50.2698 147.18 49.5533 147.276 48.8608L158.569 38.1143C159.119 37.5172 159.167 36.5381 158.617 35.9172Z" fill="white"/>
<path d="M106.912 134.904H107.008L107.247 134.928L122.034 135C122.919 135 123.637 134.26 123.637 133.376L123.709 117.71C124.139 117.113 124.929 116.826 125.647 117.208C126.963 117.901 128.446 118.283 130.025 118.283C137.466 118.283 142.969 109.686 137.61 101.614C137.347 101.208 136.988 100.85 136.581 100.563C132.705 97.817 128.757 97.7931 125.695 99.3693C125.001 99.7275 124.259 99.4887 123.804 98.9633L123.876 83.3928C123.876 82.5092 123.206 81.7928 122.369 81.7689L121.866 81.6734H107.798C106.793 81.4823 106.147 80.3599 106.649 79.3808C107.343 78.0195 107.75 76.4434 107.75 74.7956C107.774 69.2074 103.299 64.67 97.8203 64.7655C92.3412 64.6222 87.843 69.1358 87.843 74.7478C87.843 76.3956 88.2259 77.9718 88.9437 79.333C89.4461 80.3121 88.7762 81.4584 87.7713 81.6256L73.7026 81.554L73.2001 81.6495C72.6019 81.6734 72.0995 82.0555 71.8363 82.5808C71.932 82.8197 71.9799 83.0823 71.9799 83.3689L71.9559 99.4409L71.0707 99.2738C70.6639 99.4409 70.2093 99.4887 69.7786 99.2499L69.5154 99.1305C69.0369 99.1305 68.5584 99.1782 68.0559 99.2499L67.9363 99.2738L67.8167 99.2499C67.2664 99.1543 66.7639 99.0588 66.2854 99.0588C61.7633 99.0588 58.0308 102.545 57.4805 107.059C57.4326 107.441 57.3848 107.847 57.3848 108.253C57.3848 109.877 57.8154 111.596 58.7486 113.364C58.94 113.746 59.1553 114.128 59.3946 114.51C59.6099 114.844 59.897 115.131 60.2081 115.346C62.2897 116.802 64.3234 117.4 66.2136 117.4C66.7161 117.4 67.2185 117.352 67.697 117.28L67.8167 117.256L67.9363 117.28C68.343 117.352 68.678 117.423 68.9651 117.447C69.2044 117.352 69.4676 117.232 69.7068 117.113C70.2093 116.85 70.7835 116.946 71.1903 117.208L71.8841 117.065L71.8602 133.376C71.8602 133.591 71.8124 133.782 71.7645 133.997C72.0277 134.546 72.5541 134.928 73.1762 134.928H87.9627L88.178 134.904H88.2737C89.5418 134.904 90.2357 133.495 89.5418 132.397C87.5799 129.245 87.3406 124.874 90.0921 120.6C90.6903 119.883 91.3842 119.262 92.1498 118.737C94.0161 117.614 95.8823 117.113 97.6529 117.089C99.4234 117.113 101.29 117.638 103.156 118.761C103.922 119.286 104.615 119.931 105.214 120.647C107.941 124.922 107.654 129.292 105.692 132.445C104.974 133.472 105.644 134.904 106.912 134.904Z" fill="white"/>
<path d="M54.6092 79.2287L54.5853 79.3242L54.5614 79.3481L54.4657 79.6824C54.4657 80.0406 54.7528 80.3989 55.1117 80.4705L69.0608 80.4466C69.2522 80.4466 69.4196 80.4944 69.6111 80.5421C70.0896 80.566 70.5442 80.7332 70.927 81.0198L71.0227 80.5899L71.0945 64.9239C71.5252 64.3269 72.3148 64.0403 73.0325 64.4224C74.3485 65.1149 75.8319 65.497 77.4111 65.497C84.8522 65.497 90.3552 56.8998 84.9957 48.828C84.7325 48.422 84.3736 48.0638 83.9669 47.7772C80.0908 45.0309 76.143 45.007 73.0804 46.5832C72.3865 46.9414 71.6448 46.7026 71.1902 46.1772L71.262 30.6306C71.262 29.747 70.592 29.0306 69.7546 29.0067L69.2522 28.9112H55.1835C54.1546 28.744 53.5086 27.5977 54.0111 26.6186C54.7049 25.2335 55.1117 23.6812 55.1117 22.0334C55.1356 16.4213 50.6614 11.9078 45.1822 12.0033C39.7031 11.86 35.2049 16.3736 35.2049 21.9856C35.2049 23.6334 35.5878 25.2096 36.3055 26.5947C36.808 27.5738 36.1381 28.7201 35.1332 28.8873L21.0405 28.744L20.5381 28.8395C19.7006 28.8634 19.0068 29.5798 19.0068 30.4634L18.9828 46.01C18.5282 46.5354 17.7865 46.7742 17.0927 46.416C14.054 44.816 10.0822 44.816 6.20616 47.5623C5.79941 47.8489 5.46444 48.2071 5.17732 48.6131C-0.230041 56.661 5.22517 65.2821 12.6663 65.306C14.2454 65.306 15.7289 64.9239 17.0448 64.2552C17.7626 63.897 18.5522 64.1836 18.9589 64.7806L18.935 80.4466C18.935 80.6377 18.9828 80.8287 19.0307 80.9959C19.3896 80.7332 19.8442 80.566 20.3227 80.5421C20.4902 80.4944 20.6577 80.4466 20.873 80.4466L34.8221 80.4705C35.181 80.3989 35.4681 80.0406 35.4681 79.6824L35.3963 79.3481L35.3724 79.3003L35.3485 79.2526L35.3246 79.2048C34.6068 77.7719 34.2 76.148 34.2 74.4286V74.3808V74.3569C34.2 73.2584 34.4154 72.2554 34.6785 71.3002C35.9706 66.8583 39.9424 63.5627 44.7276 63.5627H44.9908H45.2062C49.9914 63.5627 53.9632 66.8583 55.2552 71.3002C55.5184 72.2554 55.7338 73.2584 55.7338 74.3569V74.3808C55.7338 76.148 55.327 77.7719 54.6092 79.2287Z" fill="white"/>
<path d="M59.4428 99.9184C61.2851 98.2706 63.6778 97.2676 66.3097 97.2676V98.0557V97.2676C66.9557 97.2676 67.506 97.387 68.0324 97.4587C68.5587 97.387 69.0851 97.3393 69.6115 97.3393C69.8747 97.3393 70.1379 97.3631 70.4011 97.387L70.425 83.2255C70.425 82.7718 70.114 82.4613 69.7311 82.4136L69.6833 82.3897H69.5637L69.444 82.3419L69.2048 82.2942L55.0643 82.318L54.9925 82.2942C53.8919 82.1031 53.1262 81.1956 53.0305 80.121L52.9827 79.906C52.9827 79.5717 53.0545 79.2374 53.2219 78.903L53.2459 78.8314L53.2698 78.8075C53.8919 77.5418 54.2508 76.1328 54.2508 74.6283V74.6044C54.2508 73.7208 54.0833 72.8611 53.844 72.0014C52.7434 68.2043 49.3698 65.4341 45.3502 65.4341H45.1348H45.1109H44.8956C43.0054 65.4341 41.2587 66.055 39.8471 67.1058C38.2201 68.2759 36.9999 69.9954 36.4256 72.0014C36.2821 72.479 36.1864 72.9805 36.1146 73.482C36.0667 73.8641 36.0189 74.2223 36.0189 74.6044V74.6283C36.0189 76.1328 36.3778 77.5418 37.0238 78.8075L37.0477 78.8314L37.0716 78.8792L37.0956 78.9269C37.2391 79.2374 37.3348 79.5956 37.3348 79.9299L37.287 80.121C37.1913 81.1956 36.4256 82.1031 35.325 82.318L35.2532 82.3419L21.1127 82.318L20.9931 82.3419L20.8735 82.3658L20.706 82.3897H20.5864C20.1796 82.4136 19.8446 82.7479 19.8446 83.2016L19.8686 99.0587L19.6772 99.2736C19.2465 99.799 18.5765 100.133 17.8587 100.133C17.4999 100.133 17.117 100.038 16.7821 99.8707C15.5857 99.2498 14.2219 98.8915 12.7864 98.8915C10.8962 98.8915 8.81458 99.5124 6.73298 100.993C6.42194 101.208 6.13482 101.518 5.91948 101.829C4.4839 103.954 3.88574 106.104 3.88574 108.086C3.88574 113.172 7.88145 117.256 12.7624 117.28H12.7864C14.2219 117.28 15.5857 116.922 16.7821 116.301C17.117 116.134 17.4759 116.038 17.8109 116.038C18.6005 116.038 19.2943 116.444 19.725 117.041L19.8686 117.256L19.8925 133.161C19.8925 133.639 20.2514 133.997 20.6821 133.997L35.3968 133.973L35.636 133.949H35.7078H35.8035C36.0428 133.949 36.1864 133.854 36.3299 133.734C36.4495 133.591 36.5452 133.376 36.5452 133.161L36.4017 132.659C35.3729 130.988 34.7747 129.006 34.7747 126.904C34.7747 124.683 35.4446 122.319 36.9041 120.002L36.9281 119.955L36.952 119.931C37.598 119.143 38.3397 118.474 39.1772 117.901L39.2011 117.877L39.225 117.853C41.2109 116.659 43.2207 116.11 45.1348 116.086H45.1587C47.0729 116.11 49.0827 116.659 51.0686 117.853H51.0925L51.1164 117.877C51.9538 118.45 52.6956 119.119 53.3416 119.907L53.3655 119.955L53.3894 120.002C54.8729 122.295 55.5189 124.683 55.5189 126.904C55.5189 129.006 54.9207 130.988 53.8919 132.659L53.7483 133.137C53.7483 133.352 53.844 133.567 53.9637 133.71C54.0833 133.854 54.2508 133.925 54.49 133.925H54.6336H54.6814L54.8489 133.949L69.5637 133.973C69.9704 133.973 70.3532 133.615 70.3532 133.137L70.3771 118.761C70.0422 118.808 69.7072 118.832 69.3483 118.832C68.7502 118.832 68.2716 118.689 67.8649 118.617C67.3385 118.689 66.836 118.761 66.2857 118.761C64.1324 118.761 61.8354 118.068 59.6103 116.564L59.3471 116.42C58.8686 116.086 58.4618 115.656 58.1268 115.155C57.2894 113.889 56.6913 112.623 56.3324 111.334C56.2127 110.928 56.141 110.546 56.0452 110.14C55.9017 109.423 55.8299 108.707 55.8299 107.99C55.8299 104.814 57.2176 101.901 59.4428 99.9184Z" fill="white"/>
</svg>
