<svg width="121" height="145" viewBox="0 0 121 145" fill="none" xmlns="http://www.w3.org/2000/svg">
<g clip-path="url(#clip0_76_37)">
<path d="M121 75.7387C121 69.1788 115.68 63.8606 109.119 63.8606H91.8983C90.2011 63.8606 88.5659 64.2331 87.1171 64.8746C94.6304 58.3354 99.391 48.7129 99.391 37.9729C99.391 36.0898 99.2461 34.2481 98.9563 32.4477C105.352 30.13 109.926 24.0047 109.926 16.8034C109.926 7.59471 102.475 0.14502 93.2644 0.14502C88.0071 0.14502 83.3294 2.58686 80.2661 6.39448C75.34 3.78709 69.7101 2.31785 63.7491 2.31785C57.7674 2.31785 52.1583 3.78709 47.2115 6.39448C44.1482 2.58686 39.4705 0.14502 34.2132 0.14502C25.0026 0.14502 17.5514 7.59471 17.5514 16.8034C17.5514 24.0047 22.1256 30.1093 28.5213 32.4477C28.2315 34.2481 28.0866 36.0898 28.0866 37.9729C28.0866 48.3818 32.5574 57.7353 39.6568 64.2538C38.7047 64.0054 37.7112 63.8606 36.697 63.8606H19.4763C12.9151 63.8606 7.5957 69.1788 7.5957 75.7387C7.5957 82.2986 12.9151 87.6168 19.4763 87.6168H30.8188C30.7567 88.4239 30.7153 89.2516 30.7153 90.0794V102.144C30.7153 103.613 30.8188 105.062 31.005 106.469L17.0753 120.395C11.4455 126.024 11.4455 135.129 17.0753 140.758C22.7052 146.387 31.8123 146.387 37.4421 140.758L47.3978 130.804C52.2204 133.557 57.8088 135.15 63.7491 135.15C69.7101 135.15 75.2779 133.577 80.1005 130.804L90.0562 140.758C95.686 146.387 104.793 146.387 110.423 140.758C116.053 135.129 116.053 126.024 110.423 120.395L96.4932 106.469C96.6795 105.041 96.783 103.613 96.783 102.144V90.0794C96.783 89.2516 96.7416 88.4239 96.6795 87.6168H109.14C115.68 87.6168 121 82.2986 121 75.7387ZM31.7088 11.3816C29.1422 13.6579 26.9276 16.3067 25.1061 19.2452L21.4633 23.5909C17.6756 20.4247 17.1788 14.7754 20.3456 10.9885C23.5124 7.20153 29.1629 6.70489 32.9506 9.8917L31.7088 11.3816ZM72.6906 28.8677C73.0425 28.8677 73.3944 28.9298 73.7255 29.0333C74.3879 29.6334 75.0916 30.2128 75.8367 30.7095C76.1472 31.2475 76.3335 31.8476 76.3335 32.5098C76.3335 34.5171 74.6983 36.1519 72.6906 36.1519C70.6829 36.1519 69.0478 34.5171 69.0478 32.5098C69.0478 30.5025 70.6622 28.8677 72.6906 28.8677ZM38.2286 36.1726C36.2209 36.1726 34.5858 34.5378 34.5858 32.5305C34.5858 31.8683 34.7721 31.2475 35.0825 30.7095C35.8277 30.2128 36.5314 29.6541 37.1937 29.0333C37.5249 28.9298 37.8561 28.8677 38.2286 28.8677C40.2363 28.8677 41.8714 30.5025 41.8714 32.5098C41.8714 34.5378 40.2363 36.1726 38.2286 36.1726ZM44.7485 55.3141C43.9412 54.5071 43.9412 53.2034 44.7485 52.3963C45.5557 51.5893 46.8596 51.5893 47.6669 52.3963C49.2813 54.0104 51.289 55.0244 53.4002 55.4176V46.8091C49.6953 44.181 49.6746 41.0356 49.6953 40.7045V40.6838C49.6953 38.9662 51.1027 37.3728 52.8206 37.3728H58.1193C59.8372 37.3728 61.2447 38.9455 61.2447 40.6838C61.2447 40.6838 61.4517 44.0361 57.5398 46.8298V55.4383C59.6303 55.0451 61.638 54.0311 63.2731 52.417C64.0803 51.61 65.3843 51.61 66.1915 52.417C66.9987 53.2241 66.9987 54.5278 66.1915 55.3348C63.2317 58.294 59.3612 59.7633 55.47 59.7633C51.5788 59.7426 47.7083 58.2526 44.7485 55.3141ZM62.2382 126.645L82.4187 106.469C82.2945 117.478 73.2495 126.5 62.2382 126.645ZM79.2105 11.3816L77.9686 9.8917C81.7563 6.72558 87.4069 7.20153 90.5736 10.9885C93.7404 14.7754 93.2644 20.4247 89.4766 23.5909L85.8131 19.2245C83.9917 16.3067 81.7563 13.6579 79.2105 11.3816Z" fill="#EE8B00"/>
<path d="M113.404 75.5937C113.404 69.0338 108.085 63.7156 101.523 63.7156H84.3026C82.6054 63.7156 80.9702 64.0881 79.5214 64.7296C87.0347 58.1904 91.7952 48.5679 91.7952 37.8279C91.7952 35.9448 91.6504 34.103 91.3606 32.3027C97.7562 29.985 102.33 23.8597 102.33 16.6583C102.351 7.44969 94.8999 0 85.6894 0C80.4321 0 75.7544 2.44184 72.6911 6.24946C67.7443 3.66277 62.1144 2.17283 56.1534 2.17283C50.1924 2.17283 44.5626 3.64207 39.6158 6.24946C36.5525 2.44184 31.8541 0 26.5968 0C17.4069 0 9.935 7.44969 9.935 16.6583C9.935 23.8597 14.5092 29.9643 20.9049 32.3027C20.6151 34.103 20.4702 35.9448 20.4702 37.8279C20.4702 48.2368 24.941 57.5903 32.0404 64.1087C31.0883 63.8604 30.0948 63.7156 29.0806 63.7156H11.8806C5.31936 63.7156 0 69.0338 0 75.5937C0 82.1536 5.31936 87.4718 11.8806 87.4718H23.2231C23.161 88.2789 23.1196 89.1066 23.1196 89.9344V102.019C23.1196 103.489 23.2231 104.937 23.4093 106.344L9.47964 120.271C3.84981 125.9 3.84981 135.005 9.47964 140.634C15.1095 146.262 24.2166 146.262 29.8464 140.634L39.8021 130.68C44.6247 133.432 50.2131 135.026 56.1534 135.026C62.1144 135.026 67.6822 133.453 72.5048 130.68L82.4605 140.634C88.0903 146.262 97.1974 146.262 102.827 140.634C108.457 135.005 108.457 125.9 102.827 120.271L88.8975 106.344C89.0838 104.917 89.1873 103.489 89.1873 102.019V89.955C89.1873 89.1273 89.1459 88.2996 89.0838 87.4925H101.544C108.085 87.4718 113.404 82.1536 113.404 75.5937ZM73.3741 28.7227C73.726 28.7227 74.0778 28.7848 74.409 28.8883C75.0713 29.4884 75.7751 30.0678 76.5202 30.5644C76.8307 31.1025 77.0169 31.7026 77.0169 32.3648C77.0169 34.3721 75.3818 36.0069 73.3741 36.0069C71.3664 36.0069 69.7313 34.3721 69.7313 32.3648C69.7313 30.3575 71.3664 28.7227 73.3741 28.7227ZM78.6314 9.74668C82.4191 6.58056 88.0696 7.05652 91.2364 10.8434C94.4032 14.6304 93.9271 20.2797 90.1394 23.4458L86.4759 19.0795C84.6545 16.141 82.4398 13.5129 79.8732 11.2159L78.6314 9.74668ZM45.4319 52.2513C46.2391 51.4443 47.5431 51.4443 48.3503 52.2513C49.9648 53.8654 51.9725 54.8794 54.0836 55.2726V46.6641C50.3787 44.036 50.358 40.8905 50.3787 40.5594V40.5387C50.3787 38.8212 51.7862 37.2278 53.5041 37.2278H58.8028C60.5207 37.2278 61.9282 38.8005 61.9282 40.5387C61.9282 40.5387 62.1351 43.8911 58.2232 46.6847V55.2933C60.3137 54.9001 62.3214 53.8861 63.9566 52.272C64.7638 51.465 66.0677 51.465 66.875 52.272C67.6822 53.0791 67.6822 54.3828 66.875 55.1898C63.9152 58.149 60.0446 59.6182 56.1534 59.6182C52.2829 59.6182 48.3917 58.149 45.4319 55.1898C44.6247 54.3621 44.6247 53.0584 45.4319 52.2513ZM35.766 30.5644C36.5111 30.0678 37.2148 29.5091 37.8772 28.8883C38.2083 28.7848 38.5395 28.7227 38.9121 28.7227C40.9198 28.7227 42.5549 30.3575 42.5549 32.3648C42.5549 34.3721 40.9198 36.0069 38.9121 36.0069C36.9044 36.0069 35.2692 34.3721 35.2692 32.3648C35.2692 31.7233 35.4555 31.1025 35.766 30.5644ZM22.1468 23.4458C18.359 20.2797 17.8623 14.6304 21.0498 10.8434C24.2166 7.05652 29.8671 6.55987 33.6548 9.74668L32.4129 11.2366C29.8464 13.5129 27.6317 16.1617 25.8103 19.1002L22.1468 23.4458ZM83.1021 106.324C82.9779 117.333 73.9329 126.355 62.9217 126.5L83.1021 106.324Z" fill="#F8F9F3"/>
</g>
<defs>
<clipPath id="clip0_76_37">
<rect width="121" height="145" fill="white"/>
</clipPath>
</defs>
</svg>
