<svg width="170" height="142" viewBox="0 0 170 142" fill="none" xmlns="http://www.w3.org/2000/svg">
<g clip-path="url(#clip0_84_45)">
<path d="M142.993 73.6046C142.993 67.3162 137.893 62.218 131.604 62.218H115.095C113.468 62.218 111.901 62.5751 110.512 63.19C117.715 56.9214 122.278 47.6971 122.278 37.4015C122.278 35.5963 122.139 33.8308 121.861 32.105C127.992 29.8832 132.377 24.0113 132.377 17.1079C132.377 8.28035 125.234 1.13892 116.405 1.13892C111.365 1.13892 106.881 3.47972 103.945 7.12978C99.2223 4.63028 93.8254 3.22183 88.1111 3.22183C82.3769 3.22183 76.9999 4.63028 72.2578 7.12978C69.3212 3.47972 64.8371 1.13892 59.7974 1.13892C50.9679 1.13892 43.825 8.28035 43.825 17.1079C43.825 24.0113 48.2099 29.8633 54.341 32.105C54.0632 33.8308 53.9243 35.5963 53.9243 37.4015C53.9243 47.3797 58.21 56.3461 65.0157 62.5949C64.1029 62.3568 63.1506 62.218 62.1783 62.218H45.6702C39.3805 62.218 34.2812 67.3162 34.2812 73.6046C34.2812 79.893 39.3805 84.9912 45.6702 84.9912H56.5434C56.4838 85.7649 56.4441 86.5583 56.4441 87.3518V98.917C56.4441 100.325 56.5434 101.714 56.7219 103.063L43.3686 116.413C37.9718 121.809 37.9718 130.538 43.3686 135.933C48.7655 141.329 57.4957 141.329 62.8926 135.933L72.4364 126.392C77.0594 129.03 82.4166 130.557 88.1111 130.557C93.8254 130.557 99.1628 129.05 103.786 126.392L113.33 135.933C118.726 141.329 127.457 141.329 132.854 135.933C138.25 130.538 138.25 121.809 132.854 116.413L119.5 103.063C119.679 101.694 119.778 100.325 119.778 98.917V87.3518C119.778 86.5583 119.738 85.7649 119.679 84.9912H131.623C137.893 84.9912 142.993 79.893 142.993 73.6046ZM57.3965 11.9106C54.9362 14.0927 52.8132 16.6319 51.0671 19.4487L47.575 23.6146C43.944 20.5795 43.4678 15.1639 46.5036 11.5337C49.5393 7.90344 54.956 7.42734 58.587 10.4823L57.3965 11.9106ZM96.6826 28.6731C97.0199 28.6731 97.3572 28.7326 97.6747 28.8318C98.3096 29.4071 98.9842 29.9625 99.6985 30.4386C99.9961 30.9544 100.175 31.5297 100.175 32.1645C100.175 34.0887 98.6072 35.6558 96.6826 35.6558C94.758 35.6558 93.1905 34.0887 93.1905 32.1645C93.1905 30.2402 94.7381 28.6731 96.6826 28.6731ZM63.6466 35.6757C61.722 35.6757 60.1545 34.1085 60.1545 32.1843C60.1545 31.5495 60.3331 30.9544 60.6307 30.4386C61.345 29.9625 62.0196 29.4269 62.6545 28.8318C62.972 28.7326 63.2894 28.6731 63.6466 28.6731C65.5712 28.6731 67.1387 30.2402 67.1387 32.1645C67.1387 34.1085 65.5712 35.6757 63.6466 35.6757ZM69.8966 54.0252C69.1228 53.2515 69.1228 52.0018 69.8966 51.2281C70.6705 50.4545 71.9205 50.4545 72.6943 51.2281C74.2419 52.7754 76.1665 53.7474 78.1904 54.1244V45.872C74.6388 43.3527 74.6189 40.3374 74.6388 40.02V40.0002C74.6388 38.3537 75.988 36.8262 77.6348 36.8262H82.7142C84.3611 36.8262 85.7103 38.3339 85.7103 40.0002C85.7103 40.0002 85.9087 43.2138 82.1587 45.8919V54.1442C84.1627 53.7673 86.0873 52.7953 87.6547 51.248C88.4286 50.4743 89.6786 50.4743 90.4524 51.248C91.2262 52.0216 91.2262 53.2714 90.4524 54.045C87.6151 56.8817 83.9047 58.2902 80.1745 58.2902C76.4443 58.2704 72.734 56.8421 69.8966 54.0252ZM86.6627 122.404L106.008 103.063C105.889 113.616 97.2183 122.266 86.6627 122.404ZM102.933 11.9106L101.742 10.4823C105.373 7.44718 110.79 7.90344 113.826 11.5337C116.861 15.1639 116.405 20.5795 112.774 23.6146L109.262 19.4289C107.516 16.6319 105.373 14.0927 102.933 11.9106Z" fill="#EE8B00"/>
<path d="M135.711 73.4657C135.711 67.1772 130.612 62.0791 124.322 62.0791H107.814C106.187 62.0791 104.62 62.4361 103.231 63.0511C110.433 56.7825 114.997 47.5582 114.997 37.2626C114.997 35.4574 114.858 33.6919 114.58 31.966C120.711 29.7443 125.096 23.8724 125.096 16.969C125.116 8.14143 117.973 1 109.144 1C104.104 1 99.6197 3.3408 96.6832 6.99087C91.9411 4.5112 86.5442 3.08292 80.8298 3.08292C75.1155 3.08292 69.7186 4.49137 64.9765 6.99087C62.04 3.3408 57.536 1 52.4963 1C43.6867 1 36.5239 8.14143 36.5239 16.969C36.5239 23.8724 40.9089 29.7244 47.0399 31.966C46.7621 33.6919 46.6232 35.4574 46.6232 37.2626C46.6232 47.2408 50.9089 56.2072 57.7146 62.456C56.8019 62.2179 55.8495 62.0791 54.8772 62.0791H38.389C32.0993 62.0791 27 67.1772 27 73.4657C27 79.7541 32.0993 84.8523 38.389 84.8523H49.2621C49.2026 85.6259 49.1629 86.4194 49.1629 87.2129V98.7979C49.1629 100.206 49.2621 101.595 49.4407 102.944L36.0874 116.294C30.6905 121.69 30.6905 130.419 36.0874 135.814C41.4843 141.21 50.2145 141.21 55.6114 135.814L65.1551 126.273C69.7782 128.911 75.1353 130.438 80.8298 130.438C86.5442 130.438 91.8815 128.931 96.5046 126.273L106.048 135.814C111.445 141.21 120.175 141.21 125.572 135.814C130.969 130.419 130.969 121.69 125.572 116.294L112.219 102.944C112.398 101.575 112.497 100.206 112.497 98.7979V87.2328C112.497 86.4393 112.457 85.6458 112.398 84.8721H124.342C130.612 84.8523 135.711 79.7541 135.711 73.4657ZM97.3379 28.5342C97.6752 28.5342 98.0125 28.5937 98.33 28.6929C98.9649 29.2682 99.6395 29.8236 100.354 30.2997C100.651 30.8155 100.83 31.3908 100.83 32.0255C100.83 33.9498 99.2625 35.5169 97.3379 35.5169C95.4133 35.5169 93.8458 33.9498 93.8458 32.0255C93.8458 30.1013 95.4133 28.5342 97.3379 28.5342ZM102.378 10.3434C106.009 7.30826 111.425 7.76452 114.461 11.3947C117.497 15.025 117.04 20.4406 113.41 23.4757L109.898 19.29C108.152 16.4731 106.028 13.9538 103.568 11.7518L102.378 10.3434ZM70.552 51.0892C71.3258 50.3155 72.5758 50.3155 73.3496 51.0892C74.8973 52.6365 76.8219 53.6085 78.8457 53.9854V45.7331C75.2941 43.2138 75.2742 40.1985 75.2941 39.8811V39.8613C75.2941 38.2148 76.6433 36.6873 78.2901 36.6873H83.3695C85.0164 36.6873 86.3656 38.1949 86.3656 39.8613C86.3656 39.8613 86.564 43.0749 82.814 45.753V54.0053C84.818 53.6284 86.7426 52.6563 88.3101 51.109C89.0839 50.3354 90.3339 50.3354 91.1077 51.109C91.8815 51.8827 91.8815 53.1324 91.1077 53.9061C88.2704 56.7428 84.56 58.1513 80.8298 58.1513C77.1195 58.1513 73.3893 56.7428 70.552 53.9061C69.7782 53.1126 69.7782 51.8629 70.552 51.0892ZM61.286 30.2997C62.0003 29.8236 62.6749 29.288 63.3098 28.6929C63.6273 28.5937 63.9448 28.5342 64.3019 28.5342C66.2265 28.5342 67.794 30.1013 67.794 32.0255C67.794 33.9498 66.2265 35.5169 64.3019 35.5169C62.3773 35.5169 60.8098 33.9498 60.8098 32.0255C60.8098 31.4106 60.9884 30.8155 61.286 30.2997ZM48.2303 23.4757C44.5994 20.4406 44.1232 15.025 47.1787 11.3947C50.2145 7.76452 55.6312 7.28843 59.2622 10.3434L58.0717 11.7717C55.6114 13.9538 53.4883 16.4929 51.7423 19.3098L48.2303 23.4757ZM106.663 102.924C106.544 113.478 97.8736 122.127 87.318 122.265L106.663 102.924Z" fill="#F8F9F3"/>
</g>
<defs>
<clipPath id="clip0_84_45">
<rect width="115.993" height="139" fill="white" transform="translate(27 1)"/>
</clipPath>
</defs>
</svg>
