<svg width="204" height="226" viewBox="0 0 204 226" fill="none" xmlns="http://www.w3.org/2000/svg">
<path d="M51.2129 89.54C51.2129 86.4639 52.1895 83.8027 54.1426 81.5566C56.0957 79.2617 58.8789 78.1143 62.4922 78.1143H82.2676C85.6855 78.1143 88.3955 78.8711 90.3975 80.3848C93.083 82.4844 94.4258 85.8291 94.4258 90.4189V173.842C94.4258 178.041 93.3027 181.264 91.0566 183.51C88.8105 185.756 85.8809 186.879 82.2676 186.879C78.5566 186.879 75.6025 185.78 73.4053 183.583C71.208 181.386 70.1094 178.139 70.1094 173.842V100.819H62.4922C58.8789 100.819 56.0957 99.6963 54.1426 97.4502C52.1895 95.2041 51.2129 92.5674 51.2129 89.54ZM108.649 132.021C108.649 116.64 112.238 103.725 119.416 93.2754C127.521 81.6055 138.825 75.7705 153.327 75.7705C167.829 75.7705 179.133 81.6055 187.238 93.2754C194.416 103.578 198.029 116.493 198.078 132.021C198.078 147.499 194.465 160.438 187.238 170.839C179.133 182.558 167.829 188.417 153.327 188.417C138.825 188.417 127.521 182.558 119.416 170.839C112.238 160.438 108.649 147.499 108.649 132.021ZM133.845 132.021C133.845 140.419 135.188 147.572 137.873 153.48C141.389 161.049 146.54 164.833 153.327 164.833C160.212 164.833 165.363 161.098 168.781 153.627C171.467 147.719 172.834 140.517 172.883 132.021C172.883 123.72 171.516 116.615 168.781 110.707C165.266 103.09 160.114 99.2812 153.327 99.2812C146.442 99.2812 141.291 103.041 137.873 110.561C135.188 116.469 133.845 123.622 133.845 132.021Z" fill="#EE8B00"/>
<path d="M44.2129 88.54C44.2129 85.4639 45.1895 82.8027 47.1426 80.5566C49.0957 78.2617 51.8789 77.1143 55.4922 77.1143H75.2676C78.6855 77.1143 81.3955 77.8711 83.3975 79.3848C86.083 81.4844 87.4258 84.8291 87.4258 89.4189V172.842C87.4258 177.041 86.3027 180.264 84.0566 182.51C81.8105 184.756 78.8809 185.879 75.2676 185.879C71.5566 185.879 68.6025 184.78 66.4053 182.583C64.208 180.386 63.1094 177.139 63.1094 172.842V99.8193H55.4922C51.8789 99.8193 49.0957 98.6963 47.1426 96.4502C45.1895 94.2041 44.2129 91.5674 44.2129 88.54ZM101.649 131.021C101.649 115.64 105.238 102.725 112.416 92.2754C120.521 80.6055 131.825 74.7705 146.327 74.7705C160.829 74.7705 172.133 80.6055 180.238 92.2754C187.416 102.578 191.029 115.493 191.078 131.021C191.078 146.499 187.465 159.438 180.238 169.839C172.133 181.558 160.829 187.417 146.327 187.417C131.825 187.417 120.521 181.558 112.416 169.839C105.238 159.438 101.649 146.499 101.649 131.021ZM126.845 131.021C126.845 139.419 128.188 146.572 130.873 152.48C134.389 160.049 139.54 163.833 146.327 163.833C153.212 163.833 158.363 160.098 161.781 152.627C164.467 146.719 165.834 139.517 165.883 131.021C165.883 122.72 164.516 115.615 161.781 109.707C158.266 102.09 153.114 98.2812 146.327 98.2812C139.442 98.2812 134.291 102.041 130.873 109.561C128.188 115.469 126.845 122.622 126.845 131.021Z" fill="white"/>
</svg>
