<svg width="170" height="142" viewBox="0 0 170 142" fill="none" xmlns="http://www.w3.org/2000/svg">
<path d="M36.1422 42.8H28.4922C24.8922 42.8 22.0922 41.7 20.0922 39.5C18.1922 37.2 17.2422 34.55 17.2422 31.55C17.2422 28.45 18.1922 25.8 20.0922 23.6C22.0922 21.3 24.8922 20.15 28.4922 20.15H48.2922C51.6922 20.15 54.3922 20.9 56.3922 22.4C59.0922 24.5 60.4422 27.85 60.4422 32.45V115.85C60.4422 120.05 59.2922 123.3 56.9922 125.6C54.7922 127.8 51.8922 128.9 48.2922 128.9C44.5922 128.9 41.6422 127.8 39.4422 125.6C37.2422 123.4 36.1422 120.15 36.1422 115.85V42.8ZM119.35 17.75C133.85 17.75 145.15 23.6 153.25 35.3C160.45 45.6 164.05 58.5 164.05 74C164.05 89.5 160.45 102.45 153.25 112.85C145.15 124.55 133.85 130.4 119.35 130.4C104.85 130.4 93.55 124.55 85.45 112.85C78.25 102.45 74.65 89.5 74.65 74C74.65 58.6 78.25 45.7 85.45 35.3C93.55 23.6 104.85 17.75 119.35 17.75ZM119.35 106.85C126.25 106.85 131.4 103.1 134.8 95.6C137.5 89.7 138.85 82.5 138.85 74C138.85 65.7 137.5 58.6 134.8 52.7C131.3 45.1 126.15 41.3 119.35 41.3C112.45 41.3 107.3 45.05 103.9 52.55C101.2 58.45 99.85 65.6 99.85 74C99.85 82.4 101.2 89.55 103.9 95.45C107.4 103.05 112.55 106.85 119.35 106.85Z" fill="#EE8B00"/>
<path d="M29.1422 41.8H21.4922C17.8922 41.8 15.0922 40.7 13.0922 38.5C11.1922 36.2 10.2422 33.55 10.2422 30.55C10.2422 27.45 11.1922 24.8 13.0922 22.6C15.0922 20.3 17.8922 19.15 21.4922 19.15H41.2922C44.6922 19.15 47.3922 19.9 49.3922 21.4C52.0922 23.5 53.4422 26.85 53.4422 31.45V114.85C53.4422 119.05 52.2922 122.3 49.9922 124.6C47.7922 126.8 44.8922 127.9 41.2922 127.9C37.5922 127.9 34.6422 126.8 32.4422 124.6C30.2422 122.4 29.1422 119.15 29.1422 114.85V41.8ZM112.35 16.75C126.85 16.75 138.15 22.6 146.25 34.3C153.45 44.6 157.05 57.5 157.05 73C157.05 88.5 153.45 101.45 146.25 111.85C138.15 123.55 126.85 129.4 112.35 129.4C97.85 129.4 86.55 123.55 78.45 111.85C71.25 101.45 67.65 88.5 67.65 73C67.65 57.6 71.25 44.7 78.45 34.3C86.55 22.6 97.85 16.75 112.35 16.75ZM112.35 105.85C119.25 105.85 124.4 102.1 127.8 94.6C130.5 88.7 131.85 81.5 131.85 73C131.85 64.7 130.5 57.6 127.8 51.7C124.3 44.1 119.15 40.3 112.35 40.3C105.45 40.3 100.3 44.05 96.9 51.55C94.2 57.45 92.85 64.6 92.85 73C92.85 81.4 94.2 88.55 96.9 94.45C100.4 102.05 105.55 105.85 112.35 105.85Z" fill="white"/>
</svg>
