<svg width="155" height="118" viewBox="0 0 155 118" fill="none" xmlns="http://www.w3.org/2000/svg">
<path d="M54.075 118C53.96 118 53.8451 118 53.7301 118C50.1659 117.868 46.9467 115.76 44.9921 112.334C33.0349 90.7261 12.1098 70.6989 11.8798 70.5671C7.28091 66.2191 6.70604 58.4454 10.5002 53.1751C14.2943 47.9048 21.0777 47.1142 25.6766 51.594C26.4814 52.3845 41.6579 66.8779 54.6499 85.5875C67.8718 68.459 95.3504 36.7053 138.35 4.95168C143.409 1.26245 150.078 2.97531 153.297 8.6409C156.516 14.4382 155.022 22.0802 150.078 25.7694C91.7862 68.5908 63.0429 112.466 62.813 112.993C60.7435 116.155 57.5242 118 54.075 118Z" fill="#EE8B00"/>
<path d="M46.075 114C45.96 114 45.8451 114 45.7301 114C42.1659 113.869 38.9467 111.78 36.9921 108.384C25.0349 86.9633 4.10978 67.1102 3.87984 66.9796C-0.719094 62.6694 -1.29396 54.9633 2.50016 49.7388C6.29428 44.5143 13.0777 43.7306 17.6766 48.1714C18.4814 48.9551 33.6579 63.3225 46.6499 81.8694C59.8718 64.8898 87.3504 33.4123 130.35 1.93471C135.409 -1.72244 142.078 -0.0244776 145.297 5.59185C148.516 11.3388 147.022 18.9143 142.078 22.5714C83.7862 65.0204 55.0429 108.514 54.813 109.037C52.7435 112.171 49.5242 114 46.075 114Z" fill="#FEFFFD"/>
</svg>
